{"glyphs":{"0":{"ha":896,"x_min":63,"x_max":888,"o":"m 400 -11 q 206 45 286 -11 q 95 204 126 101 q 92 450 63 307 l 114 564 q 205 806 142 706 q 358 959 268 906 q 557 1011 448 1011 q 747 956 669 1011 q 857 799 825 901 q 859 552 888 696 l 836 431 q 678 104 793 219 q 400 -11 564 -11 m 408 157 q 511 188 465 157 q 590 277 557 218 q 640 418 623 336 l 677 595 q 682 731 694 677 q 634 813 670 785 q 544 840 599 840 q 439 810 486 840 q 359 721 392 779 q 309 578 327 663 l 275 401 q 271 266 258 320 q 318 184 283 212 q 408 157 354 157 z "},"1":{"ha":569,"x_min":132,"x_max":581,"o":"m 186 0 l 350 825 l 376 764 l 132 675 l 170 863 l 518 1000 l 581 1000 l 380 0 l 186 0 z "},"2":{"ha":807,"x_min":3,"x_max":797,"o":"m 3 0 l 9 44 l 350 404 q 425 479 382 437 q 510 566 469 521 q 578 655 551 610 q 606 739 606 700 q 574 810 606 780 q 485 840 542 840 q 403 819 439 840 q 345 761 367 798 q 316 677 323 724 l 124 696 q 185 861 137 790 q 311 971 233 932 q 490 1011 389 1011 q 647 981 578 1011 q 756 895 716 951 q 797 759 797 838 q 770 638 797 694 q 700 531 744 582 q 604 430 656 480 q 500 326 552 380 l 350 170 l 345 165 l 488 171 l 697 171 l 665 0 l 3 0 z "},"3":{"ha":804,"x_min":20,"x_max":764,"o":"m 359 -11 q 183 27 261 -11 q 62 134 104 66 q 31 290 20 201 l 220 275 q 238 206 218 234 q 292 164 258 178 q 365 151 326 151 q 456 173 417 151 q 516 233 495 195 q 538 315 538 270 q 521 381 538 356 q 479 418 504 406 q 427 435 454 431 q 378 439 399 439 l 327 439 l 359 589 l 410 589 q 494 612 456 589 q 554 671 532 635 q 577 749 577 708 q 546 822 577 798 q 466 846 514 846 q 396 830 425 846 q 349 787 366 814 q 326 726 331 760 l 144 740 q 204 884 157 824 q 324 978 252 945 q 481 1011 396 1011 q 626 981 562 1011 q 727 896 690 950 q 764 769 764 841 q 739 657 764 709 q 669 567 713 606 q 567 508 625 529 q 445 488 509 487 l 445 541 q 597 510 535 542 q 691 424 659 479 q 724 298 724 368 q 674 138 724 208 q 541 28 624 68 q 359 -11 458 -11 z "},"4":{"ha":831,"x_min":1,"x_max":809,"o":"m 423 0 l 538 574 l 574 743 l 570 743 l 465 617 l 245 368 l 244 363 l 796 363 l 766 204 l 1 204 l 22 312 l 639 1000 l 809 1000 l 609 0 l 423 0 z "},"5":{"ha":799,"x_min":44,"x_max":792,"o":"m 375 -11 q 216 22 286 -11 q 100 106 145 54 q 44 214 56 157 l 223 274 q 255 217 233 243 q 309 174 277 191 q 381 158 341 158 q 470 182 430 158 q 536 248 511 206 q 561 340 561 289 q 522 443 561 401 q 406 485 483 485 q 317 467 354 485 q 258 425 280 448 l 132 463 l 243 1000 l 792 1000 l 758 832 l 391 832 l 326 518 l 304 583 q 371 622 330 608 q 465 636 412 636 q 610 601 548 636 q 707 503 672 566 q 741 353 741 439 q 694 170 741 253 q 565 38 647 87 q 375 -11 482 -11 z "},"6":{"ha":798,"x_min":39,"x_max":743,"o":"m 365 -11 q 190 31 262 -11 q 78 141 117 73 q 39 288 39 210 q 62 409 39 353 q 119 513 85 465 q 187 605 153 562 l 503 1000 l 727 1000 l 408 595 l 376 606 q 408 626 390 619 q 459 633 427 633 q 606 596 542 633 q 706 494 669 559 q 743 345 743 429 q 693 164 743 245 q 557 36 643 83 q 365 -11 471 -11 m 370 155 q 468 180 425 155 q 536 247 511 205 q 560 338 560 288 q 545 408 560 376 q 497 460 529 440 q 414 479 465 479 q 316 455 359 479 q 247 389 272 430 q 221 298 221 347 q 239 225 221 258 q 290 174 256 193 q 370 155 323 155 z "},"7":{"ha":747,"x_min":76,"x_max":844,"o":"m 76 0 l 615 922 l 659 829 l 118 829 l 152 1000 l 844 1000 l 837 964 l 281 0 l 76 0 z "},"8":{"ha":847,"x_min":46,"x_max":804,"o":"m 381 -11 q 209 24 285 -11 q 90 120 134 59 q 46 260 46 182 q 79 385 46 328 q 170 485 113 442 q 299 551 227 528 q 452 574 372 574 q 623 539 553 574 q 731 443 694 503 q 768 309 768 383 q 738 181 768 240 q 653 80 707 123 q 530 13 600 37 q 381 -11 460 -11 m 388 147 q 489 171 446 147 q 556 233 532 195 q 580 312 580 271 q 541 400 580 363 q 431 438 503 438 q 329 413 373 438 q 260 349 285 388 q 235 269 235 311 q 254 204 235 232 q 309 162 274 177 q 388 147 344 147 m 457 463 q 313 495 374 463 q 218 582 252 526 q 184 709 184 637 q 231 863 184 795 q 354 971 277 932 q 525 1011 431 1011 q 670 980 608 1011 q 768 893 733 948 q 804 766 804 838 q 756 612 804 681 q 631 503 709 543 q 457 463 552 463 m 468 591 q 554 615 517 591 q 611 676 591 640 q 631 753 631 713 q 597 831 631 805 q 513 858 563 858 q 431 837 467 858 q 373 780 394 816 q 352 703 352 745 q 385 621 352 650 q 468 591 417 591 z "},"9":{"ha":798,"x_min":110,"x_max":814,"o":"m 488 1011 q 664 969 591 1011 q 775 859 736 927 q 814 712 814 791 q 791 592 814 648 q 734 487 768 536 q 666 395 700 439 l 351 1 l 126 1 l 446 405 l 477 394 q 445 374 463 381 q 394 367 427 367 q 248 404 312 367 q 147 506 184 441 q 110 656 110 571 q 160 837 110 756 q 296 964 210 917 q 488 1011 382 1011 m 483 846 q 385 821 428 846 q 317 754 342 795 q 293 663 293 713 q 309 593 293 625 q 356 541 324 560 q 439 521 389 521 q 538 546 494 521 q 606 612 581 570 q 631 703 631 654 q 614 775 631 743 q 564 827 597 808 q 483 846 530 846 z "},"A":{"ha":986,"x_min":-64,"x_max":906,"o":"m -64 0 l 539 1000 l 704 1000 l 906 0 l 710 0 l 664 269 l 660 342 l 586 764 l 581 764 l 345 342 l 311 267 l 157 0 l -64 0 m 198 219 l 232 382 l 768 382 l 734 219 l 198 219 z "},"Á":{"ha":986,"x_min":-64,"x_max":906,"o":"m -64 0 l 539 1000 l 704 1000 l 906 0 l 710 0 l 664 269 l 660 342 l 586 764 l 581 764 l 345 342 l 311 267 l 157 0 l -64 0 m 198 219 l 232 382 l 768 382 l 734 219 l 198 219 m 646 1048 l 548 1128 l 733 1333 l 847 1217 l 646 1048 z "},"Ă":{"ha":986,"x_min":-64,"x_max":927,"o":"m -64 0 l 539 1000 l 704 1000 l 906 0 l 710 0 l 664 269 l 660 342 l 586 764 l 581 764 l 345 342 l 311 267 l 157 0 l -64 0 m 198 219 l 232 382 l 768 382 l 734 219 l 198 219 m 642 1061 q 520 1088 572 1061 q 443 1164 467 1115 q 433 1278 419 1213 l 543 1261 q 550 1204 536 1225 q 591 1173 564 1182 q 650 1163 618 1163 q 758 1194 710 1163 q 815 1278 805 1224 l 927 1261 q 870 1150 915 1194 q 765 1083 826 1105 q 642 1061 705 1061 z "},"Ắ":{"ha":986,"x_min":-64,"x_max":907,"o":"m -64 0 l 539 1000 l 704 1000 l 906 0 l 710 0 l 664 269 l 660 342 l 586 764 l 581 764 l 345 342 l 311 267 l 157 0 l -64 0 m 198 219 l 232 382 l 768 382 l 734 219 l 198 219 m 649 1220 l 555 1288 l 707 1512 l 824 1413 l 649 1220 m 631 1059 q 508 1084 563 1059 q 427 1157 454 1109 q 412 1271 399 1205 l 522 1261 q 531 1204 516 1227 q 574 1170 546 1181 q 635 1158 602 1158 q 736 1190 692 1158 q 790 1276 781 1222 l 907 1265 q 853 1153 894 1199 q 755 1083 812 1107 q 631 1059 697 1059 z "},"Ặ":{"ha":986,"x_min":-64,"x_max":927,"o":"m -64 0 l 539 1000 l 704 1000 l 906 0 l 710 0 l 664 269 l 660 342 l 586 764 l 581 764 l 345 342 l 311 267 l 157 0 l -64 0 m 198 219 l 232 382 l 768 382 l 734 219 l 198 219 m 399 -317 q 314 -282 349 -317 q 280 -198 280 -248 q 314 -114 280 -148 q 399 -79 349 -79 q 484 -114 449 -79 q 518 -198 518 -148 q 484 -282 518 -248 q 399 -317 449 -317 m 642 1062 q 520 1089 572 1062 q 443 1164 467 1116 q 433 1279 419 1213 l 543 1262 q 550 1204 536 1226 q 591 1173 564 1183 q 650 1164 618 1164 q 758 1194 710 1164 q 815 1279 805 1225 l 927 1262 q 870 1151 915 1195 q 765 1084 826 1106 q 642 1062 705 1062 z "},"Ằ":{"ha":986,"x_min":-64,"x_max":906,"o":"m -64 0 l 539 1000 l 704 1000 l 906 0 l 710 0 l 664 269 l 660 342 l 586 764 l 581 764 l 345 342 l 311 267 l 157 0 l -64 0 m 198 219 l 232 382 l 768 382 l 734 219 l 198 219 m 665 1225 l 452 1392 l 555 1506 l 747 1312 l 665 1225 m 631 1059 q 508 1084 562 1059 q 426 1157 453 1109 q 412 1271 399 1205 l 522 1261 q 531 1204 515 1227 q 574 1170 546 1181 q 634 1158 602 1158 q 735 1190 691 1158 q 789 1276 780 1222 l 906 1265 q 853 1153 893 1199 q 755 1083 812 1107 q 631 1059 697 1059 z "},"Ẳ":{"ha":986,"x_min":-64,"x_max":930,"o":"m -64 0 l 539 1000 l 704 1000 l 906 0 l 710 0 l 664 269 l 660 342 l 586 764 l 581 764 l 345 342 l 311 267 l 157 0 l -64 0 m 198 219 l 232 382 l 768 382 l 734 219 l 198 219 m 655 1059 q 532 1084 587 1059 q 450 1157 477 1109 q 436 1271 423 1205 l 546 1261 q 555 1204 540 1227 q 598 1170 570 1181 q 659 1158 626 1158 q 760 1190 715 1158 q 814 1276 804 1222 l 930 1265 q 877 1153 918 1199 q 779 1083 837 1107 q 655 1059 721 1059 m 662 1206 l 604 1280 q 650 1313 633 1295 q 673 1351 668 1331 q 665 1379 677 1369 q 621 1390 654 1390 q 574 1385 600 1390 q 531 1375 549 1381 l 546 1491 q 587 1500 566 1497 q 632 1503 608 1503 q 762 1465 724 1503 q 787 1364 800 1426 q 742 1272 777 1312 q 662 1206 707 1232 z "},"Ẵ":{"ha":986,"x_min":-64,"x_max":963,"o":"m -64 0 l 539 1000 l 704 1000 l 906 0 l 710 0 l 664 269 l 660 342 l 586 764 l 581 764 l 345 342 l 311 267 l 157 0 l -64 0 m 198 219 l 232 382 l 768 382 l 734 219 l 198 219 m 536 1312 l 417 1324 q 484 1455 434 1406 q 602 1503 534 1503 q 661 1491 637 1503 q 703 1462 685 1479 q 737 1434 721 1446 q 772 1421 753 1421 q 817 1450 798 1421 q 842 1516 836 1479 l 963 1505 q 926 1407 952 1451 q 861 1336 899 1363 q 777 1310 822 1310 q 719 1322 742 1310 q 677 1351 695 1335 q 643 1379 660 1367 q 606 1392 626 1392 q 562 1372 580 1392 q 536 1312 545 1352 m 625 1059 q 502 1084 556 1059 q 420 1157 447 1109 q 406 1271 393 1205 l 515 1261 q 524 1204 509 1227 q 567 1170 539 1181 q 628 1158 595 1158 q 729 1190 685 1158 q 783 1276 774 1222 l 899 1265 q 846 1153 886 1199 q 748 1083 806 1107 q 625 1059 690 1059 z "},"Ǎ":{"ha":986,"x_min":-64,"x_max":916,"o":"m -64 0 l 539 1000 l 704 1000 l 906 0 l 710 0 l 664 269 l 660 342 l 586 764 l 581 764 l 345 342 l 311 267 l 157 0 l -64 0 m 198 219 l 232 382 l 768 382 l 734 219 l 198 219 m 612 1050 l 407 1215 l 500 1303 l 645 1177 l 651 1177 l 841 1303 l 916 1215 l 651 1050 l 612 1050 z "},"Â":{"ha":986,"x_min":-64,"x_max":907,"o":"m -64 0 l 539 1000 l 704 1000 l 906 0 l 710 0 l 664 269 l 660 342 l 586 764 l 581 764 l 345 342 l 311 267 l 157 0 l -64 0 m 198 219 l 232 382 l 768 382 l 734 219 l 198 219 m 473 1050 l 399 1139 l 663 1303 l 702 1303 l 907 1139 l 814 1050 l 669 1178 l 663 1178 l 473 1050 z "},"Ấ":{"ha":986,"x_min":-64,"x_max":1107,"o":"m -64 0 l 539 1000 l 704 1000 l 906 0 l 710 0 l 664 269 l 660 342 l 586 764 l 581 764 l 345 342 l 311 267 l 157 0 l -64 0 m 198 219 l 232 382 l 768 382 l 734 219 l 198 219 m 855 1225 l 783 1286 l 1038 1503 l 1107 1385 l 855 1225 m 467 1040 l 393 1128 l 656 1291 l 696 1291 l 901 1128 l 808 1040 l 659 1166 l 659 1166 l 467 1040 z "},"Ậ":{"ha":986,"x_min":-64,"x_max":907,"o":"m -64 0 l 539 1000 l 704 1000 l 906 0 l 710 0 l 664 269 l 660 342 l 586 764 l 581 764 l 345 342 l 311 267 l 157 0 l -64 0 m 198 219 l 232 382 l 768 382 l 734 219 l 198 219 m 399 -317 q 314 -282 349 -317 q 280 -198 280 -248 q 314 -114 280 -148 q 399 -79 349 -79 q 484 -114 449 -79 q 518 -198 518 -148 q 484 -282 518 -248 q 399 -317 449 -317 m 473 1051 l 399 1140 l 663 1304 l 702 1304 l 907 1140 l 814 1051 l 669 1179 l 663 1179 l 473 1051 z "},"Ầ":{"ha":986,"x_min":-64,"x_max":906,"o":"m -64 0 l 539 1000 l 704 1000 l 906 0 l 710 0 l 664 269 l 660 342 l 586 764 l 581 764 l 345 342 l 311 267 l 157 0 l -64 0 m 198 219 l 232 382 l 768 382 l 734 219 l 198 219 m 413 1224 l 235 1425 l 350 1516 l 507 1283 l 413 1224 m 431 1041 l 357 1129 l 620 1293 l 659 1293 l 865 1129 l 771 1041 l 623 1168 l 622 1168 l 431 1041 z "},"Ẩ":{"ha":986,"x_min":-64,"x_max":979,"o":"m -64 0 l 539 1000 l 704 1000 l 906 0 l 710 0 l 664 269 l 660 342 l 586 764 l 581 764 l 345 342 l 311 267 l 157 0 l -64 0 m 198 219 l 232 382 l 768 382 l 734 219 l 198 219 m 863 1215 l 782 1282 q 830 1319 812 1299 q 852 1356 848 1339 q 845 1382 856 1373 q 802 1391 834 1391 q 760 1388 784 1391 q 718 1378 736 1384 l 732 1493 q 770 1502 750 1499 q 813 1505 790 1505 q 942 1467 905 1505 q 968 1366 979 1429 q 929 1278 959 1318 q 863 1215 899 1239 m 467 1040 l 393 1128 l 656 1291 l 695 1291 l 901 1128 l 807 1040 l 659 1166 l 658 1166 l 467 1040 z "},"Ẫ":{"ha":986,"x_min":-64,"x_max":962,"o":"m -64 0 l 539 1000 l 704 1000 l 906 0 l 710 0 l 664 269 l 660 342 l 586 764 l 581 764 l 345 342 l 311 267 l 157 0 l -64 0 m 198 219 l 232 382 l 768 382 l 734 219 l 198 219 m 534 1312 l 415 1324 q 483 1455 433 1406 q 601 1503 533 1503 q 660 1491 636 1503 q 702 1462 684 1479 q 736 1434 720 1446 q 771 1421 752 1421 q 816 1450 798 1421 q 842 1516 835 1479 l 962 1505 q 925 1407 951 1451 q 860 1336 899 1363 q 776 1310 821 1310 q 718 1322 741 1310 q 677 1351 694 1335 q 642 1379 659 1367 q 605 1392 625 1392 q 562 1372 580 1392 q 534 1312 543 1352 m 468 1040 l 394 1128 l 657 1291 l 696 1291 l 902 1128 l 808 1040 l 660 1166 l 659 1166 l 468 1040 z "},"Ȁ":{"ha":986,"x_min":-64,"x_max":906,"o":"m -64 0 l 539 1000 l 704 1000 l 906 0 l 710 0 l 664 269 l 660 342 l 586 764 l 581 764 l 345 342 l 311 267 l 157 0 l -64 0 m 198 219 l 232 382 l 768 382 l 734 219 l 198 219 m 469 1063 l 341 1281 l 475 1350 l 570 1109 l 469 1063 m 726 1063 l 602 1281 l 736 1350 l 828 1109 l 726 1063 z "},"Ä":{"ha":986,"x_min":-64,"x_max":930,"o":"m -64 0 l 539 1000 l 704 1000 l 906 0 l 710 0 l 664 269 l 660 342 l 586 764 l 581 764 l 345 342 l 311 267 l 157 0 l -64 0 m 198 219 l 232 382 l 768 382 l 734 219 l 198 219 m 825 1055 q 744 1087 777 1055 q 711 1167 711 1120 q 741 1244 711 1213 q 818 1274 772 1274 q 895 1244 863 1274 q 929 1163 928 1213 q 899 1085 930 1115 q 825 1055 869 1055 m 501 1055 q 422 1087 454 1055 q 389 1167 389 1120 q 419 1243 389 1213 q 494 1274 449 1274 q 574 1241 542 1274 q 606 1160 606 1208 q 576 1086 606 1116 q 501 1055 547 1055 z "},"Ȧ":{"ha":986,"x_min":-64,"x_max":906,"o":"m -64 0 l 539 1000 l 704 1000 l 906 0 l 710 0 l 664 269 l 660 342 l 586 764 l 581 764 l 345 342 l 311 267 l 157 0 l -64 0 m 198 219 l 232 382 l 768 382 l 734 219 l 198 219 m 669 1063 q 584 1098 618 1063 q 550 1182 550 1133 q 584 1266 550 1232 q 669 1301 618 1301 q 753 1266 719 1301 q 788 1182 788 1232 q 753 1098 788 1133 q 669 1063 719 1063 z "},"Ạ":{"ha":986,"x_min":-64,"x_max":906,"o":"m -64 0 l 539 1000 l 704 1000 l 906 0 l 710 0 l 664 269 l 660 342 l 586 764 l 581 764 l 345 342 l 311 267 l 157 0 l -64 0 m 198 219 l 232 382 l 768 382 l 734 219 l 198 219 m 399 -317 q 314 -282 349 -317 q 280 -198 280 -248 q 314 -114 280 -148 q 399 -79 349 -79 q 484 -114 449 -79 q 518 -198 518 -148 q 484 -282 518 -248 q 399 -317 449 -317 z "},"À":{"ha":986,"x_min":-64,"x_max":906,"o":"m -64 0 l 539 1000 l 704 1000 l 906 0 l 710 0 l 664 269 l 660 342 l 586 764 l 581 764 l 345 342 l 311 267 l 157 0 l -64 0 m 198 219 l 232 382 l 768 382 l 734 219 l 198 219 m 637 1048 l 427 1217 l 533 1333 l 729 1128 l 637 1048 z "},"Ả":{"ha":986,"x_min":-64,"x_max":906,"o":"m -64 0 l 539 1000 l 704 1000 l 906 0 l 710 0 l 664 269 l 660 342 l 586 764 l 581 764 l 345 342 l 311 267 l 157 0 l -64 0 m 198 219 l 232 382 l 768 382 l 734 219 l 198 219 m 663 1055 l 606 1129 q 652 1162 634 1144 q 674 1200 669 1180 q 667 1228 679 1218 q 623 1238 655 1238 q 576 1234 601 1238 q 532 1224 551 1230 l 547 1341 q 588 1349 567 1346 q 634 1352 609 1352 q 764 1314 726 1352 q 789 1213 802 1275 q 744 1121 779 1161 q 663 1055 709 1082 z "},"Ȃ":{"ha":986,"x_min":-64,"x_max":906,"o":"m -64 0 l 539 1000 l 704 1000 l 906 0 l 710 0 l 664 269 l 660 342 l 586 764 l 581 764 l 345 342 l 311 267 l 157 0 l -64 0 m 198 219 l 232 382 l 768 382 l 734 219 l 198 219 m 883 1046 l 771 1064 q 749 1137 781 1105 q 657 1168 718 1168 q 554 1137 596 1168 q 500 1054 512 1106 l 389 1072 q 445 1184 402 1140 q 546 1250 487 1228 q 665 1272 604 1272 q 791 1243 737 1272 q 871 1162 846 1213 q 883 1046 897 1111 z "},"Ā":{"ha":986,"x_min":-64,"x_max":934,"o":"m -64 0 l 539 1000 l 704 1000 l 906 0 l 710 0 l 664 269 l 660 342 l 586 764 l 581 764 l 345 342 l 311 267 l 157 0 l -64 0 m 198 219 l 232 382 l 768 382 l 734 219 l 198 219 m 382 1101 l 405 1225 l 934 1225 l 911 1101 l 382 1101 z "},"Ą":{"ha":986,"x_min":-64,"x_max":906,"o":"m -64 0 l 539 1000 l 704 1000 l 906 0 l 710 0 l 664 269 l 660 342 l 586 764 l 581 764 l 345 342 l 311 267 l 157 0 l -64 0 m 198 219 l 232 382 l 768 382 l 734 219 l 198 219 m 758 -288 q 654 -245 688 -288 q 632 -140 619 -203 q 690 -47 644 -87 q 810 35 737 -6 l 905 0 q 837 -45 871 -21 q 778 -92 802 -68 q 749 -138 753 -115 q 755 -168 745 -157 q 792 -180 766 -180 q 841 -172 817 -180 q 878 -157 866 -163 l 864 -271 q 810 -283 843 -279 q 758 -288 778 -288 z "},"Å":{"ha":986,"x_min":-64,"x_max":906,"o":"m -64 0 l 539 1000 l 704 1000 l 906 0 l 710 0 l 664 269 l 660 342 l 586 764 l 581 764 l 345 342 l 311 267 l 157 0 l -64 0 m 198 219 l 232 382 l 768 382 l 734 219 l 198 219 m 644 1044 q 555 1068 593 1044 q 498 1135 516 1092 q 492 1235 481 1178 q 563 1351 505 1305 q 695 1396 621 1396 q 787 1369 750 1396 q 841 1299 825 1343 q 846 1202 857 1255 q 808 1121 838 1157 q 736 1064 779 1085 q 644 1044 694 1044 m 644 1146 q 708 1173 680 1146 q 745 1237 737 1199 q 736 1275 750 1259 q 692 1291 723 1291 q 630 1265 658 1291 q 592 1200 602 1239 q 603 1162 587 1177 q 644 1146 618 1146 z "},"Ǻ":{"ha":986,"x_min":-64,"x_max":958,"o":"m 657 1090 q 573 1112 609 1090 q 520 1173 537 1135 q 513 1256 504 1211 q 575 1359 524 1320 q 689 1398 625 1398 q 774 1375 739 1398 q 827 1314 810 1352 q 833 1230 843 1276 q 773 1132 822 1173 q 657 1090 725 1090 m 664 1176 q 712 1194 690 1176 q 739 1241 734 1213 q 730 1290 745 1268 q 683 1312 715 1312 q 634 1295 656 1312 q 607 1250 612 1278 q 617 1198 600 1221 q 664 1176 634 1176 m 757 1431 l 660 1511 l 844 1716 l 958 1600 l 757 1431 m -64 0 l 539 1000 l 704 1000 l 906 0 l 710 0 l 664 269 l 660 342 l 586 764 l 581 764 l 345 342 l 311 267 l 157 0 l -64 0 m 198 219 l 232 382 l 768 382 l 734 219 l 198 219 z "},"Ã":{"ha":986,"x_min":-64,"x_max":927,"o":"m -64 0 l 539 1000 l 704 1000 l 906 0 l 710 0 l 664 269 l 660 342 l 586 764 l 581 764 l 345 342 l 311 267 l 157 0 l -64 0 m 198 219 l 232 382 l 768 382 l 734 219 l 198 219 m 503 1059 l 392 1077 q 457 1211 410 1161 q 571 1261 504 1261 q 636 1250 612 1261 q 674 1222 660 1238 q 702 1195 689 1206 q 732 1183 714 1183 q 785 1210 762 1183 q 816 1271 809 1236 l 927 1253 q 862 1120 911 1171 q 743 1069 814 1069 q 682 1081 705 1069 q 644 1109 659 1093 q 616 1137 629 1125 q 583 1149 602 1149 q 533 1124 555 1149 q 503 1059 511 1099 z "},"Æ":{"ha":1240,"x_min":-74,"x_max":1297,"o":"m -74 0 l 591 1000 l 726 1000 l 699 821 l 680 821 l 465 478 l 144 0 l -74 0 m 241 224 l 271 380 l 762 380 l 745 224 l 241 224 m 576 0 l 656 690 l 711 1000 l 1297 1000 l 1261 825 l 854 825 l 783 174 l 1130 174 l 1095 0 l 576 0 m 789 422 l 810 589 l 1155 589 l 1122 422 l 789 422 z "},"Ǽ":{"ha":1240,"x_min":-74,"x_max":1297,"o":"m -74 0 l 591 1000 l 726 1000 l 699 821 l 680 821 l 465 478 l 144 0 l -74 0 m 241 224 l 271 380 l 762 380 l 745 224 l 241 224 m 576 0 l 656 690 l 711 1000 l 1297 1000 l 1261 825 l 854 825 l 783 174 l 1130 174 l 1095 0 l 576 0 m 789 422 l 810 589 l 1155 589 l 1122 422 l 789 422 m 914 1048 l 817 1128 l 1002 1333 l 1116 1217 l 914 1048 z "},"B":{"ha":874,"x_min":32,"x_max":814,"o":"m 209 0 l 243 171 l 460 171 q 543 191 507 171 q 597 246 578 212 q 617 322 617 280 q 602 382 617 357 q 559 420 587 407 q 490 433 531 433 l 290 433 l 320 583 l 483 583 q 554 605 523 583 q 603 661 585 627 q 621 730 621 695 q 606 785 621 763 q 561 818 590 806 q 490 829 532 829 l 369 829 l 404 1000 l 510 1000 q 669 971 600 1000 q 776 889 737 942 q 814 764 814 837 q 787 649 814 704 q 713 553 760 595 q 608 488 667 511 l 610 536 q 711 498 666 526 q 784 424 757 471 q 811 309 811 377 q 766 152 811 222 q 645 41 722 81 q 472 0 568 0 l 209 0 m 32 0 l 233 1000 l 431 1000 l 229 0 l 32 0 z "},"C":{"ha":907,"x_min":76,"x_max":954,"o":"m 532 -11 q 291 48 393 -11 q 132 209 189 107 q 76 439 76 311 q 120 657 76 554 q 243 840 165 760 q 426 965 322 920 q 647 1010 529 1010 q 810 987 731 1010 q 954 922 890 963 l 849 754 q 756 812 812 790 q 637 833 700 833 q 494 802 561 833 q 378 716 428 770 q 300 593 328 662 q 271 448 271 524 q 305 303 271 367 q 398 203 338 239 q 536 166 458 166 q 666 191 602 166 q 774 259 730 216 l 819 70 q 686 10 760 31 q 532 -11 611 -11 z "},"Ć":{"ha":907,"x_min":76,"x_max":954,"o":"m 532 -11 q 291 48 393 -11 q 132 209 189 107 q 76 439 76 311 q 120 657 76 554 q 243 840 165 760 q 426 965 322 920 q 647 1010 529 1010 q 810 987 731 1010 q 954 922 890 963 l 849 754 q 756 812 812 790 q 637 833 700 833 q 494 802 561 833 q 378 716 428 770 q 300 593 328 662 q 271 448 271 524 q 305 303 271 367 q 398 203 338 239 q 536 166 458 166 q 666 191 602 166 q 774 259 730 216 l 819 70 q 686 10 760 31 q 532 -11 611 -11 m 685 1048 l 587 1128 l 772 1333 l 886 1217 l 685 1048 z "},"Č":{"ha":907,"x_min":76,"x_max":955,"o":"m 532 -11 q 291 48 393 -11 q 132 209 189 107 q 76 439 76 311 q 120 657 76 554 q 243 840 165 760 q 426 965 322 920 q 647 1010 529 1010 q 810 987 731 1010 q 954 922 890 963 l 849 754 q 756 812 812 790 q 637 833 700 833 q 494 802 561 833 q 378 716 428 770 q 300 593 328 662 q 271 448 271 524 q 305 303 271 367 q 398 203 338 239 q 536 166 458 166 q 666 191 602 166 q 774 259 730 216 l 819 70 q 686 10 760 31 q 532 -11 611 -11 m 651 1050 l 446 1215 l 539 1303 l 684 1177 l 690 1177 l 880 1303 l 955 1215 l 690 1050 l 651 1050 z "},"Ç":{"ha":907,"x_min":76,"x_max":954,"o":"m 532 -11 q 291 48 393 -11 q 132 209 189 107 q 76 439 76 311 q 120 657 76 554 q 243 840 165 760 q 426 965 322 920 q 647 1010 529 1010 q 810 987 731 1010 q 954 922 890 963 l 849 754 q 756 812 812 790 q 637 833 700 833 q 494 802 561 833 q 378 716 428 770 q 300 593 328 662 q 271 448 271 524 q 305 303 271 367 q 398 203 338 239 q 536 166 458 166 q 666 191 602 166 q 774 259 730 216 l 819 70 q 686 10 760 31 q 532 -11 611 -11 m 309 -338 l 319 -244 q 430 -227 389 -246 q 477 -180 471 -208 q 459 -147 481 -158 q 387 -132 437 -136 l 452 0 l 541 0 l 479 -111 l 471 -66 q 536 -83 507 -67 q 579 -130 565 -100 q 585 -205 594 -161 q 543 -281 576 -252 q 451 -325 509 -311 q 309 -338 393 -338 z "},"Ḉ":{"ha":907,"x_min":76,"x_max":954,"o":"m 532 -11 q 291 48 393 -11 q 132 209 189 107 q 76 439 76 311 q 120 657 76 554 q 243 840 165 760 q 426 965 322 920 q 647 1010 529 1010 q 810 987 731 1010 q 954 922 890 963 l 849 754 q 756 812 812 790 q 637 833 700 833 q 494 802 561 833 q 378 716 428 770 q 300 593 328 662 q 271 448 271 524 q 305 303 271 367 q 398 203 338 239 q 536 166 458 166 q 666 191 602 166 q 774 259 730 216 l 819 70 q 686 10 760 31 q 532 -11 611 -11 m 309 -338 l 319 -244 q 430 -227 389 -246 q 477 -180 471 -208 q 459 -147 481 -158 q 387 -132 437 -136 l 452 0 l 541 0 l 479 -111 l 471 -66 q 536 -83 507 -67 q 579 -130 565 -100 q 585 -205 594 -161 q 543 -281 576 -252 q 451 -325 509 -311 q 309 -338 393 -338 m 685 1048 l 587 1128 l 772 1333 l 886 1217 l 685 1048 z "},"Ĉ":{"ha":907,"x_min":76,"x_max":954,"o":"m 532 -11 q 291 48 393 -11 q 132 209 189 107 q 76 439 76 311 q 120 657 76 554 q 243 840 165 760 q 426 965 322 920 q 647 1010 529 1010 q 810 987 731 1010 q 954 922 890 963 l 849 754 q 756 812 812 790 q 637 833 700 833 q 494 802 561 833 q 378 716 428 770 q 300 593 328 662 q 271 448 271 524 q 305 303 271 367 q 398 203 338 239 q 536 166 458 166 q 666 191 602 166 q 774 259 730 216 l 819 70 q 686 10 760 31 q 532 -11 611 -11 m 513 1050 l 439 1139 l 703 1303 l 741 1303 l 946 1139 l 853 1050 l 709 1178 l 703 1178 l 513 1050 z "},"Ċ":{"ha":907,"x_min":76,"x_max":954,"o":"m 532 -11 q 291 48 393 -11 q 132 209 189 107 q 76 439 76 311 q 120 657 76 554 q 243 840 165 760 q 426 965 322 920 q 647 1010 529 1010 q 810 987 731 1010 q 954 922 890 963 l 849 754 q 756 812 812 790 q 637 833 700 833 q 494 802 561 833 q 378 716 428 770 q 300 593 328 662 q 271 448 271 524 q 305 303 271 367 q 398 203 338 239 q 536 166 458 166 q 666 191 602 166 q 774 259 730 216 l 819 70 q 686 10 760 31 q 532 -11 611 -11 m 709 1063 q 624 1098 658 1063 q 589 1182 589 1133 q 624 1266 589 1232 q 708 1301 658 1301 q 793 1266 758 1301 q 827 1182 827 1232 q 793 1098 827 1133 q 709 1063 758 1063 z "},"D":{"ha":966,"x_min":32,"x_max":941,"o":"m 32 0 l 233 1000 l 521 1000 q 744 941 649 1000 q 890 781 838 882 q 941 552 941 680 q 902 336 941 437 q 791 160 863 236 q 622 42 720 85 q 406 0 524 0 l 32 0 m 265 174 l 430 174 q 560 206 502 174 q 661 291 618 237 q 725 414 703 345 q 748 556 748 483 q 720 695 748 635 q 638 791 692 756 q 508 825 585 825 l 396 825 l 265 174 z "},"Ǆ":{"ha":1763,"x_min":32,"x_max":1820,"o":"m 32 0 l 233 1000 l 521 1000 q 744 941 649 1000 q 890 781 838 882 q 941 552 941 680 q 902 336 941 437 q 791 160 863 236 q 622 42 720 85 q 406 0 524 0 l 32 0 m 265 174 l 430 174 q 560 206 502 174 q 661 291 618 237 q 725 414 703 345 q 748 556 748 483 q 720 695 748 635 q 638 791 692 756 q 508 825 585 825 l 396 825 l 265 174 m 914 0 l 920 32 l 1491 824 l 1491 828 l 1102 828 l 1137 1000 l 1820 1000 l 1812 966 l 1240 176 l 1240 172 l 1670 172 l 1635 0 l 914 0 m 1465 1050 l 1260 1215 l 1353 1303 l 1498 1177 l 1504 1177 l 1694 1303 l 1769 1215 l 1504 1050 l 1465 1050 z "},"Ď":{"ha":966,"x_min":32,"x_max":941,"o":"m 32 0 l 233 1000 l 521 1000 q 744 941 649 1000 q 890 781 838 882 q 941 552 941 680 q 902 336 941 437 q 791 160 863 236 q 622 42 720 85 q 406 0 524 0 l 32 0 m 265 174 l 430 174 q 560 206 502 174 q 661 291 618 237 q 725 414 703 345 q 748 556 748 483 q 720 695 748 635 q 638 791 692 756 q 508 825 585 825 l 396 825 l 265 174 m 581 1050 l 376 1215 l 469 1303 l 614 1177 l 620 1177 l 810 1303 l 884 1215 l 620 1050 l 581 1050 z "},"Đ":{"ha":994,"x_min":51,"x_max":969,"o":"m 60 0 l 260 1000 l 549 1000 q 771 941 677 1000 q 918 781 866 882 q 969 552 969 680 q 930 336 969 437 q 819 160 890 236 q 649 42 747 85 q 434 0 551 0 l 60 0 m 293 174 l 458 174 q 588 206 530 174 q 688 291 646 237 q 753 414 730 345 q 776 556 776 483 q 748 695 776 635 q 666 791 720 756 q 536 825 612 825 l 424 825 l 293 174 m 51 448 l 73 553 l 496 553 l 473 448 l 51 448 z "},"Ḍ":{"ha":966,"x_min":32,"x_max":941,"o":"m 32 0 l 233 1000 l 521 1000 q 744 941 649 1000 q 890 781 838 882 q 941 552 941 680 q 902 336 941 437 q 791 160 863 236 q 622 42 720 85 q 406 0 524 0 l 32 0 m 265 174 l 430 174 q 560 206 502 174 q 661 291 618 237 q 725 414 703 345 q 748 556 748 483 q 720 695 748 635 q 638 791 692 756 q 508 825 585 825 l 396 825 l 265 174 m 351 -317 q 266 -282 300 -317 q 232 -198 232 -248 q 266 -114 232 -148 q 351 -79 300 -79 q 435 -114 401 -79 q 470 -198 470 -148 q 435 -282 470 -248 q 351 -317 401 -317 z "},"Ḏ":{"ha":966,"x_min":32,"x_max":941,"o":"m 32 0 l 233 1000 l 521 1000 q 744 941 649 1000 q 890 781 838 882 q 941 552 941 680 q 902 336 941 437 q 791 160 863 236 q 622 42 720 85 q 406 0 524 0 l 32 0 m 265 174 l 430 174 q 560 206 502 174 q 661 291 618 237 q 725 414 703 345 q 748 556 748 483 q 720 695 748 635 q 638 791 692 756 q 508 825 585 825 l 396 825 l 265 174 m 60 -278 l 83 -162 l 635 -162 l 611 -278 l 60 -278 z "},"ǅ":{"ha":1619,"x_min":32,"x_max":1650,"o":"m 32 0 l 233 1000 l 521 1000 q 744 941 649 1000 q 890 781 838 882 q 941 552 941 680 q 902 336 941 437 q 791 160 863 236 q 622 42 720 85 q 406 0 524 0 l 32 0 m 265 174 l 430 174 q 560 206 502 174 q 661 291 618 237 q 725 414 703 345 q 748 556 748 483 q 720 695 748 635 q 638 791 692 756 q 508 825 585 825 l 396 825 l 265 174 m 911 0 l 917 39 l 1329 558 l 1329 565 l 1046 565 l 1079 726 l 1643 726 l 1635 687 l 1224 168 l 1224 163 l 1529 163 l 1497 0 l 911 0 m 1345 784 l 1146 986 l 1227 1074 l 1379 918 l 1384 918 l 1584 1074 l 1650 986 l 1383 784 l 1345 784 z "},"Ð":{"ha":994,"x_min":51,"x_max":969,"o":"m 60 0 l 260 1000 l 549 1000 q 771 941 677 1000 q 918 781 866 882 q 969 552 969 680 q 930 336 969 437 q 819 160 890 236 q 649 42 747 85 q 434 0 551 0 l 60 0 m 293 174 l 458 174 q 588 206 530 174 q 688 291 646 237 q 753 414 730 345 q 776 556 776 483 q 748 695 776 635 q 666 791 720 756 q 536 825 612 825 l 424 825 l 293 174 m 51 448 l 73 553 l 496 553 l 473 448 l 51 448 z "},"E":{"ha":733,"x_min":32,"x_max":789,"o":"m 32 0 l 233 1000 l 789 1000 l 753 825 l 396 825 l 349 591 l 649 591 l 615 422 l 315 422 l 267 174 l 623 174 l 588 0 l 32 0 z "},"É":{"ha":733,"x_min":32,"x_max":789,"o":"m 32 0 l 233 1000 l 789 1000 l 753 825 l 396 825 l 349 591 l 649 591 l 615 422 l 315 422 l 267 174 l 623 174 l 588 0 l 32 0 m 543 1048 l 445 1128 l 630 1333 l 744 1217 l 543 1048 z "},"Ĕ":{"ha":733,"x_min":32,"x_max":824,"o":"m 32 0 l 233 1000 l 789 1000 l 753 825 l 396 825 l 349 591 l 649 591 l 615 422 l 315 422 l 267 174 l 623 174 l 588 0 l 32 0 m 539 1061 q 417 1088 469 1061 q 340 1164 364 1115 q 330 1278 316 1213 l 439 1261 q 447 1204 433 1225 q 488 1173 460 1182 q 547 1163 515 1163 q 654 1194 607 1163 q 712 1278 702 1224 l 824 1261 q 767 1150 812 1194 q 662 1083 723 1105 q 539 1061 602 1061 z "},"Ě":{"ha":733,"x_min":32,"x_max":812,"o":"m 32 0 l 233 1000 l 789 1000 l 753 825 l 396 825 l 349 591 l 649 591 l 615 422 l 315 422 l 267 174 l 623 174 l 588 0 l 32 0 m 508 1050 l 303 1215 l 396 1303 l 541 1177 l 547 1177 l 737 1303 l 812 1215 l 547 1050 l 508 1050 z "},"Ḝ":{"ha":733,"x_min":32,"x_max":824,"o":"m 32 0 l 233 1000 l 789 1000 l 753 825 l 396 825 l 349 591 l 649 591 l 615 422 l 315 422 l 267 174 l 623 174 l 588 0 l 32 0 m 148 -338 l 157 -244 q 269 -227 228 -246 q 315 -180 310 -208 q 298 -147 320 -158 q 225 -132 276 -136 l 290 0 l 379 0 l 317 -111 l 310 -66 q 374 -83 345 -67 q 418 -130 404 -100 q 424 -205 433 -161 q 381 -281 415 -252 q 290 -325 348 -311 q 148 -338 232 -338 m 539 1061 q 417 1088 469 1061 q 340 1164 364 1115 q 330 1278 316 1213 l 439 1261 q 447 1204 433 1225 q 488 1173 460 1182 q 547 1163 515 1163 q 654 1194 607 1163 q 712 1278 702 1224 l 824 1261 q 767 1150 812 1194 q 662 1083 723 1105 q 539 1061 602 1061 z "},"Ê":{"ha":733,"x_min":32,"x_max":804,"o":"m 32 0 l 233 1000 l 789 1000 l 753 825 l 396 825 l 349 591 l 649 591 l 615 422 l 315 422 l 267 174 l 623 174 l 588 0 l 32 0 m 370 1050 l 296 1139 l 560 1303 l 599 1303 l 804 1139 l 711 1050 l 566 1178 l 560 1178 l 370 1050 z "},"Ế":{"ha":733,"x_min":32,"x_max":1003,"o":"m 32 0 l 233 1000 l 789 1000 l 753 825 l 396 825 l 349 591 l 649 591 l 615 422 l 315 422 l 267 174 l 623 174 l 588 0 l 32 0 m 751 1225 l 679 1286 l 934 1503 l 1003 1385 l 751 1225 m 363 1040 l 290 1128 l 553 1291 l 592 1291 l 798 1128 l 704 1040 l 555 1166 l 555 1166 l 363 1040 z "},"Ệ":{"ha":733,"x_min":32,"x_max":822,"o":"m 32 0 l 233 1000 l 789 1000 l 753 825 l 396 825 l 349 591 l 649 591 l 615 422 l 315 422 l 267 174 l 623 174 l 588 0 l 32 0 m 314 -317 q 229 -282 263 -317 q 195 -198 195 -248 q 229 -114 195 -148 q 313 -79 263 -79 q 398 -114 363 -79 q 433 -198 433 -148 q 398 -282 433 -248 q 314 -317 363 -317 m 389 1051 l 315 1140 l 578 1304 l 617 1304 l 822 1140 l 729 1051 l 585 1179 l 578 1179 l 389 1051 z "},"Ề":{"ha":733,"x_min":32,"x_max":789,"o":"m 32 0 l 233 1000 l 789 1000 l 753 825 l 396 825 l 349 591 l 649 591 l 615 422 l 315 422 l 267 174 l 623 174 l 588 0 l 32 0 m 309 1224 l 132 1425 l 246 1516 l 403 1283 l 309 1224 m 327 1041 l 253 1129 l 516 1293 l 555 1293 l 761 1129 l 667 1041 l 519 1168 l 518 1168 l 327 1041 z "},"Ể":{"ha":733,"x_min":32,"x_max":876,"o":"m 32 0 l 233 1000 l 789 1000 l 753 825 l 396 825 l 349 591 l 649 591 l 615 422 l 315 422 l 267 174 l 623 174 l 588 0 l 32 0 m 760 1215 l 678 1282 q 726 1319 708 1299 q 748 1356 745 1339 q 741 1382 752 1373 q 699 1391 730 1391 q 656 1388 680 1391 q 614 1378 633 1384 l 628 1493 q 666 1502 646 1499 q 709 1505 686 1505 q 838 1467 801 1505 q 864 1366 876 1429 q 825 1278 855 1318 q 760 1215 795 1239 m 363 1040 l 289 1128 l 552 1291 l 591 1291 l 797 1128 l 703 1040 l 555 1166 l 554 1166 l 363 1040 z "},"Ễ":{"ha":733,"x_min":32,"x_max":859,"o":"m 32 0 l 233 1000 l 789 1000 l 753 825 l 396 825 l 349 591 l 649 591 l 615 422 l 315 422 l 267 174 l 623 174 l 588 0 l 32 0 m 431 1312 l 312 1324 q 380 1455 330 1406 q 498 1503 430 1503 q 557 1491 533 1503 q 599 1462 581 1479 q 633 1434 617 1446 q 668 1421 649 1421 q 713 1450 694 1421 q 739 1516 732 1479 l 859 1505 q 822 1407 848 1451 q 757 1336 795 1363 q 673 1310 718 1310 q 615 1322 638 1310 q 574 1351 591 1335 q 539 1379 556 1367 q 502 1392 522 1392 q 458 1372 477 1392 q 431 1312 440 1352 m 365 1040 l 291 1128 l 554 1291 l 593 1291 l 799 1128 l 705 1040 l 557 1166 l 556 1166 l 365 1040 z "},"Ȅ":{"ha":733,"x_min":32,"x_max":789,"o":"m 32 0 l 233 1000 l 789 1000 l 753 825 l 396 825 l 349 591 l 649 591 l 615 422 l 315 422 l 267 174 l 623 174 l 588 0 l 32 0 m 366 1063 l 237 1281 l 372 1350 l 467 1109 l 366 1063 m 623 1063 l 498 1281 l 632 1350 l 724 1109 l 623 1063 z "},"Ë":{"ha":733,"x_min":32,"x_max":826,"o":"m 32 0 l 233 1000 l 789 1000 l 753 825 l 396 825 l 349 591 l 649 591 l 615 422 l 315 422 l 267 174 l 623 174 l 588 0 l 32 0 m 721 1055 q 640 1087 673 1055 q 607 1167 607 1120 q 637 1244 607 1213 q 714 1274 668 1274 q 791 1244 759 1274 q 825 1163 824 1213 q 795 1085 826 1115 q 721 1055 765 1055 m 397 1055 q 318 1087 351 1055 q 286 1167 286 1120 q 315 1243 286 1213 q 390 1274 345 1274 q 470 1241 438 1274 q 503 1160 503 1208 q 473 1086 503 1116 q 397 1055 443 1055 z "},"Ė":{"ha":733,"x_min":32,"x_max":789,"o":"m 32 0 l 233 1000 l 789 1000 l 753 825 l 396 825 l 349 591 l 649 591 l 615 422 l 315 422 l 267 174 l 623 174 l 588 0 l 32 0 m 566 1063 q 481 1098 515 1063 q 447 1182 447 1133 q 481 1266 447 1232 q 566 1301 515 1301 q 650 1266 616 1301 q 685 1182 685 1232 q 650 1098 685 1133 q 566 1063 616 1063 z "},"Ẹ":{"ha":733,"x_min":32,"x_max":789,"o":"m 32 0 l 233 1000 l 789 1000 l 753 825 l 396 825 l 349 591 l 649 591 l 615 422 l 315 422 l 267 174 l 623 174 l 588 0 l 32 0 m 299 -317 q 214 -282 248 -317 q 180 -198 180 -248 q 214 -114 180 -148 q 298 -79 248 -79 q 383 -114 349 -79 q 418 -198 418 -148 q 383 -282 418 -248 q 299 -317 349 -317 z "},"È":{"ha":733,"x_min":32,"x_max":789,"o":"m 32 0 l 233 1000 l 789 1000 l 753 825 l 396 825 l 349 591 l 649 591 l 615 422 l 315 422 l 267 174 l 623 174 l 588 0 l 32 0 m 533 1048 l 323 1217 l 429 1333 l 625 1128 l 533 1048 z "},"Ẻ":{"ha":733,"x_min":32,"x_max":789,"o":"m 32 0 l 233 1000 l 789 1000 l 753 825 l 396 825 l 349 591 l 649 591 l 615 422 l 315 422 l 267 174 l 623 174 l 588 0 l 32 0 m 559 1055 l 502 1129 q 548 1162 530 1144 q 570 1200 566 1180 q 563 1228 575 1218 q 519 1238 551 1238 q 472 1234 497 1238 q 429 1224 448 1230 l 444 1341 q 484 1349 463 1346 q 530 1352 505 1352 q 660 1314 622 1352 q 685 1213 698 1275 q 640 1121 675 1161 q 559 1055 605 1082 z "},"Ȇ":{"ha":733,"x_min":32,"x_max":794,"o":"m 32 0 l 233 1000 l 789 1000 l 753 825 l 396 825 l 349 591 l 649 591 l 615 422 l 315 422 l 267 174 l 623 174 l 588 0 l 32 0 m 779 1046 l 667 1064 q 646 1137 677 1105 q 553 1168 614 1168 q 450 1137 492 1168 q 397 1054 408 1106 l 286 1072 q 341 1184 298 1140 q 442 1250 383 1228 q 561 1272 500 1272 q 688 1243 633 1272 q 768 1162 742 1213 q 779 1046 793 1111 z "},"Ē":{"ha":733,"x_min":32,"x_max":830,"o":"m 32 0 l 233 1000 l 789 1000 l 753 825 l 396 825 l 349 591 l 649 591 l 615 422 l 315 422 l 267 174 l 623 174 l 588 0 l 32 0 m 278 1101 l 301 1225 l 830 1225 l 807 1101 l 278 1101 z "},"Ḗ":{"ha":733,"x_min":32,"x_max":830,"o":"m 32 0 l 233 1000 l 789 1000 l 753 825 l 396 825 l 349 591 l 649 591 l 615 422 l 315 422 l 267 174 l 623 174 l 588 0 l 32 0 m 278 1101 l 301 1225 l 830 1225 l 807 1101 l 278 1101 m 587 1274 l 489 1354 l 674 1559 l 788 1443 l 587 1274 z "},"Ḕ":{"ha":733,"x_min":32,"x_max":830,"o":"m 32 0 l 233 1000 l 789 1000 l 753 825 l 396 825 l 349 591 l 649 591 l 615 422 l 315 422 l 267 174 l 623 174 l 588 0 l 32 0 m 278 1101 l 301 1225 l 830 1225 l 807 1101 l 278 1101 m 577 1274 l 367 1443 l 473 1559 l 669 1354 l 577 1274 z "},"Ę":{"ha":733,"x_min":32,"x_max":789,"o":"m 32 0 l 233 1000 l 789 1000 l 753 825 l 396 825 l 349 591 l 649 591 l 615 422 l 315 422 l 267 174 l 623 174 l 588 0 l 32 0 m 441 -288 q 336 -245 371 -288 q 315 -140 302 -203 q 373 -47 326 -87 q 492 35 420 -6 l 588 0 q 519 -45 553 -21 q 460 -92 485 -68 q 431 -138 436 -115 q 438 -168 428 -157 q 475 -180 448 -180 q 524 -172 499 -180 q 561 -157 549 -163 l 547 -271 q 493 -283 526 -279 q 441 -288 460 -288 z "},"Ẽ":{"ha":733,"x_min":32,"x_max":823,"o":"m 32 0 l 233 1000 l 789 1000 l 753 825 l 396 825 l 349 591 l 649 591 l 615 422 l 315 422 l 267 174 l 623 174 l 588 0 l 32 0 m 399 1059 l 288 1077 q 353 1211 306 1161 q 467 1261 400 1261 q 532 1250 508 1261 q 571 1222 556 1238 q 598 1195 585 1206 q 628 1183 610 1183 q 682 1210 658 1183 q 712 1271 705 1236 l 823 1253 q 759 1120 807 1171 q 640 1069 710 1069 q 578 1081 601 1069 q 541 1109 555 1093 q 512 1137 526 1125 q 479 1149 498 1149 q 430 1124 452 1149 q 399 1059 408 1099 z "},"Ə":{"ha":1023,"x_min":60,"x_max":1008,"o":"m 444 -12 q 240 34 326 -12 q 106 163 153 81 q 60 355 60 246 q 67 445 60 393 q 90 562 75 496 l 868 562 l 837 403 l 241 403 q 238 377 239 390 q 237 353 237 364 q 299 210 237 264 q 457 156 361 156 q 604 193 538 156 q 716 293 669 231 q 788 435 763 356 q 813 595 813 513 q 755 777 813 713 q 595 840 698 840 q 443 802 512 840 q 328 707 374 764 l 171 795 q 365 954 250 897 q 608 1010 479 1010 q 814 963 724 1010 q 957 824 905 916 q 1008 602 1008 732 q 966 370 1008 481 q 848 174 924 260 q 669 38 772 87 q 444 -12 566 -12 z "},"F":{"ha":700,"x_min":32,"x_max":784,"o":"m 32 0 l 233 1000 l 784 1000 l 749 825 l 396 825 l 344 566 l 640 566 l 606 391 l 309 391 l 230 0 l 32 0 z "},"G":{"ha":1025,"x_min":77,"x_max":1008,"o":"m 509 -11 q 330 24 410 -11 q 194 121 251 59 q 107 266 138 183 q 77 443 77 349 q 120 663 77 560 q 240 844 163 766 q 421 966 317 922 q 645 1010 525 1010 q 824 983 744 1010 q 956 918 904 956 l 850 751 q 766 809 825 784 q 635 833 707 833 q 491 802 557 833 q 376 717 425 771 q 300 593 327 663 q 273 446 273 523 q 302 304 273 368 q 386 202 331 240 q 521 163 441 163 q 654 198 596 163 q 749 296 713 233 q 793 444 785 359 l 877 402 l 517 402 l 549 563 l 1008 563 l 977 407 q 891 192 955 286 q 729 43 827 98 q 509 -11 632 -11 z "},"Ğ":{"ha":1025,"x_min":77,"x_max":1008,"o":"m 509 -11 q 330 24 410 -11 q 194 121 251 59 q 107 266 138 183 q 77 443 77 349 q 120 663 77 560 q 240 844 163 766 q 421 966 317 922 q 645 1010 525 1010 q 824 983 744 1010 q 956 918 904 956 l 850 751 q 766 809 825 784 q 635 833 707 833 q 491 802 557 833 q 376 717 425 771 q 300 593 327 663 q 273 446 273 523 q 302 304 273 368 q 386 202 331 240 q 521 163 441 163 q 654 198 596 163 q 749 296 713 233 q 793 444 785 359 l 877 402 l 517 402 l 549 563 l 1008 563 l 977 407 q 891 192 955 286 q 729 43 827 98 q 509 -11 632 -11 m 666 1061 q 544 1088 596 1061 q 467 1164 491 1115 q 456 1278 443 1213 l 566 1261 q 573 1204 559 1225 q 615 1173 587 1182 q 674 1163 642 1163 q 781 1194 734 1163 q 839 1278 829 1224 l 951 1261 q 894 1150 939 1194 q 789 1083 850 1105 q 666 1061 728 1061 z "},"Ǧ":{"ha":1025,"x_min":77,"x_max":1008,"o":"m 509 -11 q 330 24 410 -11 q 194 121 251 59 q 107 266 138 183 q 77 443 77 349 q 120 663 77 560 q 240 844 163 766 q 421 966 317 922 q 645 1010 525 1010 q 824 983 744 1010 q 956 918 904 956 l 850 751 q 766 809 825 784 q 635 833 707 833 q 491 802 557 833 q 376 717 425 771 q 300 593 327 663 q 273 446 273 523 q 302 304 273 368 q 386 202 331 240 q 521 163 441 163 q 654 198 596 163 q 749 296 713 233 q 793 444 785 359 l 877 402 l 517 402 l 549 563 l 1008 563 l 977 407 q 891 192 955 286 q 729 43 827 98 q 509 -11 632 -11 m 635 1050 l 431 1215 l 524 1303 l 669 1177 l 675 1177 l 865 1303 l 939 1215 l 675 1050 l 635 1050 z "},"Ĝ":{"ha":1025,"x_min":77,"x_max":1008,"o":"m 509 -11 q 330 24 410 -11 q 194 121 251 59 q 107 266 138 183 q 77 443 77 349 q 120 663 77 560 q 240 844 163 766 q 421 966 317 922 q 645 1010 525 1010 q 824 983 744 1010 q 956 918 904 956 l 850 751 q 766 809 825 784 q 635 833 707 833 q 491 802 557 833 q 376 717 425 771 q 300 593 327 663 q 273 446 273 523 q 302 304 273 368 q 386 202 331 240 q 521 163 441 163 q 654 198 596 163 q 749 296 713 233 q 793 444 785 359 l 877 402 l 517 402 l 549 563 l 1008 563 l 977 407 q 891 192 955 286 q 729 43 827 98 q 509 -11 632 -11 m 497 1050 l 423 1139 l 687 1303 l 726 1303 l 930 1139 l 838 1050 l 693 1178 l 687 1178 l 497 1050 z "},"Ģ":{"ha":1025,"x_min":77,"x_max":1008,"o":"m 509 -11 q 330 24 410 -11 q 194 121 251 59 q 107 266 138 183 q 77 443 77 349 q 120 663 77 560 q 240 844 163 766 q 421 966 317 922 q 645 1010 525 1010 q 824 983 744 1010 q 956 918 904 956 l 850 751 q 766 809 825 784 q 635 833 707 833 q 491 802 557 833 q 376 717 425 771 q 300 593 327 663 q 273 446 273 523 q 302 304 273 368 q 386 202 331 240 q 521 163 441 163 q 654 198 596 163 q 749 296 713 233 q 793 444 785 359 l 877 402 l 517 402 l 549 563 l 1008 563 l 977 407 q 891 192 955 286 q 729 43 827 98 q 509 -11 632 -11 m 346 -387 l 313 -335 l 392 -286 q 422 -267 404 -278 q 454 -238 440 -256 q 467 -197 468 -221 l 483 -197 q 474 -228 485 -211 q 437 -244 464 -244 q 380 -219 408 -244 q 353 -158 353 -195 q 378 -100 353 -124 q 439 -77 404 -77 q 502 -102 474 -77 q 530 -178 530 -128 q 501 -271 530 -236 q 432 -330 471 -305 l 346 -387 z "},"Ġ":{"ha":1025,"x_min":77,"x_max":1008,"o":"m 509 -11 q 330 24 410 -11 q 194 121 251 59 q 107 266 138 183 q 77 443 77 349 q 120 663 77 560 q 240 844 163 766 q 421 966 317 922 q 645 1010 525 1010 q 824 983 744 1010 q 956 918 904 956 l 850 751 q 766 809 825 784 q 635 833 707 833 q 491 802 557 833 q 376 717 425 771 q 300 593 327 663 q 273 446 273 523 q 302 304 273 368 q 386 202 331 240 q 521 163 441 163 q 654 198 596 163 q 749 296 713 233 q 793 444 785 359 l 877 402 l 517 402 l 549 563 l 1008 563 l 977 407 q 891 192 955 286 q 729 43 827 98 q 509 -11 632 -11 m 693 1063 q 608 1098 642 1063 q 574 1182 574 1133 q 608 1266 574 1232 q 692 1301 642 1301 q 777 1266 743 1301 q 812 1182 812 1232 q 777 1098 812 1133 q 693 1063 743 1063 z "},"Ḡ":{"ha":1025,"x_min":77,"x_max":1008,"o":"m 509 -11 q 330 24 410 -11 q 194 121 251 59 q 107 266 138 183 q 77 443 77 349 q 120 663 77 560 q 240 844 163 766 q 421 966 317 922 q 645 1010 525 1010 q 824 983 744 1010 q 956 918 904 956 l 850 751 q 766 809 825 784 q 635 833 707 833 q 491 802 557 833 q 376 717 425 771 q 300 593 327 663 q 273 446 273 523 q 302 304 273 368 q 386 202 331 240 q 521 163 441 163 q 654 198 596 163 q 749 296 713 233 q 793 444 785 359 l 877 402 l 517 402 l 549 563 l 1008 563 l 977 407 q 891 192 955 286 q 729 43 827 98 q 509 -11 632 -11 m 406 1101 l 429 1225 l 958 1225 l 935 1101 l 406 1101 z "},"H":{"ha":1006,"x_min":32,"x_max":1029,"o":"m 32 0 l 232 1000 l 431 1000 l 349 593 l 749 593 l 831 1000 l 1029 1000 l 829 0 l 631 0 l 715 420 l 314 420 l 230 0 l 32 0 z "},"Ħ":{"ha":1116,"x_min":35,"x_max":1132,"o":"m 47 728 l 71 839 l 1132 839 l 1108 728 l 47 728 m 35 0 l 235 1000 l 433 1000 l 352 593 l 752 593 l 833 1000 l 1031 1000 l 832 0 l 634 0 l 718 420 l 317 420 l 233 0 l 35 0 z "},"Ḫ":{"ha":1006,"x_min":32,"x_max":1029,"o":"m 32 0 l 232 1000 l 431 1000 l 349 593 l 749 593 l 831 1000 l 1029 1000 l 829 0 l 631 0 l 715 420 l 314 420 l 230 0 l 32 0 m 389 -306 q 264 -274 317 -306 q 187 -188 212 -241 q 174 -72 163 -134 l 288 -90 q 308 -171 279 -139 q 390 -203 337 -203 q 466 -184 430 -203 q 528 -135 503 -165 q 559 -72 553 -105 l 673 -90 q 620 -201 662 -152 q 517 -278 577 -250 q 389 -306 456 -306 z "},"Ĥ":{"ha":1006,"x_min":32,"x_max":1029,"o":"m 32 0 l 232 1000 l 431 1000 l 349 593 l 749 593 l 831 1000 l 1029 1000 l 829 0 l 631 0 l 715 420 l 314 420 l 230 0 l 32 0 m 478 1050 l 404 1139 l 668 1303 l 707 1303 l 911 1139 l 819 1050 l 674 1178 l 668 1178 l 478 1050 z "},"Ḥ":{"ha":1006,"x_min":32,"x_max":1029,"o":"m 32 0 l 232 1000 l 431 1000 l 349 593 l 749 593 l 831 1000 l 1029 1000 l 829 0 l 631 0 l 715 420 l 314 420 l 230 0 l 32 0 m 391 -317 q 306 -282 340 -317 q 272 -198 272 -248 q 306 -114 272 -148 q 391 -79 340 -79 q 475 -114 441 -79 q 510 -198 510 -148 q 475 -282 510 -248 q 391 -317 441 -317 z "},"I":{"ha":431,"x_min":43,"x_max":441,"o":"m 43 0 l 243 1000 l 441 1000 l 241 0 l 43 0 z "},"Í":{"ha":431,"x_min":43,"x_max":565,"o":"m 43 0 l 243 1000 l 441 1000 l 241 0 l 43 0 m 363 1048 l 266 1128 l 451 1333 l 565 1217 l 363 1048 z "},"Ĭ":{"ha":452,"x_min":54,"x_max":656,"o":"m 54 0 l 254 1000 l 452 1000 l 252 0 l 54 0 m 371 1061 q 249 1088 301 1061 q 172 1164 196 1115 q 161 1278 148 1213 l 271 1261 q 278 1204 264 1225 q 320 1173 292 1182 q 379 1163 347 1163 q 486 1194 439 1163 q 544 1278 534 1224 l 656 1261 q 599 1150 644 1194 q 494 1083 555 1105 q 371 1061 433 1061 z "},"Ǐ":{"ha":452,"x_min":54,"x_max":644,"o":"m 54 0 l 254 1000 l 452 1000 l 252 0 l 54 0 m 340 1050 l 136 1215 l 229 1303 l 374 1177 l 380 1177 l 570 1303 l 644 1215 l 380 1050 l 340 1050 z "},"Î":{"ha":452,"x_min":54,"x_max":635,"o":"m 54 0 l 254 1000 l 452 1000 l 252 0 l 54 0 m 202 1050 l 128 1139 l 392 1303 l 431 1303 l 635 1139 l 543 1050 l 398 1178 l 392 1178 l 202 1050 z "},"Ȉ":{"ha":452,"x_min":54,"x_max":556,"o":"m 54 0 l 254 1000 l 452 1000 l 252 0 l 54 0 m 197 1063 l 69 1281 l 203 1350 l 298 1109 l 197 1063 m 454 1063 l 330 1281 l 464 1350 l 556 1109 l 454 1063 z "},"Ï":{"ha":500,"x_min":77,"x_max":682,"o":"m 77 0 l 278 1000 l 476 1000 l 275 0 l 77 0 m 577 1055 q 496 1087 529 1055 q 463 1167 463 1120 q 494 1244 463 1213 q 570 1274 524 1274 q 648 1244 615 1274 q 682 1163 680 1213 q 652 1085 682 1115 q 577 1055 621 1055 m 254 1055 q 174 1087 207 1055 q 142 1167 142 1120 q 172 1243 142 1213 q 246 1274 201 1274 q 327 1241 294 1274 q 359 1160 359 1208 q 329 1086 359 1116 q 254 1055 299 1055 z "},"Ḯ":{"ha":500,"x_min":77,"x_max":682,"o":"m 77 0 l 278 1000 l 476 1000 l 275 0 l 77 0 m 577 1055 q 496 1087 529 1055 q 463 1167 463 1120 q 494 1244 463 1213 q 570 1274 524 1274 q 648 1244 615 1274 q 682 1163 680 1213 q 652 1085 682 1115 q 577 1055 621 1055 m 254 1055 q 174 1087 207 1055 q 142 1167 142 1120 q 172 1243 142 1213 q 246 1274 201 1274 q 327 1241 294 1274 q 359 1160 359 1208 q 329 1086 359 1116 q 254 1055 299 1055 m 443 1273 l 345 1353 l 530 1558 l 644 1442 l 443 1273 z "},"İ":{"ha":431,"x_min":43,"x_max":506,"o":"m 43 0 l 243 1000 l 441 1000 l 241 0 l 43 0 m 387 1063 q 302 1098 336 1063 q 268 1182 268 1133 q 302 1266 268 1232 q 387 1301 336 1301 q 471 1266 437 1301 q 506 1182 506 1232 q 471 1098 506 1133 q 387 1063 437 1063 z "},"Ị":{"ha":431,"x_min":-16,"x_max":441,"o":"m 43 0 l 243 1000 l 441 1000 l 241 0 l 43 0 m 103 -317 q 18 -282 52 -317 q -16 -198 -16 -248 q 18 -114 -16 -148 q 102 -79 52 -79 q 187 -114 153 -79 q 222 -198 222 -148 q 187 -282 222 -248 q 103 -317 153 -317 z "},"Ì":{"ha":431,"x_min":43,"x_max":447,"o":"m 43 0 l 243 1000 l 441 1000 l 241 0 l 43 0 m 355 1048 l 144 1217 l 251 1333 l 447 1128 l 355 1048 z "},"Ỉ":{"ha":431,"x_min":43,"x_max":519,"o":"m 43 0 l 243 1000 l 441 1000 l 241 0 l 43 0 m 381 1055 l 323 1129 q 370 1162 352 1144 q 392 1200 387 1180 q 385 1228 397 1218 q 340 1238 373 1238 q 294 1234 319 1238 q 250 1224 269 1230 l 265 1341 q 306 1349 285 1346 q 352 1352 327 1352 q 481 1314 444 1352 q 507 1213 519 1275 q 461 1121 496 1161 q 381 1055 427 1082 z "},"Ȋ":{"ha":500,"x_min":77,"x_max":650,"o":"m 77 0 l 278 1000 l 476 1000 l 275 0 l 77 0 m 635 1046 l 524 1064 q 502 1137 533 1105 q 410 1168 471 1168 q 307 1137 349 1168 q 253 1054 264 1106 l 142 1072 q 197 1184 155 1140 q 298 1250 239 1228 q 417 1272 357 1272 q 544 1243 490 1272 q 624 1162 598 1213 q 635 1046 650 1111 z "},"Ī":{"ha":500,"x_min":77,"x_max":686,"o":"m 77 0 l 278 1000 l 476 1000 l 275 0 l 77 0 m 134 1101 l 157 1225 l 686 1225 l 663 1101 l 134 1101 z "},"Į":{"ha":431,"x_min":-45,"x_max":441,"o":"m 43 0 l 243 1000 l 441 1000 l 241 0 l 43 0 m 94 -288 q -11 -245 24 -288 q -33 -140 -45 -203 q 26 -47 -21 -87 q 145 35 73 -6 l 241 0 q 172 -45 206 -21 q 113 -92 138 -68 q 84 -138 89 -115 q 91 -168 81 -157 q 127 -180 101 -180 q 177 -172 152 -180 q 214 -157 201 -163 l 199 -271 q 146 -283 178 -279 q 94 -288 113 -288 z "},"Ĩ":{"ha":511,"x_min":83,"x_max":685,"o":"m 83 0 l 283 1000 l 481 1000 l 281 0 l 83 0 m 260 1059 l 150 1077 q 215 1211 168 1161 q 329 1261 262 1261 q 394 1250 370 1261 q 432 1222 418 1238 q 459 1195 447 1206 q 490 1183 472 1183 q 543 1210 519 1183 q 574 1271 567 1236 l 685 1253 q 620 1120 669 1171 q 501 1069 572 1069 q 440 1081 463 1069 q 402 1109 417 1093 q 374 1137 387 1125 q 340 1149 360 1149 q 291 1124 313 1149 q 260 1059 269 1099 z "},"J":{"ha":718,"x_min":-14,"x_max":741,"o":"m 273 -11 q 117 27 184 -11 q 18 138 49 65 q 7 315 -14 211 l 193 297 q 193 226 184 256 q 223 180 201 196 q 279 163 245 163 q 343 185 317 163 q 383 243 368 208 q 406 318 398 279 l 543 1000 l 741 1000 l 601 303 q 487 71 571 153 q 273 -11 404 -11 z "},"Ĵ":{"ha":729,"x_min":-14,"x_max":922,"o":"m 273 -11 q 117 27 184 -11 q 18 138 49 65 q 7 315 -14 211 l 193 297 q 193 226 184 256 q 223 180 201 196 q 279 163 245 163 q 343 185 317 163 q 383 243 368 208 q 406 318 398 279 l 543 1000 l 741 1000 l 601 303 q 487 71 571 153 q 273 -11 404 -11 m 489 1050 l 415 1139 l 679 1303 l 718 1303 l 922 1139 l 829 1050 l 685 1178 l 679 1178 l 489 1050 z "},"K":{"ha":903,"x_min":32,"x_max":1006,"o":"m 32 0 l 232 1000 l 430 999 l 339 546 l 388 546 l 324 518 l 760 1000 l 1006 1000 l 475 431 l 473 547 l 815 0 l 597 0 l 304 479 l 365 441 l 318 441 l 230 0 l 32 0 z "},"Ķ":{"ha":903,"x_min":32,"x_max":1006,"o":"m 32 0 l 232 1000 l 430 999 l 339 546 l 388 546 l 324 518 l 760 1000 l 1006 1000 l 475 431 l 473 547 l 815 0 l 597 0 l 304 479 l 365 441 l 318 441 l 230 0 l 32 0 m 273 -387 l 240 -335 l 319 -286 q 350 -267 332 -278 q 381 -238 368 -256 q 395 -197 395 -221 l 410 -197 q 402 -228 412 -211 q 365 -244 391 -244 q 308 -219 335 -244 q 280 -158 280 -195 q 306 -100 280 -124 q 366 -77 331 -77 q 430 -102 401 -77 q 458 -178 458 -128 q 428 -271 458 -236 q 359 -330 399 -305 l 273 -387 z "},"L":{"ha":673,"x_min":32,"x_max":611,"o":"m 32 0 l 232 1000 l 431 1000 l 265 174 l 611 174 l 576 0 l 32 0 z "},"Ǉ":{"ha":1392,"x_min":32,"x_max":1414,"o":"m 32 0 l 232 1000 l 431 1000 l 265 174 l 611 174 l 576 0 l 32 0 m 947 -11 q 790 27 858 -11 q 691 138 722 65 q 680 315 660 211 l 866 297 q 866 226 858 256 q 896 180 874 196 q 952 163 918 163 q 1016 185 991 163 q 1057 243 1042 208 q 1080 318 1072 279 l 1216 1000 l 1414 1000 l 1274 303 q 1161 71 1244 153 q 947 -11 1077 -11 z "},"Ĺ":{"ha":673,"x_min":32,"x_max":611,"o":"m 32 0 l 232 1000 l 431 1000 l 265 174 l 611 174 l 576 0 l 32 0 m 356 1048 l 258 1128 l 444 1333 l 557 1217 l 356 1048 z "},"Ľ":{"ha":673,"x_min":32,"x_max":809,"o":"m 32 0 l 232 1000 l 431 1000 l 265 174 l 611 174 l 576 0 l 32 0 m 587 664 l 657 1000 l 809 1000 l 720 664 l 587 664 z "},"Ļ":{"ha":673,"x_min":32,"x_max":611,"o":"m 32 0 l 232 1000 l 431 1000 l 265 174 l 611 174 l 576 0 l 32 0 m 188 -387 l 155 -335 l 234 -286 q 264 -267 246 -278 q 296 -238 282 -256 q 309 -197 310 -221 l 325 -197 q 316 -228 327 -211 q 279 -244 306 -244 q 222 -219 250 -244 q 195 -158 195 -195 q 220 -100 195 -124 q 281 -77 245 -77 q 344 -102 316 -77 q 372 -178 372 -128 q 343 -271 372 -236 q 274 -330 313 -305 l 188 -387 z "},"Ŀ":{"ha":760,"x_min":32,"x_max":732,"o":"m 32 0 l 232 1000 l 431 1000 l 265 174 l 611 174 l 576 0 l 32 0 m 616 389 q 533 424 568 389 q 499 506 499 458 q 533 588 499 554 q 616 623 568 623 q 699 588 665 623 q 732 506 732 554 q 698 423 732 457 q 616 389 664 389 z "},"Ḷ":{"ha":673,"x_min":32,"x_max":611,"o":"m 32 0 l 232 1000 l 431 1000 l 265 174 l 611 174 l 576 0 l 32 0 m 273 -317 q 188 -282 222 -317 q 154 -198 154 -248 q 188 -114 154 -148 q 273 -79 222 -79 q 357 -114 323 -79 q 392 -198 392 -148 q 357 -282 392 -248 q 273 -317 323 -317 z "},"ǈ":{"ha":1053,"x_min":32,"x_max":1106,"o":"m 32 0 l 232 1000 l 431 1000 l 265 174 l 611 174 l 576 0 l 32 0 m 608 -300 q 553 -296 580 -300 q 508 -287 526 -292 l 542 -124 q 568 -130 552 -129 q 593 -132 585 -132 q 665 -105 637 -132 q 701 -41 692 -79 l 852 726 l 1040 726 l 886 -54 q 835 -180 871 -125 q 742 -268 799 -236 q 608 -300 685 -300 m 987 820 q 902 854 937 820 q 868 939 868 889 q 902 1023 868 989 q 987 1057 937 1057 q 1072 1023 1037 1057 q 1106 939 1106 989 q 1072 854 1106 889 q 987 820 1037 820 z "},"Ḻ":{"ha":673,"x_min":-19,"x_max":611,"o":"m 32 0 l 232 1000 l 431 1000 l 265 174 l 611 174 l 576 0 l 32 0 m -19 -278 l 5 -162 l 556 -162 l 532 -278 l -19 -278 z "},"Ł":{"ha":708,"x_min":-1,"x_max":646,"o":"m 35 338 l -1 433 l 191 542 l 355 605 l 496 684 l 532 589 l 319 475 l 154 410 l 35 338 m 66 0 l 267 1000 l 465 1000 l 300 174 l 646 174 l 611 0 l 66 0 z "},"M":{"ha":1180,"x_min":32,"x_max":1202,"o":"m 32 0 l 233 1000 l 368 1000 l 591 477 l 596 477 l 1037 1000 l 1202 1000 l 1002 0 l 804 0 l 883 391 l 949 655 l 943 655 l 574 202 l 530 202 l 354 635 l 347 635 l 307 391 l 231 0 l 32 0 z "},"Ṃ":{"ha":1180,"x_min":32,"x_max":1202,"o":"m 32 0 l 233 1000 l 368 1000 l 591 477 l 596 477 l 1037 1000 l 1202 1000 l 1002 0 l 804 0 l 883 391 l 949 655 l 943 655 l 574 202 l 530 202 l 354 635 l 347 635 l 307 391 l 231 0 l 32 0 m 494 -317 q 409 -282 443 -317 q 374 -198 374 -248 q 409 -114 374 -148 q 493 -79 443 -79 q 578 -114 543 -79 q 612 -198 612 -148 q 578 -282 612 -248 q 494 -317 543 -317 z "},"N":{"ha":1023,"x_min":32,"x_max":1046,"o":"m 32 0 l 233 1000 l 376 1000 l 660 455 l 715 344 l 722 344 l 762 572 l 848 1000 l 1046 1000 l 845 0 l 700 0 l 415 549 l 358 662 l 353 662 l 315 429 l 233 0 l 32 0 z "},"Ǌ":{"ha":1742,"x_min":32,"x_max":1764,"o":"m 32 0 l 233 1000 l 376 1000 l 660 455 l 715 344 l 722 344 l 762 572 l 848 1000 l 1046 1000 l 845 0 l 700 0 l 415 549 l 358 662 l 353 662 l 315 429 l 233 0 l 32 0 m 1297 -11 q 1140 27 1208 -11 q 1041 138 1072 65 q 1030 315 1010 211 l 1216 297 q 1216 226 1208 256 q 1246 180 1224 196 q 1302 163 1268 163 q 1366 185 1341 163 q 1407 243 1392 208 q 1430 318 1421 279 l 1566 1000 l 1764 1000 l 1624 303 q 1511 71 1594 153 q 1297 -11 1427 -11 z "},"Ń":{"ha":1023,"x_min":32,"x_max":1046,"o":"m 32 0 l 233 1000 l 376 1000 l 660 455 l 715 344 l 722 344 l 762 572 l 848 1000 l 1046 1000 l 845 0 l 700 0 l 415 549 l 358 662 l 353 662 l 315 429 l 233 0 l 32 0 m 661 1048 l 563 1128 l 748 1333 l 862 1217 l 661 1048 z "},"Ň":{"ha":1023,"x_min":32,"x_max":1046,"o":"m 32 0 l 233 1000 l 376 1000 l 660 455 l 715 344 l 722 344 l 762 572 l 848 1000 l 1046 1000 l 845 0 l 700 0 l 415 549 l 358 662 l 353 662 l 315 429 l 233 0 l 32 0 m 626 1050 l 421 1215 l 514 1303 l 659 1177 l 665 1177 l 855 1303 l 930 1215 l 665 1050 l 626 1050 z "},"Ņ":{"ha":1023,"x_min":32,"x_max":1046,"o":"m 32 0 l 233 1000 l 376 1000 l 660 455 l 715 344 l 722 344 l 762 572 l 848 1000 l 1046 1000 l 845 0 l 700 0 l 415 549 l 358 662 l 353 662 l 315 429 l 233 0 l 32 0 m 310 -387 l 277 -335 l 356 -286 q 386 -267 368 -278 q 418 -238 404 -256 q 431 -197 432 -221 l 447 -197 q 438 -228 449 -211 q 401 -244 428 -244 q 344 -219 372 -244 q 317 -158 317 -195 q 342 -100 317 -124 q 403 -77 368 -77 q 466 -102 438 -77 q 494 -178 494 -128 q 465 -271 494 -236 q 396 -330 435 -305 l 310 -387 z "},"Ṅ":{"ha":1023,"x_min":32,"x_max":1046,"o":"m 32 0 l 233 1000 l 376 1000 l 660 455 l 715 344 l 722 344 l 762 572 l 848 1000 l 1046 1000 l 845 0 l 700 0 l 415 549 l 358 662 l 353 662 l 315 429 l 233 0 l 32 0 m 684 1063 q 598 1098 633 1063 q 564 1182 564 1133 q 598 1266 564 1232 q 683 1301 633 1301 q 768 1266 733 1301 q 802 1182 802 1232 q 768 1098 802 1133 q 684 1063 733 1063 z "},"Ṇ":{"ha":1023,"x_min":32,"x_max":1046,"o":"m 32 0 l 233 1000 l 376 1000 l 660 455 l 715 344 l 722 344 l 762 572 l 848 1000 l 1046 1000 l 845 0 l 700 0 l 415 549 l 358 662 l 353 662 l 315 429 l 233 0 l 32 0 m 395 -317 q 310 -282 344 -317 q 275 -198 275 -248 q 310 -114 275 -148 q 394 -79 344 -79 q 479 -114 444 -79 q 513 -198 513 -148 q 479 -282 513 -248 q 395 -317 444 -317 z "},"ǋ":{"ha":1403,"x_min":32,"x_max":1456,"o":"m 32 0 l 233 1000 l 376 1000 l 660 455 l 715 344 l 722 344 l 762 572 l 848 1000 l 1046 1000 l 845 0 l 700 0 l 415 549 l 358 662 l 353 662 l 315 429 l 233 0 l 32 0 m 958 -300 q 903 -296 930 -300 q 858 -287 876 -292 l 892 -124 q 918 -130 902 -129 q 943 -132 935 -132 q 1015 -105 987 -132 q 1050 -41 1042 -79 l 1202 726 l 1390 726 l 1236 -54 q 1185 -180 1221 -125 q 1092 -268 1149 -236 q 958 -300 1035 -300 m 1338 820 q 1253 854 1287 820 q 1219 939 1219 889 q 1253 1023 1219 989 q 1337 1057 1287 1057 q 1422 1023 1388 1057 q 1457 939 1457 989 q 1422 854 1457 889 q 1338 820 1388 820 z "},"Ṉ":{"ha":1023,"x_min":32,"x_max":1046,"o":"m 32 0 l 233 1000 l 376 1000 l 660 455 l 715 344 l 722 344 l 762 572 l 848 1000 l 1046 1000 l 845 0 l 700 0 l 415 549 l 358 662 l 353 662 l 315 429 l 233 0 l 32 0 m 103 -278 l 127 -162 l 678 -162 l 654 -278 l 103 -278 z "},"Ñ":{"ha":1023,"x_min":32,"x_max":1046,"o":"m 32 0 l 233 1000 l 376 1000 l 660 455 l 715 344 l 722 344 l 762 572 l 848 1000 l 1046 1000 l 845 0 l 700 0 l 415 549 l 358 662 l 353 662 l 315 429 l 233 0 l 32 0 m 517 1059 l 406 1077 q 471 1211 424 1161 q 585 1261 518 1261 q 650 1250 626 1261 q 689 1222 674 1238 q 716 1195 703 1206 q 746 1183 728 1183 q 800 1210 776 1183 q 830 1271 823 1236 l 941 1253 q 877 1120 925 1171 q 758 1069 828 1069 q 696 1081 719 1069 q 659 1109 673 1093 q 630 1137 644 1125 q 597 1149 616 1149 q 548 1124 570 1149 q 517 1059 526 1099 z "},"Ŋ":{"ha":1023,"x_min":32,"x_max":1046,"o":"m 530 -300 q 449 -292 488 -300 q 380 -269 410 -283 l 431 -113 q 474 -132 452 -126 q 517 -137 495 -137 q 606 -106 570 -137 q 650 -36 641 -76 l 671 65 l 846 0 l 838 -39 q 736 -229 812 -157 q 530 -300 661 -300 m 32 0 l 233 1000 l 376 1000 l 660 455 l 715 344 l 722 344 l 762 572 l 848 1000 l 1046 1000 l 845 0 l 700 0 l 415 549 l 358 662 l 353 662 l 315 429 l 233 0 l 32 0 z "},"O":{"ha":1078,"x_min":79,"x_max":1054,"o":"m 519 -9 q 288 51 387 -9 q 134 215 189 111 q 79 450 79 319 q 119 664 79 563 q 232 843 159 765 q 402 965 304 921 q 615 1010 500 1010 q 797 975 716 1010 q 935 879 878 941 q 1023 733 992 817 q 1054 553 1054 650 q 1013 337 1054 439 q 900 158 972 236 q 730 35 827 80 q 519 -9 633 -9 m 527 168 q 662 199 601 168 q 766 286 722 231 q 834 408 810 340 q 859 550 859 477 q 829 695 859 631 q 743 796 799 759 q 608 833 687 833 q 472 801 534 833 q 367 714 411 769 q 298 592 322 660 q 274 450 274 524 q 304 306 274 370 q 391 204 334 241 q 527 168 448 168 z "},"Ó":{"ha":1078,"x_min":79,"x_max":1054,"o":"m 519 -9 q 288 51 387 -9 q 134 215 189 111 q 79 450 79 319 q 119 664 79 563 q 232 843 159 765 q 402 965 304 921 q 615 1010 500 1010 q 797 975 716 1010 q 935 879 878 941 q 1023 733 992 817 q 1054 553 1054 650 q 1013 337 1054 439 q 900 158 972 236 q 730 35 827 80 q 519 -9 633 -9 m 527 168 q 662 199 601 168 q 766 286 722 231 q 834 408 810 340 q 859 550 859 477 q 829 695 859 631 q 743 796 799 759 q 608 833 687 833 q 472 801 534 833 q 367 714 411 769 q 298 592 322 660 q 274 450 274 524 q 304 306 274 370 q 391 204 334 241 q 527 168 448 168 m 668 1048 l 570 1128 l 755 1333 l 869 1217 l 668 1048 z "},"Ŏ":{"ha":1078,"x_min":79,"x_max":1054,"o":"m 519 -9 q 288 51 387 -9 q 134 215 189 111 q 79 450 79 319 q 119 664 79 563 q 232 843 159 765 q 402 965 304 921 q 615 1010 500 1010 q 797 975 716 1010 q 935 879 878 941 q 1023 733 992 817 q 1054 553 1054 650 q 1013 337 1054 439 q 900 158 972 236 q 730 35 827 80 q 519 -9 633 -9 m 527 168 q 662 199 601 168 q 766 286 722 231 q 834 408 810 340 q 859 550 859 477 q 829 695 859 631 q 743 796 799 759 q 608 833 687 833 q 472 801 534 833 q 367 714 411 769 q 298 592 322 660 q 274 450 274 524 q 304 306 274 370 q 391 204 334 241 q 527 168 448 168 m 664 1061 q 542 1088 594 1061 q 465 1164 489 1115 q 454 1278 441 1213 l 564 1261 q 571 1204 557 1225 q 613 1173 585 1182 q 672 1163 640 1163 q 779 1194 732 1163 q 837 1278 827 1224 l 949 1261 q 892 1150 937 1194 q 787 1083 848 1105 q 664 1061 726 1061 z "},"Ô":{"ha":1078,"x_min":79,"x_max":1054,"o":"m 519 -9 q 288 51 387 -9 q 134 215 189 111 q 79 450 79 319 q 119 664 79 563 q 232 843 159 765 q 402 965 304 921 q 615 1010 500 1010 q 797 975 716 1010 q 935 879 878 941 q 1023 733 992 817 q 1054 553 1054 650 q 1013 337 1054 439 q 900 158 972 236 q 730 35 827 80 q 519 -9 633 -9 m 527 168 q 662 199 601 168 q 766 286 722 231 q 834 408 810 340 q 859 550 859 477 q 829 695 859 631 q 743 796 799 759 q 608 833 687 833 q 472 801 534 833 q 367 714 411 769 q 298 592 322 660 q 274 450 274 524 q 304 306 274 370 q 391 204 334 241 q 527 168 448 168 m 496 1050 l 422 1139 l 686 1303 l 724 1303 l 929 1139 l 836 1050 l 692 1178 l 686 1178 l 496 1050 z "},"Ố":{"ha":1078,"x_min":79,"x_max":1128,"o":"m 519 -9 q 288 51 387 -9 q 134 215 189 111 q 79 450 79 319 q 119 664 79 563 q 232 843 159 765 q 402 965 304 921 q 615 1010 500 1010 q 797 975 716 1010 q 935 879 878 941 q 1023 733 992 817 q 1054 553 1054 650 q 1013 337 1054 439 q 900 158 972 236 q 730 35 827 80 q 519 -9 633 -9 m 527 168 q 662 199 601 168 q 766 286 722 231 q 834 408 810 340 q 859 550 859 477 q 829 695 859 631 q 743 796 799 759 q 608 833 687 833 q 472 801 534 833 q 367 714 411 769 q 298 592 322 660 q 274 450 274 524 q 304 306 274 370 q 391 204 334 241 q 527 168 448 168 m 877 1225 l 804 1286 l 1059 1503 l 1128 1385 l 877 1225 m 489 1040 l 415 1128 l 678 1291 l 718 1291 l 923 1128 l 829 1040 l 681 1166 l 680 1166 l 489 1040 z "},"Ộ":{"ha":1078,"x_min":79,"x_max":1054,"o":"m 519 -9 q 288 51 387 -9 q 134 215 189 111 q 79 450 79 319 q 119 664 79 563 q 232 843 159 765 q 402 965 304 921 q 615 1010 500 1010 q 797 975 716 1010 q 935 879 878 941 q 1023 733 992 817 q 1054 553 1054 650 q 1013 337 1054 439 q 900 158 972 236 q 730 35 827 80 q 519 -9 633 -9 m 527 168 q 662 199 601 168 q 766 286 722 231 q 834 408 810 340 q 859 550 859 477 q 829 695 859 631 q 743 796 799 759 q 608 833 687 833 q 472 801 534 833 q 367 714 411 769 q 298 592 322 660 q 274 450 274 524 q 304 306 274 370 q 391 204 334 241 q 527 168 448 168 m 465 -317 q 380 -282 414 -317 q 346 -198 346 -248 q 380 -114 346 -148 q 465 -79 414 -79 q 549 -114 515 -79 q 584 -198 584 -148 q 549 -282 584 -248 q 465 -317 515 -317 m 540 1051 l 466 1140 l 730 1304 l 768 1304 l 973 1140 l 880 1051 l 736 1179 l 730 1179 l 540 1051 z "},"Ồ":{"ha":1078,"x_min":79,"x_max":1054,"o":"m 519 -9 q 288 51 387 -9 q 134 215 189 111 q 79 450 79 319 q 119 664 79 563 q 232 843 159 765 q 402 965 304 921 q 615 1010 500 1010 q 797 975 716 1010 q 935 879 878 941 q 1023 733 992 817 q 1054 553 1054 650 q 1013 337 1054 439 q 900 158 972 236 q 730 35 827 80 q 519 -9 633 -9 m 527 168 q 662 199 601 168 q 766 286 722 231 q 834 408 810 340 q 859 550 859 477 q 829 695 859 631 q 743 796 799 759 q 608 833 687 833 q 472 801 534 833 q 367 714 411 769 q 298 592 322 660 q 274 450 274 524 q 304 306 274 370 q 391 204 334 241 q 527 168 448 168 m 435 1224 l 257 1425 l 372 1516 l 528 1283 l 435 1224 m 452 1041 l 378 1129 l 642 1293 l 681 1293 l 886 1129 l 793 1041 l 644 1168 l 644 1168 l 452 1041 z "},"Ổ":{"ha":1078,"x_min":79,"x_max":1054,"o":"m 519 -9 q 288 51 387 -9 q 134 215 189 111 q 79 450 79 319 q 119 664 79 563 q 232 843 159 765 q 402 965 304 921 q 615 1010 500 1010 q 797 975 716 1010 q 935 879 878 941 q 1023 733 992 817 q 1054 553 1054 650 q 1013 337 1054 439 q 900 158 972 236 q 730 35 827 80 q 519 -9 633 -9 m 527 168 q 662 199 601 168 q 766 286 722 231 q 834 408 810 340 q 859 550 859 477 q 829 695 859 631 q 743 796 799 759 q 608 833 687 833 q 472 801 534 833 q 367 714 411 769 q 298 592 322 660 q 274 450 274 524 q 304 306 274 370 q 391 204 334 241 q 527 168 448 168 m 885 1215 l 804 1282 q 852 1319 833 1299 q 873 1356 870 1339 q 867 1382 878 1373 q 824 1391 856 1391 q 782 1388 806 1391 q 740 1378 758 1384 l 753 1493 q 792 1502 772 1499 q 835 1505 812 1505 q 964 1467 926 1505 q 989 1366 1001 1429 q 950 1278 981 1318 q 885 1215 920 1239 m 488 1040 l 414 1128 l 677 1291 l 717 1291 l 922 1128 l 829 1040 l 680 1166 l 680 1166 l 488 1040 z "},"Ỗ":{"ha":1078,"x_min":79,"x_max":1054,"o":"m 519 -9 q 288 51 387 -9 q 134 215 189 111 q 79 450 79 319 q 119 664 79 563 q 232 843 159 765 q 402 965 304 921 q 615 1010 500 1010 q 797 975 716 1010 q 935 879 878 941 q 1023 733 992 817 q 1054 553 1054 650 q 1013 337 1054 439 q 900 158 972 236 q 730 35 827 80 q 519 -9 633 -9 m 527 168 q 662 199 601 168 q 766 286 722 231 q 834 408 810 340 q 859 550 859 477 q 829 695 859 631 q 743 796 799 759 q 608 833 687 833 q 472 801 534 833 q 367 714 411 769 q 298 592 322 660 q 274 450 274 524 q 304 306 274 370 q 391 204 334 241 q 527 168 448 168 m 556 1312 l 437 1324 q 505 1455 454 1406 q 623 1503 555 1503 q 682 1491 658 1503 q 724 1462 706 1479 q 758 1434 742 1446 q 793 1421 774 1421 q 838 1450 819 1421 q 863 1516 857 1479 l 984 1505 q 947 1407 973 1451 q 882 1336 920 1363 q 798 1310 843 1310 q 740 1322 763 1310 q 699 1351 716 1335 q 664 1379 681 1367 q 627 1392 647 1392 q 583 1372 602 1392 q 556 1312 565 1352 m 490 1040 l 416 1128 l 679 1291 l 718 1291 l 924 1128 l 830 1040 l 682 1166 l 681 1166 l 490 1040 z "},"Ȍ":{"ha":1078,"x_min":79,"x_max":1054,"o":"m 519 -9 q 288 51 387 -9 q 134 215 189 111 q 79 450 79 319 q 119 664 79 563 q 232 843 159 765 q 402 965 304 921 q 615 1010 500 1010 q 797 975 716 1010 q 935 879 878 941 q 1023 733 992 817 q 1054 553 1054 650 q 1013 337 1054 439 q 900 158 972 236 q 730 35 827 80 q 519 -9 633 -9 m 527 168 q 662 199 601 168 q 766 286 722 231 q 834 408 810 340 q 859 550 859 477 q 829 695 859 631 q 743 796 799 759 q 608 833 687 833 q 472 801 534 833 q 367 714 411 769 q 298 592 322 660 q 274 450 274 524 q 304 306 274 370 q 391 204 334 241 q 527 168 448 168 m 491 1063 l 363 1281 l 497 1350 l 592 1109 l 491 1063 m 748 1063 l 623 1281 l 758 1350 l 850 1109 l 748 1063 z "},"Ö":{"ha":1078,"x_min":79,"x_max":1054,"o":"m 519 -9 q 288 51 387 -9 q 134 215 189 111 q 79 450 79 319 q 119 664 79 563 q 232 843 159 765 q 402 965 304 921 q 615 1010 500 1010 q 797 975 716 1010 q 935 879 878 941 q 1023 733 992 817 q 1054 553 1054 650 q 1013 337 1054 439 q 900 158 972 236 q 730 35 827 80 q 519 -9 633 -9 m 527 168 q 662 199 601 168 q 766 286 722 231 q 834 408 810 340 q 859 550 859 477 q 829 695 859 631 q 743 796 799 759 q 608 833 687 833 q 472 801 534 833 q 367 714 411 769 q 298 592 322 660 q 274 450 274 524 q 304 306 274 370 q 391 204 334 241 q 527 168 448 168 m 846 1055 q 765 1087 798 1055 q 732 1167 732 1120 q 763 1244 732 1213 q 840 1274 793 1274 q 917 1244 884 1274 q 951 1163 949 1213 q 921 1085 951 1115 q 846 1055 890 1055 m 523 1055 q 444 1087 476 1055 q 411 1167 411 1120 q 441 1243 411 1213 q 515 1274 471 1274 q 596 1241 564 1274 q 628 1160 628 1208 q 598 1086 628 1116 q 523 1055 568 1055 z "},"Ȫ":{"ha":1078,"x_min":79,"x_max":1054,"o":"m 519 -9 q 288 51 387 -9 q 134 215 189 111 q 79 450 79 319 q 119 664 79 563 q 232 843 159 765 q 402 965 304 921 q 615 1010 500 1010 q 797 975 716 1010 q 935 879 878 941 q 1023 733 992 817 q 1054 553 1054 650 q 1013 337 1054 439 q 900 158 972 236 q 730 35 827 80 q 519 -9 633 -9 m 527 168 q 662 199 601 168 q 766 286 722 231 q 834 408 810 340 q 859 550 859 477 q 829 695 859 631 q 743 796 799 759 q 608 833 687 833 q 472 801 534 833 q 367 714 411 769 q 298 592 322 660 q 274 450 274 524 q 304 306 274 370 q 391 204 334 241 q 527 168 448 168 m 846 1055 q 765 1087 798 1055 q 732 1167 732 1120 q 763 1244 732 1213 q 840 1274 793 1274 q 917 1244 884 1274 q 951 1163 949 1213 q 921 1085 951 1115 q 846 1055 890 1055 m 523 1055 q 444 1087 476 1055 q 411 1167 411 1120 q 441 1243 411 1213 q 515 1274 471 1274 q 596 1241 564 1274 q 628 1160 628 1208 q 598 1086 628 1116 q 523 1055 568 1055 m 449 1329 l 472 1453 l 1001 1453 l 978 1329 l 449 1329 z "},"Ȱ":{"ha":1078,"x_min":79,"x_max":1054,"o":"m 519 -9 q 288 51 387 -9 q 134 215 189 111 q 79 450 79 319 q 119 664 79 563 q 232 843 159 765 q 402 965 304 921 q 615 1010 500 1010 q 797 975 716 1010 q 935 879 878 941 q 1023 733 992 817 q 1054 553 1054 650 q 1013 337 1054 439 q 900 158 972 236 q 730 35 827 80 q 519 -9 633 -9 m 527 168 q 662 199 601 168 q 766 286 722 231 q 834 408 810 340 q 859 550 859 477 q 829 695 859 631 q 743 796 799 759 q 608 833 687 833 q 472 801 534 833 q 367 714 411 769 q 298 592 322 660 q 274 450 274 524 q 304 306 274 370 q 391 204 334 241 q 527 168 448 168 m 691 1063 q 606 1098 640 1063 q 572 1182 572 1133 q 606 1266 572 1232 q 690 1301 640 1301 q 775 1266 741 1301 q 810 1182 810 1232 q 775 1098 810 1133 q 691 1063 741 1063 m 461 1350 l 484 1474 l 1013 1474 l 990 1350 l 461 1350 z "},"Ọ":{"ha":1078,"x_min":79,"x_max":1054,"o":"m 519 -9 q 288 51 387 -9 q 134 215 189 111 q 79 450 79 319 q 119 664 79 563 q 232 843 159 765 q 402 965 304 921 q 615 1010 500 1010 q 797 975 716 1010 q 935 879 878 941 q 1023 733 992 817 q 1054 553 1054 650 q 1013 337 1054 439 q 900 158 972 236 q 730 35 827 80 q 519 -9 633 -9 m 527 168 q 662 199 601 168 q 766 286 722 231 q 834 408 810 340 q 859 550 859 477 q 829 695 859 631 q 743 796 799 759 q 608 833 687 833 q 472 801 534 833 q 367 714 411 769 q 298 592 322 660 q 274 450 274 524 q 304 306 274 370 q 391 204 334 241 q 527 168 448 168 m 450 -317 q 365 -282 399 -317 q 331 -198 331 -248 q 365 -114 331 -148 q 450 -79 399 -79 q 534 -114 500 -79 q 569 -198 569 -148 q 534 -282 569 -248 q 450 -317 500 -317 z "},"Ò":{"ha":1078,"x_min":79,"x_max":1054,"o":"m 519 -9 q 288 51 387 -9 q 134 215 189 111 q 79 450 79 319 q 119 664 79 563 q 232 843 159 765 q 402 965 304 921 q 615 1010 500 1010 q 797 975 716 1010 q 935 879 878 941 q 1023 733 992 817 q 1054 553 1054 650 q 1013 337 1054 439 q 900 158 972 236 q 730 35 827 80 q 519 -9 633 -9 m 527 168 q 662 199 601 168 q 766 286 722 231 q 834 408 810 340 q 859 550 859 477 q 829 695 859 631 q 743 796 799 759 q 608 833 687 833 q 472 801 534 833 q 367 714 411 769 q 298 592 322 660 q 274 450 274 524 q 304 306 274 370 q 391 204 334 241 q 527 168 448 168 m 659 1048 l 448 1217 l 555 1333 l 751 1128 l 659 1048 z "},"Ỏ":{"ha":1078,"x_min":79,"x_max":1054,"o":"m 519 -9 q 288 51 387 -9 q 134 215 189 111 q 79 450 79 319 q 119 664 79 563 q 232 843 159 765 q 402 965 304 921 q 615 1010 500 1010 q 797 975 716 1010 q 935 879 878 941 q 1023 733 992 817 q 1054 553 1054 650 q 1013 337 1054 439 q 900 158 972 236 q 730 35 827 80 q 519 -9 633 -9 m 527 168 q 662 199 601 168 q 766 286 722 231 q 834 408 810 340 q 859 550 859 477 q 829 695 859 631 q 743 796 799 759 q 608 833 687 833 q 472 801 534 833 q 367 714 411 769 q 298 592 322 660 q 274 450 274 524 q 304 306 274 370 q 391 204 334 241 q 527 168 448 168 m 685 1055 l 627 1129 q 673 1162 656 1144 q 696 1200 691 1180 q 689 1228 701 1218 q 644 1238 677 1238 q 598 1234 623 1238 q 554 1224 573 1230 l 569 1341 q 610 1349 589 1346 q 656 1352 631 1352 q 785 1314 747 1352 q 810 1213 823 1275 q 765 1121 800 1161 q 685 1055 730 1082 z "},"Ơ":{"ha":1078,"x_min":79,"x_max":1131,"o":"m 519 -9 q 288 51 387 -9 q 134 215 189 111 q 79 450 79 319 q 119 664 79 563 q 232 843 159 765 q 402 965 304 921 q 615 1010 500 1010 q 797 975 716 1010 q 935 879 878 941 q 1023 733 992 817 q 1054 553 1054 650 q 1013 337 1054 439 q 900 158 972 236 q 730 35 827 80 q 519 -9 633 -9 m 527 168 q 662 199 601 168 q 766 286 722 231 q 834 408 810 340 q 859 550 859 477 q 829 695 859 631 q 743 796 799 759 q 608 833 687 833 q 472 801 534 833 q 367 714 411 769 q 298 592 322 660 q 274 450 274 524 q 304 306 274 370 q 391 204 334 241 q 527 168 448 168 m 799 836 l 812 962 q 929 1000 886 962 q 987 1110 972 1038 q 990 1139 989 1122 q 991 1173 991 1156 l 1127 1179 q 1129 1125 1131 1156 q 1120 1066 1126 1095 q 1079 969 1110 1013 q 1002 895 1047 926 q 904 848 957 864 q 799 836 851 833 z "},"Ớ":{"ha":1078,"x_min":79,"x_max":1131,"o":"m 519 -9 q 288 51 387 -9 q 134 215 189 111 q 79 450 79 319 q 119 664 79 563 q 232 843 159 765 q 402 965 304 921 q 615 1010 500 1010 q 797 975 716 1010 q 935 879 878 941 q 1023 733 992 817 q 1054 553 1054 650 q 1013 337 1054 439 q 900 158 972 236 q 730 35 827 80 q 519 -9 633 -9 m 527 168 q 662 199 601 168 q 766 286 722 231 q 834 408 810 340 q 859 550 859 477 q 829 695 859 631 q 743 796 799 759 q 608 833 687 833 q 472 801 534 833 q 367 714 411 769 q 298 592 322 660 q 274 450 274 524 q 304 306 274 370 q 391 204 334 241 q 527 168 448 168 m 799 836 l 812 962 q 929 1000 886 962 q 987 1110 972 1038 q 990 1139 989 1122 q 991 1173 991 1156 l 1127 1179 q 1129 1125 1131 1156 q 1120 1066 1126 1095 q 1079 969 1110 1013 q 1002 895 1047 926 q 904 848 957 864 q 799 836 851 833 m 668 1048 l 570 1128 l 755 1333 l 869 1217 l 668 1048 z "},"Ợ":{"ha":1078,"x_min":79,"x_max":1131,"o":"m 519 -9 q 288 51 387 -9 q 134 215 189 111 q 79 450 79 319 q 119 664 79 563 q 232 843 159 765 q 402 965 304 921 q 615 1010 500 1010 q 797 975 716 1010 q 935 879 878 941 q 1023 733 992 817 q 1054 553 1054 650 q 1013 337 1054 439 q 900 158 972 236 q 730 35 827 80 q 519 -9 633 -9 m 527 168 q 662 199 601 168 q 766 286 722 231 q 834 408 810 340 q 859 550 859 477 q 829 695 859 631 q 743 796 799 759 q 608 833 687 833 q 472 801 534 833 q 367 714 411 769 q 298 592 322 660 q 274 450 274 524 q 304 306 274 370 q 391 204 334 241 q 527 168 448 168 m 799 836 l 812 962 q 929 1000 886 962 q 987 1110 972 1038 q 990 1139 989 1122 q 991 1173 991 1156 l 1127 1179 q 1129 1125 1131 1156 q 1120 1066 1126 1095 q 1079 969 1110 1013 q 1002 895 1047 926 q 904 848 957 864 q 799 836 851 833 m 465 -317 q 380 -282 414 -317 q 346 -198 346 -248 q 380 -114 346 -148 q 465 -79 414 -79 q 549 -114 515 -79 q 584 -198 584 -148 q 549 -282 584 -248 q 465 -317 515 -317 z "},"Ờ":{"ha":1078,"x_min":79,"x_max":1131,"o":"m 519 -9 q 288 51 387 -9 q 134 215 189 111 q 79 450 79 319 q 119 664 79 563 q 232 843 159 765 q 402 965 304 921 q 615 1010 500 1010 q 797 975 716 1010 q 935 879 878 941 q 1023 733 992 817 q 1054 553 1054 650 q 1013 337 1054 439 q 900 158 972 236 q 730 35 827 80 q 519 -9 633 -9 m 527 168 q 662 199 601 168 q 766 286 722 231 q 834 408 810 340 q 859 550 859 477 q 829 695 859 631 q 743 796 799 759 q 608 833 687 833 q 472 801 534 833 q 367 714 411 769 q 298 592 322 660 q 274 450 274 524 q 304 306 274 370 q 391 204 334 241 q 527 168 448 168 m 799 836 l 812 962 q 929 1000 886 962 q 987 1110 972 1038 q 990 1139 989 1122 q 991 1173 991 1156 l 1127 1179 q 1129 1125 1131 1156 q 1120 1066 1126 1095 q 1079 969 1110 1013 q 1002 895 1047 926 q 904 848 957 864 q 799 836 851 833 m 659 1048 l 448 1217 l 555 1333 l 751 1128 l 659 1048 z "},"Ở":{"ha":1078,"x_min":79,"x_max":1131,"o":"m 519 -9 q 288 51 387 -9 q 134 215 189 111 q 79 450 79 319 q 119 664 79 563 q 232 843 159 765 q 402 965 304 921 q 615 1010 500 1010 q 797 975 716 1010 q 935 879 878 941 q 1023 733 992 817 q 1054 553 1054 650 q 1013 337 1054 439 q 900 158 972 236 q 730 35 827 80 q 519 -9 633 -9 m 527 168 q 662 199 601 168 q 766 286 722 231 q 834 408 810 340 q 859 550 859 477 q 829 695 859 631 q 743 796 799 759 q 608 833 687 833 q 472 801 534 833 q 367 714 411 769 q 298 592 322 660 q 274 450 274 524 q 304 306 274 370 q 391 204 334 241 q 527 168 448 168 m 799 836 l 812 962 q 929 1000 886 962 q 987 1110 972 1038 q 990 1139 989 1122 q 991 1173 991 1156 l 1127 1179 q 1129 1125 1131 1156 q 1120 1066 1126 1095 q 1079 969 1110 1013 q 1002 895 1047 926 q 904 848 957 864 q 799 836 851 833 m 685 1055 l 627 1129 q 673 1162 656 1144 q 696 1200 691 1180 q 689 1228 701 1218 q 644 1238 677 1238 q 598 1234 623 1238 q 554 1224 573 1230 l 569 1341 q 610 1349 589 1346 q 656 1352 631 1352 q 785 1314 747 1352 q 810 1213 823 1275 q 765 1121 800 1161 q 685 1055 730 1082 z "},"Ỡ":{"ha":1078,"x_min":79,"x_max":1131,"o":"m 519 -9 q 288 51 387 -9 q 134 215 189 111 q 79 450 79 319 q 119 664 79 563 q 232 843 159 765 q 402 965 304 921 q 615 1010 500 1010 q 797 975 716 1010 q 935 879 878 941 q 1023 733 992 817 q 1054 553 1054 650 q 1013 337 1054 439 q 900 158 972 236 q 730 35 827 80 q 519 -9 633 -9 m 527 168 q 662 199 601 168 q 766 286 722 231 q 834 408 810 340 q 859 550 859 477 q 829 695 859 631 q 743 796 799 759 q 608 833 687 833 q 472 801 534 833 q 367 714 411 769 q 298 592 322 660 q 274 450 274 524 q 304 306 274 370 q 391 204 334 241 q 527 168 448 168 m 799 836 l 812 962 q 929 1000 886 962 q 987 1110 972 1038 q 990 1139 989 1122 q 991 1173 991 1156 l 1127 1179 q 1129 1125 1131 1156 q 1120 1066 1126 1095 q 1079 969 1110 1013 q 1002 895 1047 926 q 904 848 957 864 q 799 836 851 833 m 524 1059 l 414 1077 q 478 1211 431 1161 q 593 1261 526 1261 q 657 1250 633 1261 q 696 1222 682 1238 q 723 1195 711 1206 q 753 1183 736 1183 q 807 1210 783 1183 q 838 1271 831 1236 l 949 1253 q 884 1120 932 1171 q 765 1069 836 1069 q 704 1081 726 1069 q 666 1109 681 1093 q 637 1137 651 1125 q 604 1149 624 1149 q 555 1124 577 1149 q 524 1059 533 1099 z "},"Ő":{"ha":1078,"x_min":79,"x_max":1054,"o":"m 519 -9 q 288 51 387 -9 q 134 215 189 111 q 79 450 79 319 q 119 664 79 563 q 232 843 159 765 q 402 965 304 921 q 615 1010 500 1010 q 797 975 716 1010 q 935 879 878 941 q 1023 733 992 817 q 1054 553 1054 650 q 1013 337 1054 439 q 900 158 972 236 q 730 35 827 80 q 519 -9 633 -9 m 527 168 q 662 199 601 168 q 766 286 722 231 q 834 408 810 340 q 859 550 859 477 q 829 695 859 631 q 743 796 799 759 q 608 833 687 833 q 472 801 534 833 q 367 714 411 769 q 298 592 322 660 q 274 450 274 524 q 304 306 274 370 q 391 204 334 241 q 527 168 448 168 m 575 1063 l 486 1109 l 673 1350 l 785 1281 l 575 1063 m 834 1063 l 745 1109 l 929 1350 l 1043 1281 l 834 1063 z "},"Ȏ":{"ha":1078,"x_min":79,"x_max":1054,"o":"m 519 -9 q 288 51 387 -9 q 134 215 189 111 q 79 450 79 319 q 119 664 79 563 q 232 843 159 765 q 402 965 304 921 q 615 1010 500 1010 q 797 975 716 1010 q 935 879 878 941 q 1023 733 992 817 q 1054 553 1054 650 q 1013 337 1054 439 q 900 158 972 236 q 730 35 827 80 q 519 -9 633 -9 m 527 168 q 662 199 601 168 q 766 286 722 231 q 834 408 810 340 q 859 550 859 477 q 829 695 859 631 q 743 796 799 759 q 608 833 687 833 q 472 801 534 833 q 367 714 411 769 q 298 592 322 660 q 274 450 274 524 q 304 306 274 370 q 391 204 334 241 q 527 168 448 168 m 905 1046 l 793 1064 q 771 1137 802 1105 q 679 1168 740 1168 q 576 1137 618 1168 q 522 1054 534 1106 l 411 1072 q 466 1184 424 1140 q 567 1250 509 1228 q 686 1272 626 1272 q 813 1243 759 1272 q 893 1162 867 1213 q 905 1046 919 1111 z "},"Ō":{"ha":1078,"x_min":79,"x_max":1054,"o":"m 519 -9 q 288 51 387 -9 q 134 215 189 111 q 79 450 79 319 q 119 664 79 563 q 232 843 159 765 q 402 965 304 921 q 615 1010 500 1010 q 797 975 716 1010 q 935 879 878 941 q 1023 733 992 817 q 1054 553 1054 650 q 1013 337 1054 439 q 900 158 972 236 q 730 35 827 80 q 519 -9 633 -9 m 527 168 q 662 199 601 168 q 766 286 722 231 q 834 408 810 340 q 859 550 859 477 q 829 695 859 631 q 743 796 799 759 q 608 833 687 833 q 472 801 534 833 q 367 714 411 769 q 298 592 322 660 q 274 450 274 524 q 304 306 274 370 q 391 204 334 241 q 527 168 448 168 m 404 1101 l 427 1225 l 956 1225 l 932 1101 l 404 1101 z "},"Ṓ":{"ha":1078,"x_min":79,"x_max":1054,"o":"m 427 1101 l 450 1225 l 979 1225 l 956 1101 l 427 1101 m 735 1275 l 638 1355 l 823 1559 l 937 1444 l 735 1275 m 519 -9 q 288 51 387 -9 q 134 215 189 111 q 79 450 79 319 q 119 664 79 563 q 232 843 159 765 q 402 965 304 921 q 615 1010 500 1010 q 797 975 716 1010 q 935 879 878 941 q 1023 733 992 817 q 1054 553 1054 650 q 1013 337 1054 439 q 900 158 972 236 q 730 35 827 80 q 519 -9 633 -9 m 527 168 q 662 199 601 168 q 766 286 722 231 q 834 408 810 340 q 859 550 859 477 q 829 695 859 631 q 743 796 799 759 q 608 833 687 833 q 472 801 534 833 q 367 714 411 769 q 298 592 322 660 q 274 450 274 524 q 304 306 274 370 q 391 204 334 241 q 527 168 448 168 z "},"Ṑ":{"ha":1078,"x_min":79,"x_max":1054,"o":"m 519 -9 q 288 51 387 -9 q 134 215 189 111 q 79 450 79 319 q 119 664 79 563 q 232 843 159 765 q 402 965 304 921 q 615 1010 500 1010 q 797 975 716 1010 q 935 879 878 941 q 1023 733 992 817 q 1054 553 1054 650 q 1013 337 1054 439 q 900 158 972 236 q 730 35 827 80 q 519 -9 633 -9 m 527 168 q 662 199 601 168 q 766 286 722 231 q 834 408 810 340 q 859 550 859 477 q 829 695 859 631 q 743 796 799 759 q 608 833 687 833 q 472 801 534 833 q 367 714 411 769 q 298 592 322 660 q 274 450 274 524 q 304 306 274 370 q 391 204 334 241 q 527 168 448 168 m 404 1101 l 427 1225 l 956 1225 l 932 1101 l 404 1101 m 703 1274 l 492 1443 l 599 1559 l 795 1354 l 703 1274 z "},"Ǫ":{"ha":1078,"x_min":79,"x_max":1054,"o":"m 519 -9 q 288 51 387 -9 q 134 215 189 111 q 79 450 79 319 q 119 664 79 563 q 232 843 159 765 q 402 965 304 921 q 615 1010 500 1010 q 797 975 716 1010 q 935 879 878 941 q 1023 733 992 817 q 1054 553 1054 650 q 1013 337 1054 439 q 900 158 972 236 q 730 35 827 80 q 519 -9 633 -9 m 527 168 q 662 199 601 168 q 766 286 722 231 q 834 408 810 340 q 859 550 859 477 q 829 695 859 631 q 743 796 799 759 q 608 833 687 833 q 472 801 534 833 q 367 714 411 769 q 298 592 322 660 q 274 450 274 524 q 304 306 274 370 q 391 204 334 241 q 527 168 448 168 m 468 -288 q 363 -245 398 -288 q 342 -140 329 -203 q 400 -47 353 -87 q 519 35 447 -6 l 615 0 q 546 -45 581 -21 q 488 -92 512 -68 q 458 -138 463 -115 q 465 -168 455 -157 q 502 -180 475 -180 q 551 -172 526 -180 q 588 -157 576 -163 l 574 -271 q 520 -283 553 -279 q 468 -288 488 -288 z "},"Ø":{"ha":1078,"x_min":51,"x_max":1095,"o":"m 519 -9 q 288 51 387 -9 q 134 215 189 111 q 79 450 79 319 q 119 664 79 563 q 232 843 159 765 q 402 965 304 921 q 615 1010 500 1010 q 797 975 716 1010 q 935 879 878 941 q 1023 733 992 817 q 1054 553 1054 650 q 1013 337 1054 439 q 900 158 972 236 q 730 35 827 80 q 519 -9 633 -9 m 527 168 q 662 199 601 168 q 766 286 722 231 q 834 408 810 340 q 859 550 859 477 q 829 695 859 631 q 743 796 799 759 q 608 833 687 833 q 472 801 534 833 q 367 714 411 769 q 298 592 322 660 q 274 450 274 524 q 304 306 274 370 q 391 204 334 241 q 527 168 448 168 m 151 -31 l 51 72 l 994 1002 l 1095 900 l 151 -31 z "},"Ǿ":{"ha":1078,"x_min":51,"x_max":1095,"o":"m 519 -9 q 288 51 387 -9 q 134 215 189 111 q 79 450 79 319 q 119 664 79 563 q 232 843 159 765 q 402 965 304 921 q 615 1010 500 1010 q 797 975 716 1010 q 935 879 878 941 q 1023 733 992 817 q 1054 553 1054 650 q 1013 337 1054 439 q 900 158 972 236 q 730 35 827 80 q 519 -9 633 -9 m 527 168 q 662 199 601 168 q 766 286 722 231 q 834 408 810 340 q 859 550 859 477 q 829 695 859 631 q 743 796 799 759 q 608 833 687 833 q 472 801 534 833 q 367 714 411 769 q 298 592 322 660 q 274 450 274 524 q 304 306 274 370 q 391 204 334 241 q 527 168 448 168 m 151 -31 l 51 72 l 994 1002 l 1095 900 l 151 -31 m 668 1048 l 570 1128 l 755 1333 l 869 1217 l 668 1048 z "},"Õ":{"ha":1078,"x_min":79,"x_max":1054,"o":"m 519 -9 q 288 51 387 -9 q 134 215 189 111 q 79 450 79 319 q 119 664 79 563 q 232 843 159 765 q 402 965 304 921 q 615 1010 500 1010 q 797 975 716 1010 q 935 879 878 941 q 1023 733 992 817 q 1054 553 1054 650 q 1013 337 1054 439 q 900 158 972 236 q 730 35 827 80 q 519 -9 633 -9 m 527 168 q 662 199 601 168 q 766 286 722 231 q 834 408 810 340 q 859 550 859 477 q 829 695 859 631 q 743 796 799 759 q 608 833 687 833 q 472 801 534 833 q 367 714 411 769 q 298 592 322 660 q 274 450 274 524 q 304 306 274 370 q 391 204 334 241 q 527 168 448 168 m 524 1059 l 414 1077 q 478 1211 431 1161 q 593 1261 526 1261 q 657 1250 633 1261 q 696 1222 682 1238 q 723 1195 711 1206 q 753 1183 736 1183 q 807 1210 783 1183 q 838 1271 831 1236 l 949 1253 q 884 1120 932 1171 q 765 1069 836 1069 q 704 1081 726 1069 q 666 1109 681 1093 q 637 1137 651 1125 q 604 1149 624 1149 q 555 1124 577 1149 q 524 1059 533 1099 z "},"Ṍ":{"ha":1078,"x_min":79,"x_max":1054,"o":"m 519 -9 q 288 51 387 -9 q 134 215 189 111 q 79 450 79 319 q 119 664 79 563 q 232 843 159 765 q 402 965 304 921 q 615 1010 500 1010 q 797 975 716 1010 q 935 879 878 941 q 1023 733 992 817 q 1054 553 1054 650 q 1013 337 1054 439 q 900 158 972 236 q 730 35 827 80 q 519 -9 633 -9 m 527 168 q 662 199 601 168 q 766 286 722 231 q 834 408 810 340 q 859 550 859 477 q 829 695 859 631 q 743 796 799 759 q 608 833 687 833 q 472 801 534 833 q 367 714 411 769 q 298 592 322 660 q 274 450 274 524 q 304 306 274 370 q 391 204 334 241 q 527 168 448 168 m 524 1059 l 414 1077 q 478 1211 431 1161 q 593 1261 526 1261 q 657 1250 633 1261 q 696 1222 682 1238 q 723 1195 711 1206 q 753 1183 736 1183 q 807 1210 783 1183 q 838 1271 831 1236 l 949 1253 q 884 1120 932 1171 q 765 1069 836 1069 q 704 1081 726 1069 q 666 1109 681 1093 q 637 1137 651 1125 q 604 1149 624 1149 q 555 1124 577 1149 q 524 1059 533 1099 m 720 1301 l 622 1381 l 807 1586 l 921 1470 l 720 1301 z "},"Ṏ":{"ha":1078,"x_min":79,"x_max":1054,"o":"m 519 -9 q 288 51 387 -9 q 134 215 189 111 q 79 450 79 319 q 119 664 79 563 q 232 843 159 765 q 402 965 304 921 q 615 1010 500 1010 q 797 975 716 1010 q 935 879 878 941 q 1023 733 992 817 q 1054 553 1054 650 q 1013 337 1054 439 q 900 158 972 236 q 730 35 827 80 q 519 -9 633 -9 m 527 168 q 662 199 601 168 q 766 286 722 231 q 834 408 810 340 q 859 550 859 477 q 829 695 859 631 q 743 796 799 759 q 608 833 687 833 q 472 801 534 833 q 367 714 411 769 q 298 592 322 660 q 274 450 274 524 q 304 306 274 370 q 391 204 334 241 q 527 168 448 168 m 524 1059 l 414 1077 q 478 1211 431 1161 q 593 1261 526 1261 q 657 1250 633 1261 q 696 1222 682 1238 q 723 1195 711 1206 q 753 1183 736 1183 q 807 1210 783 1183 q 838 1271 831 1236 l 949 1253 q 884 1120 932 1171 q 765 1069 836 1069 q 704 1081 726 1069 q 666 1109 681 1093 q 637 1137 651 1125 q 604 1149 624 1149 q 555 1124 577 1149 q 524 1059 533 1099 m 898 1309 q 817 1341 850 1309 q 784 1421 784 1373 q 814 1497 784 1467 q 891 1528 845 1528 q 968 1497 936 1528 q 1002 1417 1001 1467 q 972 1339 1003 1369 q 898 1309 942 1309 m 574 1309 q 495 1341 528 1309 q 463 1421 463 1373 q 492 1497 463 1466 q 567 1528 522 1528 q 647 1495 615 1528 q 680 1414 680 1461 q 650 1339 680 1370 q 574 1309 620 1309 z "},"Ȭ":{"ha":1078,"x_min":79,"x_max":1054,"o":"m 519 -9 q 288 51 387 -9 q 134 215 189 111 q 79 450 79 319 q 119 664 79 563 q 232 843 159 765 q 402 965 304 921 q 615 1010 500 1010 q 797 975 716 1010 q 935 879 878 941 q 1023 733 992 817 q 1054 553 1054 650 q 1013 337 1054 439 q 900 158 972 236 q 730 35 827 80 q 519 -9 633 -9 m 527 168 q 662 199 601 168 q 766 286 722 231 q 834 408 810 340 q 859 550 859 477 q 829 695 859 631 q 743 796 799 759 q 608 833 687 833 q 472 801 534 833 q 367 714 411 769 q 298 592 322 660 q 274 450 274 524 q 304 306 274 370 q 391 204 334 241 q 527 168 448 168 m 524 1059 l 414 1077 q 478 1211 431 1161 q 593 1261 526 1261 q 657 1250 633 1261 q 696 1222 682 1238 q 723 1195 711 1206 q 753 1183 736 1183 q 807 1210 783 1183 q 838 1271 831 1236 l 949 1253 q 884 1120 932 1171 q 765 1069 836 1069 q 704 1081 726 1069 q 666 1109 681 1093 q 637 1137 651 1125 q 604 1149 624 1149 q 555 1124 577 1149 q 524 1059 533 1099 m 455 1354 l 478 1478 l 1007 1478 l 984 1354 l 455 1354 z "},"Œ":{"ha":1441,"x_min":73,"x_max":1497,"o":"m 477 -11 q 310 23 385 -11 q 182 116 235 56 q 101 255 130 176 q 73 424 73 334 q 117 646 73 540 q 236 833 160 751 q 412 963 311 916 q 625 1010 512 1010 q 791 978 717 1010 q 914 889 865 946 q 976 755 962 831 l 906 764 l 951 1000 l 1497 1000 l 1462 825 l 1096 825 l 1048 590 l 1359 590 l 1325 422 l 1013 422 l 965 174 l 1333 174 l 1298 0 l 751 0 l 799 236 l 873 227 q 702 51 805 112 q 477 -11 598 -11 m 518 166 q 659 200 595 166 q 770 290 723 233 q 844 418 818 347 q 870 566 870 489 q 841 704 870 644 q 757 799 812 764 q 625 833 703 833 q 484 800 549 833 q 371 709 419 766 q 296 580 323 652 q 269 432 269 509 q 299 295 269 355 q 386 200 330 235 q 518 166 441 166 z "},"P":{"ha":834,"x_min":32,"x_max":849,"o":"m 255 345 l 289 517 l 481 517 q 572 540 532 517 q 634 603 612 564 q 657 692 657 642 q 637 766 657 736 q 584 810 616 795 q 512 825 551 825 l 341 825 l 376 1000 l 522 1000 q 691 964 618 1000 q 807 862 765 928 q 849 703 849 795 q 801 518 849 599 q 667 391 752 437 q 471 345 583 345 l 255 345 m 32 0 l 232 1000 l 431 1000 l 230 0 l 32 0 z "},"Þ":{"ha":840,"x_min":32,"x_max":825,"o":"m 216 174 l 251 349 l 454 349 q 544 375 505 349 q 605 445 583 401 q 627 537 627 488 q 590 625 627 595 q 484 654 554 654 l 313 654 l 348 829 l 517 829 q 742 758 659 829 q 825 557 825 688 q 774 364 825 451 q 636 226 724 277 q 437 174 549 174 l 216 174 m 32 0 l 232 1000 l 430 1000 l 230 0 l 32 0 z "},"Q":{"ha":1106,"x_min":79,"x_max":1054,"o":"m 845 0 l 747 130 l 671 188 l 494 413 l 694 413 l 807 261 l 899 187 l 1040 0 l 845 0 m 519 -9 q 288 51 387 -9 q 134 215 189 111 q 79 450 79 319 q 119 664 79 563 q 232 843 159 765 q 402 965 304 921 q 615 1010 500 1010 q 797 975 716 1010 q 935 879 878 941 q 1023 733 992 817 q 1054 553 1054 650 q 1013 337 1054 439 q 900 158 972 236 q 730 35 827 80 q 519 -9 633 -9 m 527 168 q 662 199 601 168 q 766 286 722 231 q 834 408 810 340 q 859 550 859 477 q 829 695 859 631 q 743 796 799 759 q 608 833 687 833 q 472 801 534 833 q 367 714 411 769 q 298 592 322 660 q 274 450 274 524 q 304 306 274 370 q 391 204 334 241 q 527 168 448 168 z "},"R":{"ha":898,"x_min":32,"x_max":840,"o":"m 248 362 l 279 521 l 468 521 q 561 544 522 521 q 622 605 600 566 q 644 690 644 644 q 602 792 644 759 q 501 825 561 825 l 330 825 l 367 1000 l 512 1000 q 680 965 606 1000 q 797 864 754 930 q 840 703 840 798 q 790 525 840 602 q 654 405 741 448 q 456 362 568 362 l 248 362 m 32 0 l 232 1000 l 431 1000 l 230 0 l 32 0 m 574 0 l 397 390 l 551 497 l 783 0 l 574 0 z "},"Ŕ":{"ha":898,"x_min":32,"x_max":840,"o":"m 248 362 l 279 521 l 468 521 q 561 544 522 521 q 622 605 600 566 q 644 690 644 644 q 602 792 644 759 q 501 825 561 825 l 330 825 l 367 1000 l 512 1000 q 680 965 606 1000 q 797 864 754 930 q 840 703 840 798 q 790 525 840 602 q 654 405 741 448 q 456 362 568 362 l 248 362 m 32 0 l 232 1000 l 431 1000 l 230 0 l 32 0 m 574 0 l 397 390 l 551 497 l 783 0 l 574 0 m 549 1048 l 452 1128 l 637 1333 l 751 1217 l 549 1048 z "},"Ř":{"ha":898,"x_min":32,"x_max":840,"o":"m 248 362 l 279 521 l 468 521 q 561 544 522 521 q 622 605 600 566 q 644 690 644 644 q 602 792 644 759 q 501 825 561 825 l 330 825 l 367 1000 l 512 1000 q 680 965 606 1000 q 797 864 754 930 q 840 703 840 798 q 790 525 840 602 q 654 405 741 448 q 456 362 568 362 l 248 362 m 32 0 l 232 1000 l 431 1000 l 230 0 l 32 0 m 574 0 l 397 390 l 551 497 l 783 0 l 574 0 m 515 1050 l 311 1215 l 404 1303 l 549 1177 l 555 1177 l 745 1303 l 819 1215 l 555 1050 l 515 1050 z "},"Ŗ":{"ha":898,"x_min":32,"x_max":840,"o":"m 248 362 l 279 521 l 468 521 q 561 544 522 521 q 622 605 600 566 q 644 690 644 644 q 602 792 644 759 q 501 825 561 825 l 330 825 l 367 1000 l 512 1000 q 680 965 606 1000 q 797 864 754 930 q 840 703 840 798 q 790 525 840 602 q 654 405 741 448 q 456 362 568 362 l 248 362 m 32 0 l 232 1000 l 431 1000 l 230 0 l 32 0 m 574 0 l 397 390 l 551 497 l 783 0 l 574 0 m 260 -387 l 227 -335 l 306 -286 q 336 -267 318 -278 q 368 -238 354 -256 q 381 -197 382 -221 l 397 -197 q 388 -228 399 -211 q 351 -244 378 -244 q 294 -219 321 -244 q 267 -158 267 -195 q 292 -100 267 -124 q 353 -77 317 -77 q 416 -102 388 -77 q 444 -178 444 -128 q 415 -271 444 -236 q 346 -330 385 -305 l 260 -387 z "},"Ȑ":{"ha":898,"x_min":32,"x_max":840,"o":"m 248 362 l 279 521 l 468 521 q 561 544 522 521 q 622 605 600 566 q 644 690 644 644 q 602 792 644 759 q 501 825 561 825 l 330 825 l 367 1000 l 512 1000 q 680 965 606 1000 q 797 864 754 930 q 840 703 840 798 q 790 525 840 602 q 654 405 741 448 q 456 362 568 362 l 248 362 m 32 0 l 232 1000 l 431 1000 l 230 0 l 32 0 m 574 0 l 397 390 l 551 497 l 783 0 l 574 0 m 372 1063 l 244 1281 l 378 1350 l 473 1109 l 372 1063 m 629 1063 l 505 1281 l 639 1350 l 731 1109 l 629 1063 z "},"Ṛ":{"ha":898,"x_min":32,"x_max":840,"o":"m 248 362 l 279 521 l 468 521 q 561 544 522 521 q 622 605 600 566 q 644 690 644 644 q 602 792 644 759 q 501 825 561 825 l 330 825 l 367 1000 l 512 1000 q 680 965 606 1000 q 797 864 754 930 q 840 703 840 798 q 790 525 840 602 q 654 405 741 448 q 456 362 568 362 l 248 362 m 32 0 l 232 1000 l 431 1000 l 230 0 l 32 0 m 574 0 l 397 390 l 551 497 l 783 0 l 574 0 m 345 -317 q 259 -282 294 -317 q 225 -198 225 -248 q 259 -114 225 -148 q 344 -79 294 -79 q 429 -114 394 -79 q 463 -198 463 -148 q 429 -282 463 -248 q 345 -317 394 -317 z "},"Ȓ":{"ha":898,"x_min":32,"x_max":840,"o":"m 248 362 l 279 521 l 468 521 q 561 544 522 521 q 622 605 600 566 q 644 690 644 644 q 602 792 644 759 q 501 825 561 825 l 330 825 l 367 1000 l 512 1000 q 680 965 606 1000 q 797 864 754 930 q 840 703 840 798 q 790 525 840 602 q 654 405 741 448 q 456 362 568 362 l 248 362 m 32 0 l 232 1000 l 431 1000 l 230 0 l 32 0 m 574 0 l 397 390 l 551 497 l 783 0 l 574 0 m 787 1046 l 675 1064 q 653 1137 684 1105 q 561 1168 622 1168 q 458 1137 500 1168 q 404 1054 416 1106 l 293 1072 q 348 1184 306 1140 q 449 1250 391 1228 q 568 1272 508 1272 q 695 1243 641 1272 q 775 1162 749 1213 q 787 1046 801 1111 z "},"Ṟ":{"ha":898,"x_min":32,"x_max":840,"o":"m 248 362 l 279 521 l 468 521 q 561 544 522 521 q 622 605 600 566 q 644 690 644 644 q 602 792 644 759 q 501 825 561 825 l 330 825 l 367 1000 l 512 1000 q 680 965 606 1000 q 797 864 754 930 q 840 703 840 798 q 790 525 840 602 q 654 405 741 448 q 456 362 568 362 l 248 362 m 32 0 l 232 1000 l 431 1000 l 230 0 l 32 0 m 574 0 l 397 390 l 551 497 l 783 0 l 574 0 m 52 -278 l 76 -162 l 627 -162 l 604 -278 l 52 -278 z "},"S":{"ha":783,"x_min":30,"x_max":787,"o":"m 368 -11 q 207 22 279 -11 q 89 109 135 55 q 30 227 43 163 l 224 304 q 251 236 229 268 q 306 185 273 205 q 380 165 340 165 q 447 183 417 165 q 495 230 477 201 q 513 295 513 260 q 488 367 513 338 q 421 419 462 396 q 334 465 380 441 q 248 520 289 488 q 181 599 207 552 q 155 717 155 646 q 198 871 155 806 q 315 974 241 937 q 482 1010 389 1010 q 629 983 564 1010 q 734 911 693 956 q 787 810 776 865 l 602 736 q 579 783 596 760 q 536 820 563 805 q 472 834 509 834 q 409 820 436 834 q 366 780 381 805 q 350 724 350 755 q 376 655 350 683 q 443 604 401 627 q 529 558 484 582 q 615 502 574 534 q 682 422 656 470 q 708 302 708 374 q 664 140 708 211 q 543 30 620 70 q 368 -11 466 -11 z "},"Ś":{"ha":783,"x_min":30,"x_max":787,"o":"m 368 -11 q 207 22 279 -11 q 89 109 135 55 q 30 227 43 163 l 224 304 q 251 236 229 268 q 306 185 273 205 q 380 165 340 165 q 447 183 417 165 q 495 230 477 201 q 513 295 513 260 q 488 367 513 338 q 421 419 462 396 q 334 465 380 441 q 248 520 289 488 q 181 599 207 552 q 155 717 155 646 q 198 871 155 806 q 315 974 241 937 q 482 1010 389 1010 q 629 983 564 1010 q 734 911 693 956 q 787 810 776 865 l 602 736 q 579 783 596 760 q 536 820 563 805 q 472 834 509 834 q 409 820 436 834 q 366 780 381 805 q 350 724 350 755 q 376 655 350 683 q 443 604 401 627 q 529 558 484 582 q 615 502 574 534 q 682 422 656 470 q 708 302 708 374 q 664 140 708 211 q 543 30 620 70 q 368 -11 466 -11 m 534 1048 l 436 1128 l 621 1333 l 735 1217 l 534 1048 z "},"Ṥ":{"ha":783,"x_min":30,"x_max":885,"o":"m 368 -11 q 207 22 279 -11 q 89 109 135 55 q 30 227 43 163 l 224 304 q 251 236 229 268 q 306 185 273 205 q 380 165 340 165 q 447 183 417 165 q 495 230 477 201 q 513 295 513 260 q 488 367 513 338 q 421 419 462 396 q 334 465 380 441 q 248 520 289 488 q 181 599 207 552 q 155 717 155 646 q 198 871 155 806 q 315 974 241 937 q 482 1010 389 1010 q 629 983 564 1010 q 734 911 693 956 q 787 810 776 865 l 602 736 q 579 783 596 760 q 536 820 563 805 q 472 834 509 834 q 409 820 436 834 q 366 780 381 805 q 350 724 350 755 q 376 655 350 683 q 443 604 401 627 q 529 558 484 582 q 615 502 574 534 q 682 422 656 470 q 708 302 708 374 q 664 140 708 211 q 543 30 620 70 q 368 -11 466 -11 m 668 1061 l 579 1131 l 776 1381 l 885 1279 l 668 1061 m 411 1093 q 326 1128 360 1093 q 292 1212 292 1162 q 326 1296 292 1262 q 410 1331 360 1331 q 495 1296 460 1331 q 530 1212 530 1262 q 495 1128 530 1162 q 411 1093 460 1093 z "},"Š":{"ha":783,"x_min":30,"x_max":804,"o":"m 368 -11 q 207 22 279 -11 q 89 109 135 55 q 30 227 43 163 l 224 304 q 251 236 229 268 q 306 185 273 205 q 380 165 340 165 q 447 183 417 165 q 495 230 477 201 q 513 295 513 260 q 488 367 513 338 q 421 419 462 396 q 334 465 380 441 q 248 520 289 488 q 181 599 207 552 q 155 717 155 646 q 198 871 155 806 q 315 974 241 937 q 482 1010 389 1010 q 629 983 564 1010 q 734 911 693 956 q 787 810 776 865 l 602 736 q 579 783 596 760 q 536 820 563 805 q 472 834 509 834 q 409 820 436 834 q 366 780 381 805 q 350 724 350 755 q 376 655 350 683 q 443 604 401 627 q 529 558 484 582 q 615 502 574 534 q 682 422 656 470 q 708 302 708 374 q 664 140 708 211 q 543 30 620 70 q 368 -11 466 -11 m 500 1050 l 295 1215 l 388 1303 l 533 1177 l 539 1177 l 729 1303 l 804 1215 l 539 1050 l 500 1050 z "},"Ṧ":{"ha":783,"x_min":30,"x_max":804,"o":"m 368 -11 q 207 22 279 -11 q 89 109 135 55 q 30 227 43 163 l 224 304 q 251 236 229 268 q 306 185 273 205 q 380 165 340 165 q 447 183 417 165 q 495 230 477 201 q 513 295 513 260 q 488 367 513 338 q 421 419 462 396 q 334 465 380 441 q 248 520 289 488 q 181 599 207 552 q 155 717 155 646 q 198 871 155 806 q 315 974 241 937 q 482 1010 389 1010 q 629 983 564 1010 q 734 911 693 956 q 787 810 776 865 l 602 736 q 579 783 596 760 q 536 820 563 805 q 472 834 509 834 q 409 820 436 834 q 366 780 381 805 q 350 724 350 755 q 376 655 350 683 q 443 604 401 627 q 529 558 484 582 q 615 502 574 534 q 682 422 656 470 q 708 302 708 374 q 664 140 708 211 q 543 30 620 70 q 368 -11 466 -11 m 500 1050 l 295 1215 l 388 1303 l 533 1177 l 539 1177 l 729 1303 l 804 1215 l 539 1050 l 500 1050 m 585 1283 q 500 1318 534 1283 q 466 1402 466 1352 q 500 1486 466 1452 q 585 1520 534 1520 q 669 1486 635 1520 q 704 1402 704 1452 q 669 1318 704 1352 q 585 1283 635 1283 z "},"Ş":{"ha":783,"x_min":30,"x_max":787,"o":"m 368 -11 q 207 22 279 -11 q 89 109 135 55 q 30 227 43 163 l 224 304 q 251 236 229 268 q 306 185 273 205 q 380 165 340 165 q 447 183 417 165 q 495 230 477 201 q 513 295 513 260 q 488 367 513 338 q 421 419 462 396 q 334 465 380 441 q 248 520 289 488 q 181 599 207 552 q 155 717 155 646 q 198 871 155 806 q 315 974 241 937 q 482 1010 389 1010 q 629 983 564 1010 q 734 911 693 956 q 787 810 776 865 l 602 736 q 579 783 596 760 q 536 820 563 805 q 472 834 509 834 q 409 820 436 834 q 366 780 381 805 q 350 724 350 755 q 376 655 350 683 q 443 604 401 627 q 529 558 484 582 q 615 502 574 534 q 682 422 656 470 q 708 302 708 374 q 664 140 708 211 q 543 30 620 70 q 368 -11 466 -11 m 191 -338 l 201 -244 q 312 -227 271 -246 q 359 -180 353 -208 q 341 -147 363 -158 q 269 -132 319 -136 l 334 0 l 422 0 l 361 -111 l 353 -66 q 418 -83 389 -67 q 461 -130 447 -100 q 467 -205 476 -161 q 425 -281 458 -252 q 333 -325 391 -311 q 191 -338 275 -338 z "},"Ŝ":{"ha":783,"x_min":30,"x_max":795,"o":"m 368 -11 q 207 22 279 -11 q 89 109 135 55 q 30 227 43 163 l 224 304 q 251 236 229 268 q 306 185 273 205 q 380 165 340 165 q 447 183 417 165 q 495 230 477 201 q 513 295 513 260 q 488 367 513 338 q 421 419 462 396 q 334 465 380 441 q 248 520 289 488 q 181 599 207 552 q 155 717 155 646 q 198 871 155 806 q 315 974 241 937 q 482 1010 389 1010 q 629 983 564 1010 q 734 911 693 956 q 787 810 776 865 l 602 736 q 579 783 596 760 q 536 820 563 805 q 472 834 509 834 q 409 820 436 834 q 366 780 381 805 q 350 724 350 755 q 376 655 350 683 q 443 604 401 627 q 529 558 484 582 q 615 502 574 534 q 682 422 656 470 q 708 302 708 374 q 664 140 708 211 q 543 30 620 70 q 368 -11 466 -11 m 361 1050 l 288 1139 l 551 1303 l 590 1303 l 795 1139 l 702 1050 l 557 1178 l 551 1178 l 361 1050 z "},"Ș":{"ha":783,"x_min":30,"x_max":787,"o":"m 368 -11 q 207 22 279 -11 q 89 109 135 55 q 30 227 43 163 l 224 304 q 251 236 229 268 q 306 185 273 205 q 380 165 340 165 q 447 183 417 165 q 495 230 477 201 q 513 295 513 260 q 488 367 513 338 q 421 419 462 396 q 334 465 380 441 q 248 520 289 488 q 181 599 207 552 q 155 717 155 646 q 198 871 155 806 q 315 974 241 937 q 482 1010 389 1010 q 629 983 564 1010 q 734 911 693 956 q 787 810 776 865 l 602 736 q 579 783 596 760 q 536 820 563 805 q 472 834 509 834 q 409 820 436 834 q 366 780 381 805 q 350 724 350 755 q 376 655 350 683 q 443 604 401 627 q 529 558 484 582 q 615 502 574 534 q 682 422 656 470 q 708 302 708 374 q 664 140 708 211 q 543 30 620 70 q 368 -11 466 -11 m 201 -387 l 168 -335 l 248 -286 q 278 -267 260 -278 q 310 -238 296 -256 q 323 -197 323 -221 l 338 -197 q 330 -228 340 -211 q 293 -244 319 -244 q 236 -219 263 -244 q 208 -158 208 -195 q 234 -100 208 -124 q 294 -77 259 -77 q 358 -102 330 -77 q 386 -178 386 -128 q 356 -271 386 -236 q 288 -330 327 -305 l 201 -387 z "},"Ṡ":{"ha":783,"x_min":30,"x_max":787,"o":"m 368 -11 q 207 22 279 -11 q 89 109 135 55 q 30 227 43 163 l 224 304 q 251 236 229 268 q 306 185 273 205 q 380 165 340 165 q 447 183 417 165 q 495 230 477 201 q 513 295 513 260 q 488 367 513 338 q 421 419 462 396 q 334 465 380 441 q 248 520 289 488 q 181 599 207 552 q 155 717 155 646 q 198 871 155 806 q 315 974 241 937 q 482 1010 389 1010 q 629 983 564 1010 q 734 911 693 956 q 787 810 776 865 l 602 736 q 579 783 596 760 q 536 820 563 805 q 472 834 509 834 q 409 820 436 834 q 366 780 381 805 q 350 724 350 755 q 376 655 350 683 q 443 604 401 627 q 529 558 484 582 q 615 502 574 534 q 682 422 656 470 q 708 302 708 374 q 664 140 708 211 q 543 30 620 70 q 368 -11 466 -11 m 557 1063 q 472 1098 507 1063 q 438 1182 438 1133 q 472 1266 438 1232 q 557 1301 507 1301 q 642 1266 607 1301 q 676 1182 676 1232 q 642 1098 676 1133 q 557 1063 607 1063 z "},"Ṣ":{"ha":783,"x_min":30,"x_max":787,"o":"m 368 -11 q 207 22 279 -11 q 89 109 135 55 q 30 227 43 163 l 224 304 q 251 236 229 268 q 306 185 273 205 q 380 165 340 165 q 447 183 417 165 q 495 230 477 201 q 513 295 513 260 q 488 367 513 338 q 421 419 462 396 q 334 465 380 441 q 248 520 289 488 q 181 599 207 552 q 155 717 155 646 q 198 871 155 806 q 315 974 241 937 q 482 1010 389 1010 q 629 983 564 1010 q 734 911 693 956 q 787 810 776 865 l 602 736 q 579 783 596 760 q 536 820 563 805 q 472 834 509 834 q 409 820 436 834 q 366 780 381 805 q 350 724 350 755 q 376 655 350 683 q 443 604 401 627 q 529 558 484 582 q 615 502 574 534 q 682 422 656 470 q 708 302 708 374 q 664 140 708 211 q 543 30 620 70 q 368 -11 466 -11 m 286 -317 q 201 -282 235 -317 q 167 -198 167 -248 q 201 -114 167 -148 q 286 -79 235 -79 q 370 -114 336 -79 q 405 -198 405 -148 q 370 -282 405 -248 q 286 -317 336 -317 z "},"Ṩ":{"ha":783,"x_min":30,"x_max":787,"o":"m 368 -11 q 207 22 279 -11 q 89 109 135 55 q 30 227 43 163 l 224 304 q 251 236 229 268 q 306 185 273 205 q 380 165 340 165 q 447 183 417 165 q 495 230 477 201 q 513 295 513 260 q 488 367 513 338 q 421 419 462 396 q 334 465 380 441 q 248 520 289 488 q 181 599 207 552 q 155 717 155 646 q 198 871 155 806 q 315 974 241 937 q 482 1010 389 1010 q 629 983 564 1010 q 734 911 693 956 q 787 810 776 865 l 602 736 q 579 783 596 760 q 536 820 563 805 q 472 834 509 834 q 409 820 436 834 q 366 780 381 805 q 350 724 350 755 q 376 655 350 683 q 443 604 401 627 q 529 558 484 582 q 615 502 574 534 q 682 422 656 470 q 708 302 708 374 q 664 140 708 211 q 543 30 620 70 q 368 -11 466 -11 m 301 -317 q 216 -282 250 -317 q 182 -198 182 -248 q 216 -114 182 -148 q 300 -79 250 -79 q 385 -114 351 -79 q 420 -198 420 -148 q 385 -282 420 -248 q 301 -317 351 -317 m 572 1064 q 487 1099 521 1064 q 452 1183 452 1133 q 487 1267 452 1233 q 571 1301 521 1301 q 656 1267 621 1301 q 690 1183 690 1233 q 656 1099 690 1133 q 572 1064 621 1064 z "},"ẞ":{"ha":949,"x_min":23,"x_max":916,"o":"m 485 -12 q 415 -6 447 -12 q 363 4 382 -1 l 395 169 q 448 159 427 162 q 488 156 468 156 q 573 169 534 156 q 641 205 612 182 q 686 261 670 229 q 701 329 701 292 q 682 397 701 371 q 635 437 663 423 q 579 456 607 451 q 533 461 551 461 l 486 461 l 492 498 l 690 867 l 694 820 q 648 834 675 829 q 588 840 622 840 q 501 829 540 840 q 432 799 462 819 q 384 749 403 779 q 357 680 366 719 l 221 0 l 23 0 l 168 720 q 211 836 180 783 q 294 928 243 888 q 418 989 345 967 q 586 1010 491 1010 q 772 990 683 1010 q 914 939 861 969 l 916 921 l 690 506 l 628 581 q 773 553 714 583 q 862 470 832 524 q 892 344 892 416 q 861 203 892 268 q 773 91 829 139 q 644 15 718 42 q 485 -12 570 -12 z "},"T":{"ha":742,"x_min":129,"x_max":832,"o":"m 199 0 l 368 854 l 566 854 l 397 0 l 199 0 m 129 825 l 163 1000 l 832 1000 l 798 825 l 129 825 z "},"Ŧ":{"ha":742,"x_min":129,"x_max":832,"o":"m 199 0 l 368 854 l 566 854 l 397 0 l 199 0 m 129 825 l 163 1000 l 832 1000 l 798 825 l 129 825 m 165 414 l 187 519 l 611 519 l 588 414 l 165 414 z "},"Ť":{"ha":742,"x_min":129,"x_max":832,"o":"m 199 0 l 368 854 l 566 854 l 397 0 l 199 0 m 129 825 l 163 1000 l 832 1000 l 798 825 l 129 825 m 485 1050 l 280 1215 l 373 1303 l 518 1177 l 524 1177 l 714 1303 l 789 1215 l 524 1050 l 485 1050 z "},"Ţ":{"ha":742,"x_min":111,"x_max":832,"o":"m 199 0 l 368 854 l 566 854 l 397 0 l 199 0 m 129 825 l 163 1000 l 832 1000 l 798 825 l 129 825 m 111 -338 l 120 -244 q 232 -227 191 -246 q 278 -180 273 -208 q 261 -147 283 -158 q 188 -132 239 -136 l 253 0 l 342 0 l 280 -111 l 273 -66 q 337 -83 308 -67 q 381 -130 366 -100 q 387 -205 395 -161 q 344 -281 378 -252 q 253 -325 311 -311 q 111 -338 195 -338 z "},"Ț":{"ha":742,"x_min":129,"x_max":832,"o":"m 199 0 l 368 854 l 566 854 l 397 0 l 199 0 m 129 825 l 163 1000 l 832 1000 l 798 825 l 129 825 m 173 -387 l 140 -335 l 219 -286 q 249 -267 231 -278 q 281 -238 267 -256 q 294 -197 295 -221 l 310 -197 q 301 -228 312 -211 q 264 -244 291 -244 q 207 -219 235 -244 q 180 -158 180 -195 q 205 -100 180 -124 q 266 -77 231 -77 q 329 -102 301 -77 q 357 -178 357 -128 q 328 -271 357 -236 q 259 -330 298 -305 l 173 -387 z "},"Ṭ":{"ha":742,"x_min":129,"x_max":832,"o":"m 199 0 l 368 854 l 566 854 l 397 0 l 199 0 m 129 825 l 163 1000 l 832 1000 l 798 825 l 129 825 m 258 -317 q 173 -282 207 -317 q 138 -198 138 -248 q 173 -114 138 -148 q 257 -79 207 -79 q 342 -114 307 -79 q 376 -198 376 -148 q 342 -282 376 -248 q 258 -317 307 -317 z "},"Ṯ":{"ha":742,"x_min":-34,"x_max":832,"o":"m 199 0 l 368 854 l 566 854 l 397 0 l 199 0 m 129 825 l 163 1000 l 832 1000 l 798 825 l 129 825 m -35 -278 l -11 -162 l 541 -162 l 517 -278 l -35 -278 z "},"U":{"ha":960,"x_min":85,"x_max":981,"o":"m 439 -11 q 240 40 323 -11 q 122 180 158 90 q 109 388 85 270 l 231 1000 l 429 1000 l 301 357 q 304 253 289 296 q 357 186 320 210 q 448 163 395 163 q 586 221 531 163 q 659 373 640 279 l 784 1000 l 981 1000 l 856 365 q 714 88 821 187 q 439 -11 608 -11 z "},"Ú":{"ha":960,"x_min":85,"x_max":981,"o":"m 439 -11 q 240 40 323 -11 q 122 180 158 90 q 109 388 85 270 l 231 1000 l 429 1000 l 301 357 q 304 253 289 296 q 357 186 320 210 q 448 163 395 163 q 586 221 531 163 q 659 373 640 279 l 784 1000 l 981 1000 l 856 365 q 714 88 821 187 q 439 -11 608 -11 m 625 1048 l 528 1128 l 713 1333 l 827 1217 l 625 1048 z "},"Ŭ":{"ha":960,"x_min":85,"x_max":981,"o":"m 439 -11 q 240 40 323 -11 q 122 180 158 90 q 109 388 85 270 l 231 1000 l 429 1000 l 301 357 q 304 253 289 296 q 357 186 320 210 q 448 163 395 163 q 586 221 531 163 q 659 373 640 279 l 784 1000 l 981 1000 l 856 365 q 714 88 821 187 q 439 -11 608 -11 m 622 1061 q 499 1088 552 1061 q 423 1164 447 1115 q 412 1278 399 1213 l 522 1261 q 529 1204 515 1225 q 571 1173 543 1182 q 630 1163 598 1163 q 737 1194 690 1163 q 795 1278 785 1224 l 907 1261 q 850 1150 895 1194 q 745 1083 806 1105 q 622 1061 684 1061 z "},"Û":{"ha":960,"x_min":85,"x_max":981,"o":"m 439 -11 q 240 40 323 -11 q 122 180 158 90 q 109 388 85 270 l 231 1000 l 429 1000 l 301 357 q 304 253 289 296 q 357 186 320 210 q 448 163 395 163 q 586 221 531 163 q 659 373 640 279 l 784 1000 l 981 1000 l 856 365 q 714 88 821 187 q 439 -11 608 -11 m 453 1050 l 379 1139 l 643 1303 l 682 1303 l 886 1139 l 793 1050 l 649 1178 l 643 1178 l 453 1050 z "},"Ȕ":{"ha":960,"x_min":85,"x_max":981,"o":"m 439 -11 q 240 40 323 -11 q 122 180 158 90 q 109 388 85 270 l 231 1000 l 429 1000 l 301 357 q 304 253 289 296 q 357 186 320 210 q 448 163 395 163 q 586 221 531 163 q 659 373 640 279 l 784 1000 l 981 1000 l 856 365 q 714 88 821 187 q 439 -11 608 -11 m 449 1063 l 321 1281 l 455 1350 l 550 1109 l 449 1063 m 706 1063 l 581 1281 l 715 1350 l 808 1109 l 706 1063 z "},"Ü":{"ha":960,"x_min":85,"x_max":981,"o":"m 439 -11 q 240 40 323 -11 q 122 180 158 90 q 109 388 85 270 l 231 1000 l 429 1000 l 301 357 q 304 253 289 296 q 357 186 320 210 q 448 163 395 163 q 586 221 531 163 q 659 373 640 279 l 784 1000 l 981 1000 l 856 365 q 714 88 821 187 q 439 -11 608 -11 m 804 1055 q 723 1087 756 1055 q 690 1167 690 1120 q 721 1244 690 1213 q 798 1274 751 1274 q 875 1244 842 1274 q 909 1163 907 1213 q 879 1085 909 1115 q 804 1055 848 1055 m 481 1055 q 401 1087 434 1055 q 369 1167 369 1120 q 399 1243 369 1213 q 473 1274 429 1274 q 554 1241 522 1274 q 586 1160 586 1208 q 556 1086 586 1116 q 481 1055 526 1055 z "},"Ụ":{"ha":960,"x_min":85,"x_max":981,"o":"m 439 -11 q 240 40 323 -11 q 122 180 158 90 q 109 388 85 270 l 231 1000 l 429 1000 l 301 357 q 304 253 289 296 q 357 186 320 210 q 448 163 395 163 q 586 221 531 163 q 659 373 640 279 l 784 1000 l 981 1000 l 856 365 q 714 88 821 187 q 439 -11 608 -11 m 413 -317 q 328 -282 362 -317 q 294 -198 294 -248 q 328 -114 294 -148 q 412 -79 362 -79 q 497 -114 463 -79 q 532 -198 532 -148 q 497 -282 532 -248 q 413 -317 463 -317 z "},"Ù":{"ha":960,"x_min":85,"x_max":981,"o":"m 439 -11 q 240 40 323 -11 q 122 180 158 90 q 109 388 85 270 l 231 1000 l 429 1000 l 301 357 q 304 253 289 296 q 357 186 320 210 q 448 163 395 163 q 586 221 531 163 q 659 373 640 279 l 784 1000 l 981 1000 l 856 365 q 714 88 821 187 q 439 -11 608 -11 m 616 1048 l 406 1217 l 513 1333 l 709 1128 l 616 1048 z "},"Ủ":{"ha":960,"x_min":85,"x_max":981,"o":"m 439 -11 q 240 40 323 -11 q 122 180 158 90 q 109 388 85 270 l 231 1000 l 429 1000 l 301 357 q 304 253 289 296 q 357 186 320 210 q 448 163 395 163 q 586 221 531 163 q 659 373 640 279 l 784 1000 l 981 1000 l 856 365 q 714 88 821 187 q 439 -11 608 -11 m 643 1055 l 585 1129 q 631 1162 614 1144 q 654 1200 649 1180 q 647 1228 659 1218 q 602 1238 635 1238 q 556 1234 581 1238 q 512 1224 531 1230 l 527 1341 q 568 1349 547 1346 q 614 1352 589 1352 q 743 1314 705 1352 q 768 1213 781 1275 q 723 1121 758 1161 q 643 1055 688 1082 z "},"Ư":{"ha":1010,"x_min":85,"x_max":1237,"o":"m 439 -11 q 240 40 323 -11 q 122 180 158 90 q 109 388 85 270 l 231 1000 l 429 1000 l 301 357 q 304 253 289 296 q 357 186 320 210 q 448 163 395 163 q 586 221 531 163 q 659 373 640 279 l 784 1000 l 981 1000 l 856 365 q 714 88 821 187 q 439 -11 608 -11 m 905 873 l 918 1000 q 1035 1037 991 1000 q 1093 1147 1078 1075 q 1096 1176 1095 1159 q 1097 1210 1097 1194 l 1233 1216 q 1235 1162 1237 1193 q 1226 1103 1232 1132 q 1184 1007 1216 1050 q 1108 932 1153 963 q 1010 886 1063 901 q 905 873 957 870 z "},"Ứ":{"ha":1010,"x_min":85,"x_max":1237,"o":"m 439 -11 q 240 40 323 -11 q 122 180 158 90 q 109 388 85 270 l 231 1000 l 429 1000 l 301 357 q 304 253 289 296 q 357 186 320 210 q 448 163 395 163 q 586 221 531 163 q 659 373 640 279 l 784 1000 l 981 1000 l 856 365 q 714 88 821 187 q 439 -11 608 -11 m 905 873 l 918 1000 q 1035 1037 991 1000 q 1093 1147 1078 1075 q 1096 1176 1095 1159 q 1097 1210 1097 1194 l 1233 1216 q 1235 1162 1237 1193 q 1226 1103 1232 1132 q 1184 1007 1216 1050 q 1108 932 1153 963 q 1010 886 1063 901 q 905 873 957 870 m 625 1048 l 528 1128 l 713 1333 l 827 1217 l 625 1048 z "},"Ự":{"ha":1010,"x_min":85,"x_max":1237,"o":"m 439 -11 q 240 40 323 -11 q 122 180 158 90 q 109 388 85 270 l 231 1000 l 429 1000 l 301 357 q 304 253 289 296 q 357 186 320 210 q 448 163 395 163 q 586 221 531 163 q 659 373 640 279 l 784 1000 l 981 1000 l 856 365 q 714 88 821 187 q 439 -11 608 -11 m 905 873 l 918 1000 q 1035 1037 991 1000 q 1093 1147 1078 1075 q 1096 1176 1095 1159 q 1097 1210 1097 1194 l 1233 1216 q 1235 1162 1237 1193 q 1226 1103 1232 1132 q 1184 1007 1216 1050 q 1108 932 1153 963 q 1010 886 1063 901 q 905 873 957 870 m 413 -317 q 328 -282 362 -317 q 294 -198 294 -248 q 328 -114 294 -148 q 412 -79 362 -79 q 497 -114 463 -79 q 532 -198 532 -148 q 497 -282 532 -248 q 413 -317 463 -317 z "},"Ừ":{"ha":1010,"x_min":85,"x_max":1237,"o":"m 439 -11 q 240 40 323 -11 q 122 180 158 90 q 109 388 85 270 l 231 1000 l 429 1000 l 301 357 q 304 253 289 296 q 357 186 320 210 q 448 163 395 163 q 586 221 531 163 q 659 373 640 279 l 784 1000 l 981 1000 l 856 365 q 714 88 821 187 q 439 -11 608 -11 m 905 873 l 918 1000 q 1035 1037 991 1000 q 1093 1147 1078 1075 q 1096 1176 1095 1159 q 1097 1210 1097 1194 l 1233 1216 q 1235 1162 1237 1193 q 1226 1103 1232 1132 q 1184 1007 1216 1050 q 1108 932 1153 963 q 1010 886 1063 901 q 905 873 957 870 m 616 1048 l 406 1217 l 513 1333 l 709 1128 l 616 1048 z "},"Ử":{"ha":1010,"x_min":85,"x_max":1237,"o":"m 439 -11 q 240 40 323 -11 q 122 180 158 90 q 109 388 85 270 l 231 1000 l 429 1000 l 301 357 q 304 253 289 296 q 357 186 320 210 q 448 163 395 163 q 586 221 531 163 q 659 373 640 279 l 784 1000 l 981 1000 l 856 365 q 714 88 821 187 q 439 -11 608 -11 m 905 873 l 918 1000 q 1035 1037 991 1000 q 1093 1147 1078 1075 q 1096 1176 1095 1159 q 1097 1210 1097 1194 l 1233 1216 q 1235 1162 1237 1193 q 1226 1103 1232 1132 q 1184 1007 1216 1050 q 1108 932 1153 963 q 1010 886 1063 901 q 905 873 957 870 m 643 1055 l 585 1129 q 631 1162 614 1144 q 654 1200 649 1180 q 647 1228 659 1218 q 602 1238 635 1238 q 556 1234 581 1238 q 512 1224 531 1230 l 527 1341 q 568 1349 547 1346 q 614 1352 589 1352 q 743 1314 705 1352 q 768 1213 781 1275 q 723 1121 758 1161 q 643 1055 688 1082 z "},"Ữ":{"ha":1010,"x_min":85,"x_max":1237,"o":"m 439 -11 q 240 40 323 -11 q 122 180 158 90 q 109 388 85 270 l 231 1000 l 429 1000 l 301 357 q 304 253 289 296 q 357 186 320 210 q 448 163 395 163 q 586 221 531 163 q 659 373 640 279 l 784 1000 l 981 1000 l 856 365 q 714 88 821 187 q 439 -11 608 -11 m 905 873 l 918 1000 q 1035 1037 991 1000 q 1093 1147 1078 1075 q 1096 1176 1095 1159 q 1097 1210 1097 1194 l 1233 1216 q 1235 1162 1237 1193 q 1226 1103 1232 1132 q 1184 1007 1216 1050 q 1108 932 1153 963 q 1010 886 1063 901 q 905 873 957 870 m 482 1059 l 372 1077 q 436 1211 389 1161 q 551 1261 484 1261 q 615 1250 591 1261 q 654 1222 640 1238 q 681 1195 669 1206 q 711 1183 694 1183 q 765 1210 741 1183 q 795 1271 789 1236 l 907 1253 q 842 1120 890 1171 q 723 1069 793 1069 q 662 1081 684 1069 q 624 1109 639 1093 q 595 1137 609 1125 q 562 1149 582 1149 q 513 1124 535 1149 q 482 1059 491 1099 z "},"Ű":{"ha":960,"x_min":85,"x_max":1000,"o":"m 439 -11 q 240 40 323 -11 q 122 180 158 90 q 109 388 85 270 l 231 1000 l 429 1000 l 301 357 q 304 253 289 296 q 357 186 320 210 q 448 163 395 163 q 586 221 531 163 q 659 373 640 279 l 784 1000 l 981 1000 l 856 365 q 714 88 821 187 q 439 -11 608 -11 m 532 1063 l 443 1109 l 631 1350 l 743 1281 l 532 1063 m 791 1063 l 703 1109 l 886 1350 l 1000 1281 l 791 1063 z "},"Ȗ":{"ha":960,"x_min":85,"x_max":981,"o":"m 439 -11 q 240 40 323 -11 q 122 180 158 90 q 109 388 85 270 l 231 1000 l 429 1000 l 301 357 q 304 253 289 296 q 357 186 320 210 q 448 163 395 163 q 586 221 531 163 q 659 373 640 279 l 784 1000 l 981 1000 l 856 365 q 714 88 821 187 q 439 -11 608 -11 m 863 1046 l 751 1064 q 729 1137 760 1105 q 637 1168 698 1168 q 534 1137 576 1168 q 480 1054 492 1106 l 369 1072 q 424 1184 382 1140 q 525 1250 467 1228 q 644 1272 584 1272 q 771 1243 717 1272 q 851 1162 825 1213 q 863 1046 877 1111 z "},"Ū":{"ha":960,"x_min":85,"x_max":981,"o":"m 439 -11 q 240 40 323 -11 q 122 180 158 90 q 109 388 85 270 l 231 1000 l 429 1000 l 301 357 q 304 253 289 296 q 357 186 320 210 q 448 163 395 163 q 586 221 531 163 q 659 373 640 279 l 784 1000 l 981 1000 l 856 365 q 714 88 821 187 q 439 -11 608 -11 m 361 1101 l 385 1225 l 913 1225 l 890 1101 l 361 1101 z "},"Ṻ":{"ha":960,"x_min":85,"x_max":981,"o":"m 439 -11 q 240 40 323 -11 q 122 180 158 90 q 109 388 85 270 l 231 1000 l 429 1000 l 301 357 q 304 253 289 296 q 357 186 320 210 q 448 163 395 163 q 586 221 531 163 q 659 373 640 279 l 784 1000 l 981 1000 l 856 365 q 714 88 821 187 q 439 -11 608 -11 m 361 1101 l 385 1225 l 913 1225 l 890 1101 l 361 1101 m 848 1282 q 767 1314 800 1282 q 734 1394 734 1346 q 765 1470 734 1440 q 842 1501 795 1501 q 919 1470 886 1501 q 953 1390 951 1440 q 923 1312 954 1341 q 848 1282 892 1282 m 525 1282 q 446 1314 478 1282 q 413 1394 413 1346 q 443 1470 413 1439 q 517 1501 473 1501 q 598 1468 566 1501 q 630 1387 630 1434 q 600 1312 630 1343 q 525 1282 570 1282 z "},"Ų":{"ha":960,"x_min":85,"x_max":981,"o":"m 439 -11 q 240 40 323 -11 q 122 180 158 90 q 109 388 85 270 l 231 1000 l 429 1000 l 301 357 q 304 253 289 296 q 357 186 320 210 q 448 163 395 163 q 586 221 531 163 q 659 373 640 279 l 784 1000 l 981 1000 l 856 365 q 714 88 821 187 q 439 -11 608 -11 m 379 -288 q 275 -245 309 -288 q 253 -140 240 -203 q 311 -47 264 -87 q 431 35 358 -6 l 526 0 q 457 -45 492 -21 q 399 -92 423 -68 q 370 -138 374 -115 q 376 -168 366 -157 q 413 -180 387 -180 q 462 -172 437 -180 q 499 -157 487 -163 l 485 -271 q 431 -283 464 -279 q 379 -288 399 -288 z "},"Ů":{"ha":960,"x_min":85,"x_max":981,"o":"m 439 -11 q 240 40 323 -11 q 122 180 158 90 q 109 388 85 270 l 231 1000 l 429 1000 l 301 357 q 304 253 289 296 q 357 186 320 210 q 448 163 395 163 q 586 221 531 163 q 659 373 640 279 l 784 1000 l 981 1000 l 856 365 q 714 88 821 187 q 439 -11 608 -11 m 624 1044 q 534 1068 573 1044 q 478 1135 496 1092 q 471 1235 460 1178 q 543 1351 485 1305 q 675 1396 601 1396 q 767 1369 730 1396 q 821 1299 804 1343 q 826 1202 837 1255 q 788 1121 817 1157 q 716 1064 758 1085 q 624 1044 673 1044 m 624 1146 q 688 1173 659 1146 q 724 1237 717 1199 q 716 1275 730 1259 q 672 1291 703 1291 q 610 1265 637 1291 q 572 1200 582 1239 q 582 1162 567 1177 q 624 1146 597 1146 z "},"Ũ":{"ha":960,"x_min":85,"x_max":981,"o":"m 439 -11 q 240 40 323 -11 q 122 180 158 90 q 109 388 85 270 l 231 1000 l 429 1000 l 301 357 q 304 253 289 296 q 357 186 320 210 q 448 163 395 163 q 586 221 531 163 q 659 373 640 279 l 784 1000 l 981 1000 l 856 365 q 714 88 821 187 q 439 -11 608 -11 m 482 1059 l 372 1077 q 436 1211 389 1161 q 551 1261 484 1261 q 615 1250 591 1261 q 654 1222 640 1238 q 681 1195 669 1206 q 711 1183 694 1183 q 765 1210 741 1183 q 795 1271 789 1236 l 907 1253 q 842 1120 890 1171 q 723 1069 793 1069 q 662 1081 684 1069 q 624 1109 639 1093 q 595 1137 609 1125 q 562 1149 582 1149 q 513 1124 535 1149 q 482 1059 491 1099 z "},"Ṹ":{"ha":960,"x_min":85,"x_max":981,"o":"m 439 -11 q 240 40 323 -11 q 122 180 158 90 q 109 388 85 270 l 231 1000 l 429 1000 l 301 357 q 304 253 289 296 q 357 186 320 210 q 448 163 395 163 q 586 221 531 163 q 659 373 640 279 l 784 1000 l 981 1000 l 856 365 q 714 88 821 187 q 439 -11 608 -11 m 482 1059 l 372 1077 q 436 1211 389 1161 q 551 1261 484 1261 q 615 1250 591 1261 q 654 1222 640 1238 q 681 1195 669 1206 q 711 1183 694 1183 q 765 1210 741 1183 q 795 1271 789 1236 l 907 1253 q 842 1120 890 1171 q 723 1069 793 1069 q 662 1081 684 1069 q 624 1109 639 1093 q 595 1137 609 1125 q 562 1149 582 1149 q 513 1124 535 1149 q 482 1059 491 1099 m 677 1301 l 580 1381 l 765 1586 l 879 1470 l 677 1301 z "},"V":{"ha":979,"x_min":134,"x_max":1097,"o":"m 337 0 l 134 1000 l 341 1000 l 415 555 l 465 267 l 467 267 l 623 555 l 873 1000 l 1097 1000 l 501 0 l 337 0 z "},"W":{"ha":1343,"x_min":140,"x_max":1457,"o":"m 248 0 l 140 1000 l 336 1000 l 372 519 l 390 269 l 395 269 l 720 890 l 798 890 l 919 269 l 924 269 l 1031 519 l 1248 1000 l 1457 1000 l 985 0 l 825 0 l 704 514 l 699 514 l 410 0 l 248 0 z "},"Ẃ":{"ha":1343,"x_min":140,"x_max":1457,"o":"m 248 0 l 140 1000 l 336 1000 l 372 519 l 390 269 l 395 269 l 720 890 l 798 890 l 919 269 l 924 269 l 1031 519 l 1248 1000 l 1457 1000 l 985 0 l 825 0 l 704 514 l 699 514 l 410 0 l 248 0 m 815 1048 l 718 1128 l 903 1333 l 1017 1217 l 815 1048 z "},"Ŵ":{"ha":1343,"x_min":140,"x_max":1457,"o":"m 248 0 l 140 1000 l 336 1000 l 372 519 l 390 269 l 395 269 l 720 890 l 798 890 l 919 269 l 924 269 l 1031 519 l 1248 1000 l 1457 1000 l 985 0 l 825 0 l 704 514 l 699 514 l 410 0 l 248 0 m 643 1050 l 569 1139 l 833 1303 l 871 1303 l 1076 1139 l 983 1050 l 839 1178 l 833 1178 l 643 1050 z "},"Ẅ":{"ha":1343,"x_min":140,"x_max":1457,"o":"m 248 0 l 140 1000 l 336 1000 l 372 519 l 390 269 l 395 269 l 720 890 l 798 890 l 919 269 l 924 269 l 1031 519 l 1248 1000 l 1457 1000 l 985 0 l 825 0 l 704 514 l 699 514 l 410 0 l 248 0 m 994 1055 q 913 1087 946 1055 q 880 1167 880 1120 q 911 1244 880 1213 q 987 1274 941 1274 q 1065 1244 1032 1274 q 1099 1163 1097 1213 q 1069 1085 1099 1115 q 994 1055 1038 1055 m 671 1055 q 591 1087 624 1055 q 559 1167 559 1120 q 589 1243 559 1213 q 663 1274 618 1274 q 744 1241 711 1274 q 776 1160 776 1208 q 746 1086 776 1116 q 671 1055 716 1055 z "},"Ẁ":{"ha":1343,"x_min":140,"x_max":1457,"o":"m 248 0 l 140 1000 l 336 1000 l 372 519 l 390 269 l 395 269 l 720 890 l 798 890 l 919 269 l 924 269 l 1031 519 l 1248 1000 l 1457 1000 l 985 0 l 825 0 l 704 514 l 699 514 l 410 0 l 248 0 m 806 1048 l 596 1217 l 703 1333 l 899 1128 l 806 1048 z "},"X":{"ha":969,"x_min":-40,"x_max":1055,"o":"m 650 0 l 498 358 l 493 358 l 386 514 l 386 517 l 165 1000 l 379 1000 l 537 627 l 543 627 l 645 487 l 645 484 l 863 0 l 650 0 m -40 0 l 386 513 l 386 516 l 531 627 l 536 627 l 813 1000 l 1055 1000 l 645 488 l 645 486 l 499 358 l 495 358 l 213 0 l -40 0 z "},"Y":{"ha":884,"x_min":138,"x_max":1000,"o":"m 269 0 l 349 401 l 138 1000 l 345 1000 l 417 785 l 475 586 l 479 586 l 613 785 l 755 1000 l 1000 1000 l 545 390 l 467 0 l 269 0 z "},"Ý":{"ha":884,"x_min":138,"x_max":1000,"o":"m 269 0 l 349 401 l 138 1000 l 345 1000 l 417 785 l 475 586 l 479 586 l 613 785 l 755 1000 l 1000 1000 l 545 390 l 467 0 l 269 0 m 576 1048 l 478 1128 l 663 1333 l 777 1217 l 576 1048 z "},"Ŷ":{"ha":884,"x_min":138,"x_max":1000,"o":"m 269 0 l 349 401 l 138 1000 l 345 1000 l 417 785 l 475 586 l 479 586 l 613 785 l 755 1000 l 1000 1000 l 545 390 l 467 0 l 269 0 m 404 1050 l 330 1139 l 593 1303 l 632 1303 l 837 1139 l 744 1050 l 600 1178 l 593 1178 l 404 1050 z "},"Ÿ":{"ha":884,"x_min":138,"x_max":1000,"o":"m 269 0 l 349 401 l 138 1000 l 345 1000 l 417 785 l 475 586 l 479 586 l 613 785 l 755 1000 l 1000 1000 l 545 390 l 467 0 l 269 0 m 754 1055 q 673 1087 706 1055 q 640 1167 640 1120 q 671 1244 640 1213 q 747 1274 701 1274 q 825 1244 792 1274 q 859 1163 857 1213 q 829 1085 859 1115 q 754 1055 798 1055 m 431 1055 q 351 1087 384 1055 q 319 1167 319 1120 q 349 1243 319 1213 q 423 1274 378 1274 q 504 1241 471 1274 q 536 1160 536 1208 q 506 1086 536 1116 q 431 1055 476 1055 z "},"Ẏ":{"ha":884,"x_min":138,"x_max":1000,"o":"m 269 0 l 349 401 l 138 1000 l 345 1000 l 417 785 l 475 586 l 479 586 l 613 785 l 755 1000 l 1000 1000 l 545 390 l 467 0 l 269 0 m 600 1063 q 514 1098 549 1063 q 480 1182 480 1133 q 514 1266 480 1232 q 599 1301 549 1301 q 684 1266 649 1301 q 718 1182 718 1232 q 684 1098 718 1133 q 600 1063 649 1063 z "},"Ỵ":{"ha":884,"x_min":138,"x_max":1000,"o":"m 269 0 l 349 401 l 138 1000 l 345 1000 l 417 785 l 475 586 l 479 586 l 613 785 l 755 1000 l 1000 1000 l 545 390 l 467 0 l 269 0 m 344 -317 q 259 -282 293 -317 q 224 -198 224 -248 q 259 -114 224 -148 q 343 -79 293 -79 q 428 -114 393 -79 q 463 -198 463 -148 q 428 -282 463 -248 q 344 -317 393 -317 z "},"Ỳ":{"ha":884,"x_min":138,"x_max":1000,"o":"m 269 0 l 349 401 l 138 1000 l 345 1000 l 417 785 l 475 586 l 479 586 l 613 785 l 755 1000 l 1000 1000 l 545 390 l 467 0 l 269 0 m 566 1048 l 356 1217 l 463 1333 l 659 1128 l 566 1048 z "},"Ỷ":{"ha":884,"x_min":138,"x_max":1000,"o":"m 269 0 l 349 401 l 138 1000 l 345 1000 l 417 785 l 475 586 l 479 586 l 613 785 l 755 1000 l 1000 1000 l 545 390 l 467 0 l 269 0 m 593 1055 l 535 1129 q 581 1162 564 1144 q 604 1200 599 1180 q 596 1228 608 1218 q 552 1238 585 1238 q 506 1234 530 1238 q 462 1224 481 1230 l 477 1341 q 517 1349 496 1346 q 564 1352 538 1352 q 693 1314 655 1352 q 718 1213 731 1275 q 673 1121 708 1161 q 593 1055 638 1082 z "},"Ȳ":{"ha":884,"x_min":138,"x_max":1000,"o":"m 269 0 l 349 401 l 138 1000 l 345 1000 l 417 785 l 475 586 l 479 586 l 613 785 l 755 1000 l 1000 1000 l 545 390 l 467 0 l 269 0 m 311 1101 l 334 1225 l 863 1225 l 840 1101 l 311 1101 z "},"Ỹ":{"ha":884,"x_min":138,"x_max":1000,"o":"m 269 0 l 349 401 l 138 1000 l 345 1000 l 417 785 l 475 586 l 479 586 l 613 785 l 755 1000 l 1000 1000 l 545 390 l 467 0 l 269 0 m 432 1059 l 321 1077 q 386 1211 339 1161 q 500 1261 433 1261 q 565 1250 541 1261 q 604 1222 589 1238 q 631 1195 618 1206 q 661 1183 644 1183 q 715 1210 691 1183 q 745 1271 739 1236 l 857 1253 q 792 1120 840 1171 q 673 1069 743 1069 q 611 1081 634 1069 q 574 1109 589 1093 q 545 1137 559 1125 q 512 1149 532 1149 q 463 1124 485 1149 q 432 1059 441 1099 z "},"Z":{"ha":832,"x_min":-17,"x_max":888,"o":"m -17 0 l -11 32 l 560 824 l 560 828 l 171 828 l 205 1000 l 888 1000 l 881 966 l 309 176 l 309 172 l 739 172 l 704 0 l -17 0 z "},"Ź":{"ha":832,"x_min":-17,"x_max":888,"o":"m -17 0 l -11 32 l 560 824 l 560 828 l 171 828 l 205 1000 l 888 1000 l 881 966 l 309 176 l 309 172 l 739 172 l 704 0 l -17 0 m 568 1048 l 471 1128 l 656 1333 l 770 1217 l 568 1048 z "},"Ž":{"ha":832,"x_min":-17,"x_max":888,"o":"m -17 0 l -11 32 l 560 824 l 560 828 l 171 828 l 205 1000 l 888 1000 l 881 966 l 309 176 l 309 172 l 739 172 l 704 0 l -17 0 m 534 1050 l 329 1215 l 422 1303 l 567 1177 l 573 1177 l 763 1303 l 838 1215 l 573 1050 l 534 1050 z "},"Ż":{"ha":832,"x_min":-17,"x_max":888,"o":"m -17 0 l -11 32 l 560 824 l 560 828 l 171 828 l 205 1000 l 888 1000 l 881 966 l 309 176 l 309 172 l 739 172 l 704 0 l -17 0 m 591 1063 q 506 1098 541 1063 q 472 1182 472 1133 q 506 1266 472 1232 q 591 1301 541 1301 q 675 1266 641 1301 q 710 1182 710 1232 q 675 1098 710 1133 q 591 1063 641 1063 z "},"Ẓ":{"ha":832,"x_min":-17,"x_max":888,"o":"m -17 0 l -11 32 l 560 824 l 560 828 l 171 828 l 205 1000 l 888 1000 l 881 966 l 309 176 l 309 172 l 739 172 l 704 0 l -17 0 m 308 -317 q 223 -282 257 -317 q 189 -198 189 -248 q 223 -114 189 -148 q 307 -79 257 -79 q 392 -114 357 -79 q 427 -198 427 -148 q 392 -282 427 -248 q 308 -317 357 -317 z "},"a":{"ha":823,"x_min":45,"x_max":798,"o":"m 305 -11 q 170 26 229 -11 q 78 133 111 64 q 45 296 45 202 q 70 459 45 380 q 142 601 96 538 q 253 700 188 663 q 397 737 317 737 q 530 700 475 737 q 611 597 585 662 l 513 623 l 676 623 l 589 563 l 622 726 l 798 726 l 698 233 q 696 177 691 198 q 730 146 701 155 l 666 -11 q 586 21 621 -1 q 531 71 551 42 q 514 134 511 100 l 603 91 l 434 91 l 559 147 q 449 30 513 71 q 305 -11 385 -11 m 358 150 q 439 173 402 150 q 503 233 476 195 q 545 319 530 271 q 559 418 559 367 q 525 535 559 492 q 428 578 490 578 q 346 556 383 578 q 282 496 309 534 q 242 412 256 459 q 228 313 228 364 q 263 194 228 238 q 358 150 298 150 z "},"á":{"ha":823,"x_min":45,"x_max":798,"o":"m 305 -11 q 170 26 229 -11 q 78 133 111 64 q 45 296 45 202 q 70 459 45 380 q 142 601 96 538 q 253 700 188 663 q 397 737 317 737 q 530 700 475 737 q 611 597 585 662 l 513 623 l 676 623 l 589 563 l 622 726 l 798 726 l 698 233 q 696 177 691 198 q 730 146 701 155 l 666 -11 q 586 21 621 -1 q 531 71 551 42 q 514 134 511 100 l 603 91 l 434 91 l 559 147 q 449 30 513 71 q 305 -11 385 -11 m 358 150 q 439 173 402 150 q 503 233 476 195 q 545 319 530 271 q 559 418 559 367 q 525 535 559 492 q 428 578 490 578 q 346 556 383 578 q 282 496 309 534 q 242 412 256 459 q 228 313 228 364 q 263 194 228 238 q 358 150 298 150 m 498 788 l 410 858 l 606 1108 l 715 1006 l 498 788 z "},"ă":{"ha":823,"x_min":45,"x_max":798,"o":"m 305 -11 q 170 26 229 -11 q 78 133 111 64 q 45 296 45 202 q 70 459 45 380 q 142 601 96 538 q 253 700 188 663 q 397 737 317 737 q 530 700 475 737 q 611 597 585 662 l 513 623 l 676 623 l 589 563 l 622 726 l 798 726 l 698 233 q 696 177 691 198 q 730 146 701 155 l 666 -11 q 586 21 621 -1 q 531 71 551 42 q 514 134 511 100 l 603 91 l 434 91 l 559 147 q 449 30 513 71 q 305 -11 385 -11 m 358 150 q 439 173 402 150 q 503 233 476 195 q 545 319 530 271 q 559 418 559 367 q 525 535 559 492 q 428 578 490 578 q 346 556 383 578 q 282 496 309 534 q 242 412 256 459 q 228 313 228 364 q 263 194 228 238 q 358 150 298 150 m 508 812 q 384 845 437 812 q 307 930 331 877 q 294 1046 282 984 l 408 1029 q 428 947 399 979 q 509 916 456 916 q 586 934 549 916 q 647 983 622 953 q 679 1046 673 1013 l 793 1029 q 739 917 781 966 q 636 840 696 868 q 508 812 576 812 z "},"ắ":{"ha":823,"x_min":45,"x_max":798,"o":"m 305 -11 q 170 26 229 -11 q 78 133 111 64 q 45 296 45 202 q 70 459 45 380 q 142 601 96 538 q 253 700 188 663 q 397 737 317 737 q 530 700 475 737 q 611 597 585 662 l 513 623 l 676 623 l 589 563 l 622 726 l 798 726 l 698 233 q 696 177 691 198 q 730 146 701 155 l 666 -11 q 586 21 621 -1 q 531 71 551 42 q 514 134 511 100 l 603 91 l 434 91 l 559 147 q 449 30 513 71 q 305 -11 385 -11 m 358 150 q 439 173 402 150 q 503 233 476 195 q 545 319 530 271 q 559 418 559 367 q 525 535 559 492 q 428 578 490 578 q 346 556 383 578 q 282 496 309 534 q 242 412 256 459 q 228 313 228 364 q 263 194 228 238 q 358 150 298 150 m 501 974 l 408 1042 l 559 1266 l 676 1167 l 501 974 m 484 812 q 360 838 415 812 q 279 911 306 863 q 264 1025 252 959 l 374 1015 q 383 958 368 981 q 426 924 398 935 q 487 912 454 912 q 588 944 544 912 q 642 1029 633 976 l 759 1019 q 705 907 746 953 q 607 837 665 861 q 484 812 549 812 z "},"ặ":{"ha":823,"x_min":45,"x_max":798,"o":"m 305 -11 q 170 26 229 -11 q 78 133 111 64 q 45 296 45 202 q 70 459 45 380 q 142 601 96 538 q 253 700 188 663 q 397 737 317 737 q 530 700 475 737 q 611 597 585 662 l 513 623 l 676 623 l 589 563 l 622 726 l 798 726 l 698 233 q 696 177 691 198 q 730 146 701 155 l 666 -11 q 586 21 621 -1 q 531 71 551 42 q 514 134 511 100 l 603 91 l 434 91 l 559 147 q 449 30 513 71 q 305 -11 385 -11 m 358 150 q 439 173 402 150 q 503 233 476 195 q 545 319 530 271 q 559 418 559 367 q 525 535 559 492 q 428 578 490 578 q 346 556 383 578 q 282 496 309 534 q 242 412 256 459 q 228 313 228 364 q 263 194 228 238 q 358 150 298 150 m 297 -317 q 212 -282 246 -317 q 178 -198 178 -248 q 212 -114 178 -148 q 296 -79 246 -79 q 381 -114 347 -79 q 416 -198 416 -148 q 381 -282 416 -248 q 297 -317 347 -317 m 508 812 q 384 845 437 812 q 307 930 331 877 q 294 1046 282 984 l 408 1029 q 428 947 399 979 q 509 916 456 916 q 586 934 549 916 q 647 983 622 953 q 679 1046 673 1013 l 793 1029 q 739 917 781 966 q 636 840 696 868 q 508 812 576 812 z "},"ằ":{"ha":823,"x_min":45,"x_max":798,"o":"m 305 -11 q 170 26 229 -11 q 78 133 111 64 q 45 296 45 202 q 70 459 45 380 q 142 601 96 538 q 253 700 188 663 q 397 737 317 737 q 530 700 475 737 q 611 597 585 662 l 513 623 l 676 623 l 589 563 l 622 726 l 798 726 l 698 233 q 696 177 691 198 q 730 146 701 155 l 666 -11 q 586 21 621 -1 q 531 71 551 42 q 514 134 511 100 l 603 91 l 434 91 l 559 147 q 449 30 513 71 q 305 -11 385 -11 m 358 150 q 439 173 402 150 q 503 233 476 195 q 545 319 530 271 q 559 418 559 367 q 525 535 559 492 q 428 578 490 578 q 346 556 383 578 q 282 496 309 534 q 242 412 256 459 q 228 313 228 364 q 263 194 228 238 q 358 150 298 150 m 522 979 l 308 1145 l 412 1259 l 603 1066 l 522 979 m 487 812 q 364 838 418 812 q 282 911 309 863 q 268 1025 255 959 l 378 1015 q 387 958 372 981 q 430 924 402 935 q 490 912 458 912 q 592 944 547 912 q 646 1029 636 976 l 762 1019 q 709 907 749 953 q 611 837 669 861 q 487 812 553 812 z "},"ẳ":{"ha":823,"x_min":45,"x_max":798,"o":"m 305 -11 q 170 26 229 -11 q 78 133 111 64 q 45 296 45 202 q 70 459 45 380 q 142 601 96 538 q 253 700 188 663 q 397 737 317 737 q 530 700 475 737 q 611 597 585 662 l 513 623 l 676 623 l 589 563 l 622 726 l 798 726 l 698 233 q 696 177 691 198 q 730 146 701 155 l 666 -11 q 586 21 621 -1 q 531 71 551 42 q 514 134 511 100 l 603 91 l 434 91 l 559 147 q 449 30 513 71 q 305 -11 385 -11 m 358 150 q 439 173 402 150 q 503 233 476 195 q 545 319 530 271 q 559 418 559 367 q 525 535 559 492 q 428 578 490 578 q 346 556 383 578 q 282 496 309 534 q 242 412 256 459 q 228 313 228 364 q 263 194 228 238 q 358 150 298 150 m 509 812 q 386 838 440 812 q 304 911 331 863 q 290 1025 277 959 l 399 1015 q 409 958 393 981 q 452 924 424 935 q 512 912 479 912 q 613 944 569 912 q 667 1029 658 976 l 784 1019 q 731 907 771 953 q 632 837 690 861 q 509 812 574 812 m 515 960 l 457 1034 q 504 1067 486 1048 q 526 1105 522 1085 q 519 1133 530 1123 q 474 1143 507 1143 q 428 1139 453 1143 q 385 1128 403 1135 l 399 1245 q 440 1254 419 1251 q 486 1257 461 1257 q 615 1218 577 1257 q 641 1118 653 1180 q 596 1026 631 1065 q 515 960 561 986 z "},"ẵ":{"ha":823,"x_min":45,"x_max":827,"o":"m 305 -11 q 170 26 229 -11 q 78 133 111 64 q 45 296 45 202 q 70 459 45 380 q 142 601 96 538 q 253 700 188 663 q 397 737 317 737 q 530 700 475 737 q 611 597 585 662 l 513 623 l 676 623 l 589 563 l 622 726 l 798 726 l 698 233 q 696 177 691 198 q 730 146 701 155 l 666 -11 q 586 21 621 -1 q 531 71 551 42 q 514 134 511 100 l 603 91 l 434 91 l 559 147 q 449 30 513 71 q 305 -11 385 -11 m 358 150 q 439 173 402 150 q 503 233 476 195 q 545 319 530 271 q 559 418 559 367 q 525 535 559 492 q 428 578 490 578 q 346 556 383 578 q 282 496 309 534 q 242 412 256 459 q 228 313 228 364 q 263 194 228 238 q 358 150 298 150 m 401 1066 l 281 1078 q 348 1208 298 1160 q 466 1257 398 1257 q 525 1245 501 1257 q 567 1216 549 1233 q 601 1187 585 1200 q 636 1175 617 1175 q 681 1204 663 1175 q 707 1270 700 1233 l 827 1259 q 790 1161 817 1205 q 725 1090 764 1117 q 641 1063 686 1063 q 583 1076 606 1063 q 542 1104 559 1088 q 507 1133 524 1120 q 470 1145 490 1145 q 427 1126 444 1145 q 401 1066 409 1106 m 489 812 q 366 838 420 812 q 284 911 311 863 q 270 1025 257 959 l 380 1015 q 389 958 374 981 q 431 924 404 935 q 492 912 459 912 q 594 944 549 912 q 648 1029 638 976 l 764 1019 q 710 907 751 953 q 612 837 670 861 q 489 812 555 812 z "},"ǎ":{"ha":823,"x_min":45,"x_max":798,"o":"m 305 -11 q 170 26 229 -11 q 78 133 111 64 q 45 296 45 202 q 70 459 45 380 q 142 601 96 538 q 253 700 188 663 q 397 737 317 737 q 530 700 475 737 q 611 597 585 662 l 513 623 l 676 623 l 589 563 l 622 726 l 798 726 l 698 233 q 696 177 691 198 q 730 146 701 155 l 666 -11 q 586 21 621 -1 q 531 71 551 42 q 514 134 511 100 l 603 91 l 434 91 l 559 147 q 449 30 513 71 q 305 -11 385 -11 m 358 150 q 439 173 402 150 q 503 233 476 195 q 545 319 530 271 q 559 418 559 367 q 525 535 559 492 q 428 578 490 578 q 346 556 383 578 q 282 496 309 534 q 242 412 256 459 q 228 313 228 364 q 263 194 228 238 q 358 150 298 150 m 471 784 l 272 986 l 353 1074 l 505 918 l 510 918 l 710 1074 l 776 986 l 509 784 l 471 784 z "},"â":{"ha":823,"x_min":45,"x_max":798,"o":"m 305 -11 q 170 26 229 -11 q 78 133 111 64 q 45 296 45 202 q 70 459 45 380 q 142 601 96 538 q 253 700 188 663 q 397 737 317 737 q 530 700 475 737 q 611 597 585 662 l 513 623 l 676 623 l 589 563 l 622 726 l 798 726 l 698 233 q 696 177 691 198 q 730 146 701 155 l 666 -11 q 586 21 621 -1 q 531 71 551 42 q 514 134 511 100 l 603 91 l 434 91 l 559 147 q 449 30 513 71 q 305 -11 385 -11 m 358 150 q 439 173 402 150 q 503 233 476 195 q 545 319 530 271 q 559 418 559 367 q 525 535 559 492 q 428 578 490 578 q 346 556 383 578 q 282 496 309 534 q 242 412 256 459 q 228 313 228 364 q 263 194 228 238 q 358 150 298 150 m 323 784 l 256 872 l 523 1074 l 562 1074 l 760 872 l 680 784 l 528 941 l 523 941 l 323 784 z "},"ấ":{"ha":823,"x_min":45,"x_max":968,"o":"m 305 -11 q 170 26 229 -11 q 78 133 111 64 q 45 296 45 202 q 70 459 45 380 q 142 601 96 538 q 253 700 188 663 q 397 737 317 737 q 530 700 475 737 q 611 597 585 662 l 513 623 l 676 623 l 589 563 l 622 726 l 798 726 l 698 233 q 696 177 691 198 q 730 146 701 155 l 666 -11 q 586 21 621 -1 q 531 71 551 42 q 514 134 511 100 l 603 91 l 434 91 l 559 147 q 449 30 513 71 q 305 -11 385 -11 m 358 150 q 439 173 402 150 q 503 233 476 195 q 545 319 530 271 q 559 418 559 367 q 525 535 559 492 q 428 578 490 578 q 346 556 383 578 q 282 496 309 534 q 242 412 256 459 q 228 313 228 364 q 263 194 228 238 q 358 150 298 150 m 717 979 l 644 1040 l 899 1257 l 968 1139 l 717 979 m 329 793 l 255 882 l 518 1045 l 557 1045 l 763 882 l 669 793 l 521 920 l 520 920 l 329 793 z "},"ậ":{"ha":823,"x_min":45,"x_max":798,"o":"m 305 -11 q 170 26 229 -11 q 78 133 111 64 q 45 296 45 202 q 70 459 45 380 q 142 601 96 538 q 253 700 188 663 q 397 737 317 737 q 530 700 475 737 q 611 597 585 662 l 513 623 l 676 623 l 589 563 l 622 726 l 798 726 l 698 233 q 696 177 691 198 q 730 146 701 155 l 666 -11 q 586 21 621 -1 q 531 71 551 42 q 514 134 511 100 l 603 91 l 434 91 l 559 147 q 449 30 513 71 q 305 -11 385 -11 m 358 150 q 439 173 402 150 q 503 233 476 195 q 545 319 530 271 q 559 418 559 367 q 525 535 559 492 q 428 578 490 578 q 346 556 383 578 q 282 496 309 534 q 242 412 256 459 q 228 313 228 364 q 263 194 228 238 q 358 150 298 150 m 297 -317 q 212 -282 246 -317 q 178 -198 178 -248 q 212 -114 178 -148 q 296 -79 246 -79 q 381 -114 347 -79 q 416 -198 416 -148 q 381 -282 416 -248 q 297 -317 347 -317 m 323 784 l 256 872 l 523 1074 l 562 1074 l 760 872 l 680 784 l 528 941 l 523 941 l 323 784 z "},"ầ":{"ha":823,"x_min":45,"x_max":798,"o":"m 305 -11 q 170 26 229 -11 q 78 133 111 64 q 45 296 45 202 q 70 459 45 380 q 142 601 96 538 q 253 700 188 663 q 397 737 317 737 q 530 700 475 737 q 611 597 585 662 l 513 623 l 676 623 l 589 563 l 622 726 l 798 726 l 698 233 q 696 177 691 198 q 730 146 701 155 l 666 -11 q 586 21 621 -1 q 531 71 551 42 q 514 134 511 100 l 603 91 l 434 91 l 559 147 q 449 30 513 71 q 305 -11 385 -11 m 358 150 q 439 173 402 150 q 503 233 476 195 q 545 319 530 271 q 559 418 559 367 q 525 535 559 492 q 428 578 490 578 q 346 556 383 578 q 282 496 309 534 q 242 412 256 459 q 228 313 228 364 q 263 194 228 238 q 358 150 298 150 m 312 977 l 134 1177 l 249 1269 l 406 1036 l 312 977 m 330 793 l 256 882 l 519 1045 l 558 1045 l 764 882 l 670 793 l 522 920 l 521 920 l 330 793 z "},"ẩ":{"ha":823,"x_min":45,"x_max":842,"o":"m 305 -11 q 170 26 229 -11 q 78 133 111 64 q 45 296 45 202 q 70 459 45 380 q 142 601 96 538 q 253 700 188 663 q 397 737 317 737 q 530 700 475 737 q 611 597 585 662 l 513 623 l 676 623 l 589 563 l 622 726 l 798 726 l 698 233 q 696 177 691 198 q 730 146 701 155 l 666 -11 q 586 21 621 -1 q 531 71 551 42 q 514 134 511 100 l 603 91 l 434 91 l 559 147 q 449 30 513 71 q 305 -11 385 -11 m 358 150 q 439 173 402 150 q 503 233 476 195 q 545 319 530 271 q 559 418 559 367 q 525 535 559 492 q 428 578 490 578 q 346 556 383 578 q 282 496 309 534 q 242 412 256 459 q 228 313 228 364 q 263 194 228 238 q 358 150 298 150 m 726 969 l 644 1036 q 692 1073 674 1053 q 714 1110 711 1093 q 707 1136 718 1127 q 665 1145 696 1145 q 623 1141 646 1145 q 581 1132 599 1138 l 594 1247 q 632 1256 612 1253 q 675 1259 652 1259 q 804 1221 767 1259 q 830 1120 842 1183 q 791 1032 821 1072 q 726 969 761 993 m 329 793 l 255 882 l 518 1045 l 557 1045 l 763 882 l 669 793 l 521 920 l 520 920 l 329 793 z "},"ẫ":{"ha":823,"x_min":45,"x_max":824,"o":"m 305 -11 q 170 26 229 -11 q 78 133 111 64 q 45 296 45 202 q 70 459 45 380 q 142 601 96 538 q 253 700 188 663 q 397 737 317 737 q 530 700 475 737 q 611 597 585 662 l 513 623 l 676 623 l 589 563 l 622 726 l 798 726 l 698 233 q 696 177 691 198 q 730 146 701 155 l 666 -11 q 586 21 621 -1 q 531 71 551 42 q 514 134 511 100 l 603 91 l 434 91 l 559 147 q 449 30 513 71 q 305 -11 385 -11 m 358 150 q 439 173 402 150 q 503 233 476 195 q 545 319 530 271 q 559 418 559 367 q 525 535 559 492 q 428 578 490 578 q 346 556 383 578 q 282 496 309 534 q 242 412 256 459 q 228 313 228 364 q 263 194 228 238 q 358 150 298 150 m 396 1066 l 277 1078 q 345 1208 294 1160 q 463 1257 395 1257 q 522 1245 498 1257 q 564 1216 546 1233 q 598 1187 582 1200 q 633 1175 614 1175 q 678 1204 659 1175 q 703 1270 696 1233 l 824 1259 q 787 1161 813 1205 q 722 1090 760 1117 q 637 1063 683 1063 q 579 1076 603 1063 q 538 1104 556 1088 q 504 1133 521 1120 q 467 1145 487 1145 q 423 1126 441 1145 q 396 1066 405 1106 m 330 793 l 256 882 l 519 1045 l 558 1045 l 764 882 l 670 793 l 522 920 l 521 920 l 330 793 z "},"ȁ":{"ha":823,"x_min":45,"x_max":798,"o":"m 305 -11 q 170 26 229 -11 q 78 133 111 64 q 45 296 45 202 q 70 459 45 380 q 142 601 96 538 q 253 700 188 663 q 397 737 317 737 q 530 700 475 737 q 611 597 585 662 l 513 623 l 676 623 l 589 563 l 622 726 l 798 726 l 698 233 q 696 177 691 198 q 730 146 701 155 l 666 -11 q 586 21 621 -1 q 531 71 551 42 q 514 134 511 100 l 603 91 l 434 91 l 559 147 q 449 30 513 71 q 305 -11 385 -11 m 358 150 q 439 173 402 150 q 503 233 476 195 q 545 319 530 271 q 559 418 559 367 q 525 535 559 492 q 428 578 490 578 q 346 556 383 578 q 282 496 309 534 q 242 412 256 459 q 228 313 228 364 q 263 194 228 238 q 358 150 298 150 m 362 796 l 250 1031 l 385 1093 l 460 820 l 362 796 m 604 796 l 492 1031 l 629 1093 l 701 820 l 604 796 z "},"ä":{"ha":823,"x_min":45,"x_max":798,"o":"m 305 -11 q 170 26 229 -11 q 78 133 111 64 q 45 296 45 202 q 70 459 45 380 q 142 601 96 538 q 253 700 188 663 q 397 737 317 737 q 530 700 475 737 q 611 597 585 662 l 513 623 l 676 623 l 589 563 l 622 726 l 798 726 l 698 233 q 696 177 691 198 q 730 146 701 155 l 666 -11 q 586 21 621 -1 q 531 71 551 42 q 514 134 511 100 l 603 91 l 434 91 l 559 147 q 449 30 513 71 q 305 -11 385 -11 m 358 150 q 439 173 402 150 q 503 233 476 195 q 545 319 530 271 q 559 418 559 367 q 525 535 559 492 q 428 578 490 578 q 346 556 383 578 q 282 496 309 534 q 242 412 256 459 q 228 313 228 364 q 263 194 228 238 q 358 150 298 150 m 679 829 q 601 861 633 829 q 570 939 570 892 q 601 1016 570 985 q 679 1048 633 1048 q 756 1016 725 1048 q 788 939 788 985 q 756 861 788 892 q 679 829 725 829 m 366 829 q 289 861 320 829 q 257 939 257 892 q 289 1016 257 985 q 366 1048 320 1048 q 444 1016 412 1048 q 475 939 475 985 q 444 861 475 892 q 366 829 412 829 z "},"ȧ":{"ha":823,"x_min":45,"x_max":798,"o":"m 305 -11 q 170 26 229 -11 q 78 133 111 64 q 45 296 45 202 q 70 459 45 380 q 142 601 96 538 q 253 700 188 663 q 397 737 317 737 q 530 700 475 737 q 611 597 585 662 l 513 623 l 676 623 l 589 563 l 622 726 l 798 726 l 698 233 q 696 177 691 198 q 730 146 701 155 l 666 -11 q 586 21 621 -1 q 531 71 551 42 q 514 134 511 100 l 603 91 l 434 91 l 559 147 q 449 30 513 71 q 305 -11 385 -11 m 358 150 q 439 173 402 150 q 503 233 476 195 q 545 319 530 271 q 559 418 559 367 q 525 535 559 492 q 428 578 490 578 q 346 556 383 578 q 282 496 309 534 q 242 412 256 459 q 228 313 228 364 q 263 194 228 238 q 358 150 298 150 m 523 820 q 438 854 472 820 q 404 939 404 889 q 438 1023 404 989 q 522 1057 472 1057 q 607 1023 572 1057 q 642 939 642 989 q 607 854 642 889 q 523 820 572 820 z "},"ạ":{"ha":823,"x_min":45,"x_max":798,"o":"m 305 -11 q 170 26 229 -11 q 78 133 111 64 q 45 296 45 202 q 70 459 45 380 q 142 601 96 538 q 253 700 188 663 q 397 737 317 737 q 530 700 475 737 q 611 597 585 662 l 513 623 l 676 623 l 589 563 l 622 726 l 798 726 l 698 233 q 696 177 691 198 q 730 146 701 155 l 666 -11 q 586 21 621 -1 q 531 71 551 42 q 514 134 511 100 l 603 91 l 434 91 l 559 147 q 449 30 513 71 q 305 -11 385 -11 m 358 150 q 439 173 402 150 q 503 233 476 195 q 545 319 530 271 q 559 418 559 367 q 525 535 559 492 q 428 578 490 578 q 346 556 383 578 q 282 496 309 534 q 242 412 256 459 q 228 313 228 364 q 263 194 228 238 q 358 150 298 150 m 297 -317 q 212 -282 246 -317 q 178 -198 178 -248 q 212 -114 178 -148 q 296 -79 246 -79 q 381 -114 347 -79 q 416 -198 416 -148 q 381 -282 416 -248 q 297 -317 347 -317 z "},"à":{"ha":823,"x_min":45,"x_max":798,"o":"m 305 -11 q 170 26 229 -11 q 78 133 111 64 q 45 296 45 202 q 70 459 45 380 q 142 601 96 538 q 253 700 188 663 q 397 737 317 737 q 530 700 475 737 q 611 597 585 662 l 513 623 l 676 623 l 589 563 l 622 726 l 798 726 l 698 233 q 696 177 691 198 q 730 146 701 155 l 666 -11 q 586 21 621 -1 q 531 71 551 42 q 514 134 511 100 l 603 91 l 434 91 l 559 147 q 449 30 513 71 q 305 -11 385 -11 m 358 150 q 439 173 402 150 q 503 233 476 195 q 545 319 530 271 q 559 418 559 367 q 525 535 559 492 q 428 578 490 578 q 346 556 383 578 q 282 496 309 534 q 242 412 256 459 q 228 313 228 364 q 263 194 228 238 q 358 150 298 150 m 498 791 l 318 1006 l 448 1108 l 589 856 l 498 791 z "},"ả":{"ha":823,"x_min":45,"x_max":798,"o":"m 305 -11 q 170 26 229 -11 q 78 133 111 64 q 45 296 45 202 q 70 459 45 380 q 142 601 96 538 q 253 700 188 663 q 397 737 317 737 q 530 700 475 737 q 611 597 585 662 l 513 623 l 676 623 l 589 563 l 622 726 l 798 726 l 698 233 q 696 177 691 198 q 730 146 701 155 l 666 -11 q 586 21 621 -1 q 531 71 551 42 q 514 134 511 100 l 603 91 l 434 91 l 559 147 q 449 30 513 71 q 305 -11 385 -11 m 358 150 q 439 173 402 150 q 503 233 476 195 q 545 319 530 271 q 559 418 559 367 q 525 535 559 492 q 428 578 490 578 q 346 556 383 578 q 282 496 309 534 q 242 412 256 459 q 228 313 228 364 q 263 194 228 238 q 358 150 298 150 m 518 782 l 460 856 q 507 889 489 871 q 529 926 524 907 q 522 955 534 945 q 477 965 510 965 q 431 961 456 965 q 387 951 406 957 l 402 1067 q 443 1076 422 1073 q 489 1079 464 1079 q 618 1040 581 1079 q 644 939 656 1002 q 598 848 633 888 q 518 782 564 808 z "},"ȃ":{"ha":823,"x_min":45,"x_max":798,"o":"m 305 -11 q 170 26 229 -11 q 78 133 111 64 q 45 296 45 202 q 70 459 45 380 q 142 601 96 538 q 253 700 188 663 q 397 737 317 737 q 530 700 475 737 q 611 597 585 662 l 513 623 l 676 623 l 589 563 l 622 726 l 798 726 l 698 233 q 696 177 691 198 q 730 146 701 155 l 666 -11 q 586 21 621 -1 q 531 71 551 42 q 514 134 511 100 l 603 91 l 434 91 l 559 147 q 449 30 513 71 q 305 -11 385 -11 m 358 150 q 439 173 402 150 q 503 233 476 195 q 545 319 530 271 q 559 418 559 367 q 525 535 559 492 q 428 578 490 578 q 346 556 383 578 q 282 496 309 534 q 242 412 256 459 q 228 313 228 364 q 263 194 228 238 q 358 150 298 150 m 755 806 l 644 823 q 624 906 654 868 q 528 943 594 943 q 426 904 467 943 q 374 810 385 865 l 262 827 q 315 944 275 895 q 414 1020 355 994 q 539 1047 473 1047 q 665 1015 611 1047 q 745 929 720 983 q 755 806 771 874 z "},"ā":{"ha":823,"x_min":45,"x_max":804,"o":"m 305 -11 q 170 26 229 -11 q 78 133 111 64 q 45 296 45 202 q 70 459 45 380 q 142 601 96 538 q 253 700 188 663 q 397 737 317 737 q 530 700 475 737 q 611 597 585 662 l 513 623 l 676 623 l 589 563 l 622 726 l 798 726 l 698 233 q 696 177 691 198 q 730 146 701 155 l 666 -11 q 586 21 621 -1 q 531 71 551 42 q 514 134 511 100 l 603 91 l 434 91 l 559 147 q 449 30 513 71 q 305 -11 385 -11 m 358 150 q 439 173 402 150 q 503 233 476 195 q 545 319 530 271 q 559 418 559 367 q 525 535 559 492 q 428 578 490 578 q 346 556 383 578 q 282 496 309 534 q 242 412 256 459 q 228 313 228 364 q 263 194 228 238 q 358 150 298 150 m 229 856 l 253 972 l 804 972 l 781 856 l 229 856 z "},"ą":{"ha":823,"x_min":45,"x_max":798,"o":"m 305 -11 q 170 26 229 -11 q 78 133 111 64 q 45 296 45 202 q 70 459 45 380 q 142 601 96 538 q 253 700 188 663 q 397 737 317 737 q 530 700 475 737 q 611 597 585 662 l 513 623 l 676 623 l 589 563 l 622 726 l 798 726 l 698 233 q 696 177 691 198 q 730 146 701 155 l 666 -11 q 586 21 621 -1 q 531 71 551 42 q 514 134 511 100 l 603 91 l 434 91 l 559 147 q 449 30 513 71 q 305 -11 385 -11 m 358 150 q 439 173 402 150 q 503 233 476 195 q 545 319 530 271 q 559 418 559 367 q 525 535 559 492 q 428 578 490 578 q 346 556 383 578 q 282 496 309 534 q 242 412 256 459 q 228 313 228 364 q 263 194 228 238 q 358 150 298 150 m 587 -288 q 478 -247 517 -288 q 452 -140 439 -205 q 487 -59 461 -96 q 545 8 513 -22 q 598 56 576 37 l 664 -11 q 625 -51 644 -29 q 591 -94 605 -73 q 574 -134 577 -115 q 578 -161 571 -149 q 612 -172 586 -172 q 648 -168 628 -172 q 695 -153 669 -163 l 678 -273 q 635 -284 661 -279 q 587 -288 610 -288 z "},"å":{"ha":823,"x_min":45,"x_max":798,"o":"m 305 -11 q 170 26 229 -11 q 78 133 111 64 q 45 296 45 202 q 70 459 45 380 q 142 601 96 538 q 253 700 188 663 q 397 737 317 737 q 530 700 475 737 q 611 597 585 662 l 513 623 l 676 623 l 589 563 l 622 726 l 798 726 l 698 233 q 696 177 691 198 q 730 146 701 155 l 666 -11 q 586 21 621 -1 q 531 71 551 42 q 514 134 511 100 l 603 91 l 434 91 l 559 147 q 449 30 513 71 q 305 -11 385 -11 m 358 150 q 439 173 402 150 q 503 233 476 195 q 545 319 530 271 q 559 418 559 367 q 525 535 559 492 q 428 578 490 578 q 346 556 383 578 q 282 496 309 534 q 242 412 256 459 q 228 313 228 364 q 263 194 228 238 q 358 150 298 150 m 513 817 q 429 840 465 817 q 376 900 393 862 q 368 983 359 937 q 430 1086 379 1046 q 544 1125 480 1125 q 629 1102 593 1125 q 682 1041 665 1079 q 689 958 698 1003 q 628 859 677 900 q 513 817 580 817 m 519 903 q 567 921 545 903 q 594 968 589 939 q 585 1017 600 995 q 538 1039 570 1039 q 490 1022 512 1039 q 462 977 468 1004 q 473 925 456 948 q 519 903 490 903 z "},"ǻ":{"ha":823,"x_min":45,"x_max":813,"o":"m 512 817 q 428 840 464 817 q 375 900 392 862 q 368 983 359 937 q 430 1086 379 1046 q 544 1125 480 1125 q 629 1102 593 1125 q 682 1041 665 1079 q 688 958 698 1003 q 628 859 677 900 q 512 817 580 817 m 519 903 q 567 921 545 903 q 594 968 589 939 q 585 1017 600 995 q 538 1039 570 1039 q 490 1022 512 1039 q 462 977 467 1004 q 472 925 455 948 q 519 903 489 903 m 612 1158 l 515 1238 l 700 1442 l 813 1327 l 612 1158 m 305 -11 q 170 26 229 -11 q 78 133 111 64 q 45 296 45 202 q 70 459 45 380 q 142 601 96 538 q 253 700 188 663 q 397 737 317 737 q 530 700 475 737 q 611 597 585 662 l 513 623 l 676 623 l 589 563 l 622 726 l 798 726 l 698 233 q 696 177 691 198 q 730 146 701 155 l 666 -11 q 586 21 621 -1 q 531 71 551 42 q 514 134 511 100 l 603 91 l 434 91 l 559 147 q 449 30 513 71 q 305 -11 385 -11 m 358 150 q 439 173 402 150 q 503 233 476 195 q 545 319 530 271 q 559 418 559 367 q 525 535 559 492 q 428 578 490 578 q 346 556 383 578 q 282 496 309 534 q 242 412 256 459 q 228 313 228 364 q 263 194 228 238 q 358 150 298 150 z "},"ã":{"ha":823,"x_min":45,"x_max":800,"o":"m 305 -11 q 170 26 229 -11 q 78 133 111 64 q 45 296 45 202 q 70 459 45 380 q 142 601 96 538 q 253 700 188 663 q 397 737 317 737 q 530 700 475 737 q 611 597 585 662 l 513 623 l 676 623 l 589 563 l 622 726 l 798 726 l 698 233 q 696 177 691 198 q 730 146 701 155 l 666 -11 q 586 21 621 -1 q 531 71 551 42 q 514 134 511 100 l 603 91 l 434 91 l 559 147 q 449 30 513 71 q 305 -11 385 -11 m 358 150 q 439 173 402 150 q 503 233 476 195 q 545 319 530 271 q 559 418 559 367 q 525 535 559 492 q 428 578 490 578 q 346 556 383 578 q 282 496 309 534 q 242 412 256 459 q 228 313 228 364 q 263 194 228 238 q 358 150 298 150 m 366 817 l 245 827 q 287 932 259 888 q 353 1000 315 976 q 435 1024 391 1024 q 497 1010 473 1024 q 539 979 522 997 q 572 948 556 962 q 607 935 587 935 q 653 961 634 935 q 680 1025 671 987 l 800 1015 q 759 911 787 956 q 692 842 731 867 q 609 818 654 818 q 549 831 573 818 q 509 863 526 845 q 475 894 492 880 q 439 908 459 908 q 393 883 412 908 q 366 817 374 857 z "},"æ":{"ha":1277,"x_min":44,"x_max":1241,"o":"m 279 -11 q 107 70 171 -11 q 44 288 44 151 q 67 452 44 372 q 134 596 90 532 q 240 699 178 661 q 380 737 302 737 q 516 696 458 737 q 599 581 574 654 l 480 633 l 649 633 l 551 547 l 587 726 l 760 726 l 664 211 q 652 105 653 158 q 660 0 650 53 l 489 0 q 485 68 485 33 q 490 141 485 104 l 496 98 l 467 98 l 505 134 q 405 25 464 60 q 279 -11 346 -11 m 351 146 q 428 166 393 146 q 491 219 464 185 q 533 298 517 254 q 553 391 549 342 q 546 490 558 447 q 504 557 533 532 q 427 581 474 581 q 342 557 379 581 q 279 493 305 533 q 239 404 253 453 q 226 304 226 354 q 257 189 226 232 q 351 146 288 146 m 905 -11 q 736 27 805 -11 q 633 135 668 66 q 597 294 597 203 q 626 458 597 379 q 706 601 655 538 q 826 701 758 664 q 974 737 894 737 q 1109 702 1049 737 q 1205 603 1170 667 q 1241 450 1241 538 q 1234 373 1241 413 q 1214 300 1226 333 l 709 300 l 728 423 l 1077 423 q 1080 444 1079 433 q 1081 465 1081 454 q 1044 556 1081 526 q 949 587 1008 587 q 856 564 897 587 q 788 500 816 540 q 747 413 761 460 q 733 318 733 366 q 756 217 733 257 q 820 159 780 178 q 910 140 860 140 q 1008 157 961 140 q 1077 191 1055 173 l 1131 45 q 1031 5 1092 22 q 905 -11 970 -11 z "},"ǽ":{"ha":1277,"x_min":44,"x_max":1241,"o":"m 279 -11 q 107 70 171 -11 q 44 288 44 151 q 67 452 44 372 q 134 596 90 532 q 240 699 178 661 q 380 737 302 737 q 516 696 458 737 q 599 581 574 654 l 480 633 l 649 633 l 551 547 l 587 726 l 760 726 l 664 211 q 652 105 653 158 q 660 0 650 53 l 489 0 q 485 68 485 33 q 490 141 485 104 l 496 98 l 467 98 l 505 134 q 405 25 464 60 q 279 -11 346 -11 m 351 146 q 428 166 393 146 q 491 219 464 185 q 533 298 517 254 q 553 391 549 342 q 546 490 558 447 q 504 557 533 532 q 427 581 474 581 q 342 557 379 581 q 279 493 305 533 q 239 404 253 453 q 226 304 226 354 q 257 189 226 232 q 351 146 288 146 m 905 -11 q 736 27 805 -11 q 633 135 668 66 q 597 294 597 203 q 626 458 597 379 q 706 601 655 538 q 826 701 758 664 q 974 737 894 737 q 1109 702 1049 737 q 1205 603 1170 667 q 1241 450 1241 538 q 1234 373 1241 413 q 1214 300 1226 333 l 709 300 l 728 423 l 1077 423 q 1080 444 1079 433 q 1081 465 1081 454 q 1044 556 1081 526 q 949 587 1008 587 q 856 564 897 587 q 788 500 816 540 q 747 413 761 460 q 733 318 733 366 q 756 217 733 257 q 820 159 780 178 q 910 140 860 140 q 1008 157 961 140 q 1077 191 1055 173 l 1131 45 q 1031 5 1092 22 q 905 -11 970 -11 m 677 788 l 588 858 l 785 1108 l 894 1006 l 677 788 z "},"b":{"ha":827,"x_min":11,"x_max":783,"o":"m 11 0 l 220 1044 l 408 1044 l 332 664 l 349 664 l 302 593 l 216 182 l 235 104 l 209 104 l 189 0 l 11 0 m 422 -11 q 288 25 345 -11 q 198 126 230 60 q 166 282 166 192 q 193 446 166 365 q 268 592 219 526 q 382 698 317 659 q 526 737 448 737 q 654 703 596 737 q 748 600 713 668 q 783 432 783 532 q 758 270 783 349 q 684 128 732 191 q 569 27 635 64 q 422 -11 503 -11 m 391 149 q 478 172 439 149 q 544 234 517 195 q 586 320 572 273 q 601 417 601 368 q 567 534 601 492 q 467 577 534 577 q 379 554 418 577 q 312 494 340 532 q 268 408 283 456 q 253 312 253 361 q 289 193 253 236 q 391 149 326 149 z "},"c":{"ha":670,"x_min":47,"x_max":673,"o":"m 368 -8 q 204 30 277 -8 q 89 141 132 68 q 47 314 47 213 q 77 477 47 400 q 161 612 106 553 q 289 704 215 670 q 451 737 363 737 q 585 714 526 737 q 673 665 644 692 l 580 522 q 519 560 559 546 q 441 574 479 574 q 355 553 394 574 q 289 494 317 531 q 245 412 260 458 q 230 319 230 367 q 248 234 230 271 q 298 178 265 198 q 378 159 332 159 q 464 176 421 159 q 536 215 507 193 l 577 52 q 480 8 536 24 q 368 -8 425 -8 z "},"ć":{"ha":670,"x_min":47,"x_max":716,"o":"m 368 -8 q 204 30 277 -8 q 89 141 132 68 q 47 314 47 213 q 77 477 47 400 q 161 612 106 553 q 289 704 215 670 q 451 737 363 737 q 585 714 526 737 q 673 665 644 692 l 580 522 q 519 560 559 546 q 441 574 479 574 q 355 553 394 574 q 289 494 317 531 q 245 412 260 458 q 230 319 230 367 q 248 234 230 271 q 298 178 265 198 q 378 159 332 159 q 464 176 421 159 q 536 215 507 193 l 577 52 q 480 8 536 24 q 368 -8 425 -8 m 499 788 l 410 858 l 607 1108 l 716 1006 l 499 788 z "},"č":{"ha":670,"x_min":47,"x_max":777,"o":"m 368 -8 q 204 30 277 -8 q 89 141 132 68 q 47 314 47 213 q 77 477 47 400 q 161 612 106 553 q 289 704 215 670 q 451 737 363 737 q 585 714 526 737 q 673 665 644 692 l 580 522 q 519 560 559 546 q 441 574 479 574 q 355 553 394 574 q 289 494 317 531 q 245 412 260 458 q 230 319 230 367 q 248 234 230 271 q 298 178 265 198 q 378 159 332 159 q 464 176 421 159 q 536 215 507 193 l 577 52 q 480 8 536 24 q 368 -8 425 -8 m 471 784 l 273 986 l 353 1074 l 505 918 l 511 918 l 711 1074 l 777 986 l 510 784 l 471 784 z "},"ç":{"ha":670,"x_min":47,"x_max":673,"o":"m 368 -8 q 204 30 277 -8 q 89 141 132 68 q 47 314 47 213 q 77 477 47 400 q 161 612 106 553 q 289 704 215 670 q 451 737 363 737 q 585 714 526 737 q 673 665 644 692 l 580 522 q 519 560 559 546 q 441 574 479 574 q 355 553 394 574 q 289 494 317 531 q 245 412 260 458 q 230 319 230 367 q 248 234 230 271 q 298 178 265 198 q 378 159 332 159 q 464 176 421 159 q 536 215 507 193 l 577 52 q 480 8 536 24 q 368 -8 425 -8 m 161 -338 l 170 -244 q 282 -227 241 -246 q 328 -180 323 -208 q 311 -147 333 -158 q 238 -132 289 -136 l 303 0 l 392 0 l 330 -111 l 323 -66 q 387 -83 358 -67 q 431 -130 416 -100 q 437 -205 446 -161 q 394 -281 428 -252 q 303 -325 361 -311 q 161 -338 245 -338 z "},"ḉ":{"ha":670,"x_min":47,"x_max":716,"o":"m 368 -8 q 204 30 277 -8 q 89 141 132 68 q 47 314 47 213 q 77 477 47 400 q 161 612 106 553 q 289 704 215 670 q 451 737 363 737 q 585 714 526 737 q 673 665 644 692 l 580 522 q 519 560 559 546 q 441 574 479 574 q 355 553 394 574 q 289 494 317 531 q 245 412 260 458 q 230 319 230 367 q 248 234 230 271 q 298 178 265 198 q 378 159 332 159 q 464 176 421 159 q 536 215 507 193 l 577 52 q 480 8 536 24 q 368 -8 425 -8 m 161 -338 l 170 -244 q 282 -227 241 -246 q 328 -180 323 -208 q 311 -147 333 -158 q 238 -132 289 -136 l 303 0 l 392 0 l 330 -111 l 323 -66 q 387 -83 358 -67 q 431 -130 416 -100 q 437 -205 446 -161 q 394 -281 428 -252 q 303 -325 361 -311 q 161 -338 245 -338 m 499 788 l 410 858 l 607 1108 l 716 1006 l 499 788 z "},"ĉ":{"ha":670,"x_min":47,"x_max":761,"o":"m 368 -8 q 204 30 277 -8 q 89 141 132 68 q 47 314 47 213 q 77 477 47 400 q 161 612 106 553 q 289 704 215 670 q 451 737 363 737 q 585 714 526 737 q 673 665 644 692 l 580 522 q 519 560 559 546 q 441 574 479 574 q 355 553 394 574 q 289 494 317 531 q 245 412 260 458 q 230 319 230 367 q 248 234 230 271 q 298 178 265 198 q 378 159 332 159 q 464 176 421 159 q 536 215 507 193 l 577 52 q 480 8 536 24 q 368 -8 425 -8 m 323 784 l 257 872 l 524 1074 l 563 1074 l 761 872 l 680 784 l 529 941 l 524 941 l 323 784 z "},"ċ":{"ha":670,"x_min":47,"x_max":673,"o":"m 368 -8 q 204 30 277 -8 q 89 141 132 68 q 47 314 47 213 q 77 477 47 400 q 161 612 106 553 q 289 704 215 670 q 451 737 363 737 q 585 714 526 737 q 673 665 644 692 l 580 522 q 519 560 559 546 q 441 574 479 574 q 355 553 394 574 q 289 494 317 531 q 245 412 260 458 q 230 319 230 367 q 248 234 230 271 q 298 178 265 198 q 378 159 332 159 q 464 176 421 159 q 536 215 507 193 l 577 52 q 480 8 536 24 q 368 -8 425 -8 m 523 820 q 438 854 472 820 q 404 939 404 889 q 438 1023 404 989 q 522 1057 472 1057 q 607 1023 572 1057 q 642 939 642 989 q 607 854 642 889 q 523 820 572 820 z "},"d":{"ha":857,"x_min":45,"x_max":882,"o":"m 663 -9 q 598 26 625 7 q 556 70 571 45 q 541 125 542 94 l 574 94 l 499 94 l 545 175 l 626 564 l 586 643 l 614 643 l 694 1044 l 882 1044 l 720 232 q 719 178 712 196 q 755 146 726 159 l 663 -9 m 314 -11 q 176 27 237 -11 q 80 136 115 66 q 45 302 45 206 q 72 464 45 386 q 148 603 99 541 q 264 701 197 665 q 411 737 331 737 q 553 697 495 737 q 642 588 611 657 q 672 431 672 519 q 646 270 672 349 q 572 128 620 191 q 458 27 524 64 q 314 -11 393 -11 m 363 149 q 450 172 411 149 q 517 233 489 195 q 560 318 545 271 q 575 414 575 366 q 539 532 575 488 q 438 577 504 577 q 352 554 391 577 q 286 493 313 531 q 243 407 258 454 q 229 311 229 359 q 264 192 229 235 q 363 149 300 149 z "},"ď":{"ha":857,"x_min":45,"x_max":1126,"o":"m 663 -9 q 598 26 625 7 q 556 70 571 45 q 541 125 542 94 l 574 94 l 499 94 l 545 175 l 626 564 l 586 643 l 614 643 l 694 1044 l 882 1044 l 720 232 q 719 178 712 196 q 755 146 726 159 l 663 -9 m 314 -11 q 176 27 237 -11 q 80 136 115 66 q 45 302 45 206 q 72 464 45 386 q 148 603 99 541 q 264 701 197 665 q 411 737 331 737 q 553 697 495 737 q 642 588 611 657 q 672 431 672 519 q 646 270 672 349 q 572 128 620 191 q 458 27 524 64 q 314 -11 393 -11 m 363 149 q 450 172 411 149 q 517 233 489 195 q 560 318 545 271 q 575 414 575 366 q 539 532 575 488 q 438 577 504 577 q 352 554 391 577 q 286 493 313 531 q 243 407 258 454 q 229 311 229 359 q 264 192 229 235 q 363 149 300 149 m 904 709 l 974 1044 l 1126 1044 l 1036 709 l 904 709 z "},"đ":{"ha":857,"x_min":45,"x_max":973,"o":"m 663 -9 q 598 26 625 7 q 556 70 571 45 q 541 125 542 94 l 574 94 l 499 94 l 545 175 l 626 564 l 586 643 l 614 643 l 694 1044 l 882 1044 l 720 232 q 719 178 712 196 q 755 146 726 159 l 663 -9 m 314 -11 q 176 27 237 -11 q 80 136 115 66 q 45 302 45 206 q 72 464 45 386 q 148 603 99 541 q 264 701 197 665 q 411 737 331 737 q 553 697 495 737 q 642 588 611 657 q 672 431 672 519 q 646 270 672 349 q 572 128 620 191 q 458 27 524 64 q 314 -11 393 -11 m 363 149 q 450 172 411 149 q 517 233 489 195 q 560 318 545 271 q 575 414 575 366 q 539 532 575 488 q 438 577 504 577 q 352 554 391 577 q 286 493 313 531 q 243 407 258 454 q 229 311 229 359 q 264 192 229 235 q 363 149 300 149 m 528 820 l 550 925 l 974 925 l 951 820 l 528 820 z "},"ḍ":{"ha":857,"x_min":45,"x_max":882,"o":"m 663 -9 q 598 26 625 7 q 556 70 571 45 q 541 125 542 94 l 574 94 l 499 94 l 545 175 l 626 564 l 586 643 l 614 643 l 694 1044 l 882 1044 l 720 232 q 719 178 712 196 q 755 146 726 159 l 663 -9 m 314 -11 q 176 27 237 -11 q 80 136 115 66 q 45 302 45 206 q 72 464 45 386 q 148 603 99 541 q 264 701 197 665 q 411 737 331 737 q 553 697 495 737 q 642 588 611 657 q 672 431 672 519 q 646 270 672 349 q 572 128 620 191 q 458 27 524 64 q 314 -11 393 -11 m 363 149 q 450 172 411 149 q 517 233 489 195 q 560 318 545 271 q 575 414 575 366 q 539 532 575 488 q 438 577 504 577 q 352 554 391 577 q 286 493 313 531 q 243 407 258 454 q 229 311 229 359 q 264 192 229 235 q 363 149 300 149 m 304 -317 q 219 -282 254 -317 q 185 -198 185 -248 q 219 -114 185 -148 q 304 -79 254 -79 q 389 -114 354 -79 q 423 -198 423 -148 q 389 -282 423 -248 q 304 -317 354 -317 z "},"ḏ":{"ha":857,"x_min":13,"x_max":882,"o":"m 663 -9 q 598 26 625 7 q 556 70 571 45 q 541 125 542 94 l 574 94 l 499 94 l 545 175 l 626 564 l 586 643 l 614 643 l 694 1044 l 882 1044 l 720 232 q 719 178 712 196 q 755 146 726 159 l 663 -9 m 314 -11 q 176 27 237 -11 q 80 136 115 66 q 45 302 45 206 q 72 464 45 386 q 148 603 99 541 q 264 701 197 665 q 411 737 331 737 q 553 697 495 737 q 642 588 611 657 q 672 431 672 519 q 646 270 672 349 q 572 128 620 191 q 458 27 524 64 q 314 -11 393 -11 m 363 149 q 450 172 411 149 q 517 233 489 195 q 560 318 545 271 q 575 414 575 366 q 539 532 575 488 q 438 577 504 577 q 352 554 391 577 q 286 493 313 531 q 243 407 258 454 q 229 311 229 359 q 264 192 229 235 q 363 149 300 149 m 13 -278 l 37 -162 l 588 -162 l 564 -278 l 13 -278 z "},"ǆ":{"ha":1537,"x_min":45,"x_max":1567,"o":"m 663 -9 q 598 26 625 7 q 556 70 571 45 q 541 125 542 94 l 574 94 l 499 94 l 545 175 l 626 564 l 586 643 l 614 643 l 694 1044 l 882 1044 l 720 232 q 719 178 712 196 q 755 146 726 159 l 663 -9 m 314 -11 q 176 27 237 -11 q 80 136 115 66 q 45 302 45 206 q 72 464 45 386 q 148 603 99 541 q 264 701 197 665 q 411 737 331 737 q 553 697 495 737 q 642 588 611 657 q 672 431 672 519 q 646 270 672 349 q 572 128 620 191 q 458 27 524 64 q 314 -11 393 -11 m 363 149 q 450 172 411 149 q 517 233 489 195 q 560 318 545 271 q 575 414 575 366 q 539 532 575 488 q 438 577 504 577 q 352 554 391 577 q 286 493 313 531 q 243 407 258 454 q 229 311 229 359 q 264 192 229 235 q 363 149 300 149 m 828 0 l 834 39 l 1246 558 l 1246 565 l 964 565 l 996 726 l 1560 726 l 1552 687 l 1141 168 l 1141 163 l 1447 163 l 1414 0 l 828 0 m 1261 784 l 1063 986 l 1143 1074 l 1295 918 l 1301 918 l 1501 1074 l 1567 986 l 1300 784 l 1261 784 z "},"ð":{"ha":810,"x_min":45,"x_max":800,"o":"m 352 -11 q 190 31 258 -11 q 83 143 121 72 q 45 301 45 214 q 74 450 45 378 q 153 576 102 521 q 269 665 203 632 q 410 698 335 698 q 501 685 457 698 q 578 646 545 671 q 627 583 612 620 l 600 609 l 649 609 l 620 591 q 582 718 610 659 q 511 827 554 777 q 412 917 467 878 q 294 983 357 956 l 385 1124 q 601 970 515 1059 q 730 773 687 882 q 772 537 772 664 q 744 334 772 433 q 661 158 715 236 q 529 35 607 81 q 352 -11 451 -11 m 366 156 q 448 177 411 156 q 513 234 486 198 q 556 313 541 269 q 571 401 571 356 q 535 509 571 467 q 435 550 500 550 q 327 515 374 550 q 254 426 280 481 q 228 312 228 372 q 245 228 228 263 q 295 174 263 193 q 366 156 326 156 m 297 749 l 261 829 l 755 1125 l 800 1027 l 297 749 z "},"e":{"ha":751,"x_min":46,"x_max":718,"o":"m 369 -11 q 196 30 269 -11 q 85 143 124 71 q 46 312 46 216 q 74 470 46 394 q 154 607 102 547 q 275 702 205 667 q 428 737 345 737 q 579 700 513 737 q 681 600 644 663 q 718 460 718 537 q 714 404 718 433 q 702 350 709 376 q 686 302 695 323 l 178 302 l 201 427 l 547 427 q 550 443 549 435 q 551 457 551 451 q 513 548 551 513 q 418 583 476 583 q 333 561 372 583 q 266 501 294 538 q 222 417 238 464 q 207 323 207 371 q 251 192 207 243 q 375 141 296 141 q 467 157 422 141 q 539 196 512 173 l 599 49 q 490 5 549 20 q 369 -11 430 -11 z "},"é":{"ha":751,"x_min":46,"x_max":718,"o":"m 369 -11 q 196 30 269 -11 q 85 143 124 71 q 46 312 46 216 q 74 470 46 394 q 154 607 102 547 q 275 702 205 667 q 428 737 345 737 q 579 700 513 737 q 681 600 644 663 q 718 460 718 537 q 714 404 718 433 q 702 350 709 376 q 686 302 695 323 l 178 302 l 201 427 l 547 427 q 550 443 549 435 q 551 457 551 451 q 513 548 551 513 q 418 583 476 583 q 333 561 372 583 q 266 501 294 538 q 222 417 238 464 q 207 323 207 371 q 251 192 207 243 q 375 141 296 141 q 467 157 422 141 q 539 196 512 173 l 599 49 q 490 5 549 20 q 369 -11 430 -11 m 471 788 l 382 858 l 579 1108 l 688 1006 l 471 788 z "},"ĕ":{"ha":751,"x_min":46,"x_max":766,"o":"m 369 -11 q 196 30 269 -11 q 85 143 124 71 q 46 312 46 216 q 74 470 46 394 q 154 607 102 547 q 275 702 205 667 q 428 737 345 737 q 579 700 513 737 q 681 600 644 663 q 718 460 718 537 q 714 404 718 433 q 702 350 709 376 q 686 302 695 323 l 178 302 l 201 427 l 547 427 q 550 443 549 435 q 551 457 551 451 q 513 548 551 513 q 418 583 476 583 q 333 561 372 583 q 266 501 294 538 q 222 417 238 464 q 207 323 207 371 q 251 192 207 243 q 375 141 296 141 q 467 157 422 141 q 539 196 512 173 l 599 49 q 490 5 549 20 q 369 -11 430 -11 m 480 812 q 356 845 409 812 q 279 930 303 877 q 266 1046 254 984 l 380 1029 q 400 947 371 979 q 481 916 429 916 q 558 934 522 916 q 620 983 594 953 q 651 1046 645 1013 l 765 1029 q 711 917 753 966 q 608 840 669 868 q 480 812 548 812 z "},"ě":{"ha":751,"x_min":46,"x_max":749,"o":"m 369 -11 q 196 30 269 -11 q 85 143 124 71 q 46 312 46 216 q 74 470 46 394 q 154 607 102 547 q 275 702 205 667 q 428 737 345 737 q 579 700 513 737 q 681 600 644 663 q 718 460 718 537 q 714 404 718 433 q 702 350 709 376 q 686 302 695 323 l 178 302 l 201 427 l 547 427 q 550 443 549 435 q 551 457 551 451 q 513 548 551 513 q 418 583 476 583 q 333 561 372 583 q 266 501 294 538 q 222 417 238 464 q 207 323 207 371 q 251 192 207 243 q 375 141 296 141 q 467 157 422 141 q 539 196 512 173 l 599 49 q 490 5 549 20 q 369 -11 430 -11 m 444 784 l 245 986 l 326 1074 l 477 918 l 483 918 l 683 1074 l 749 986 l 482 784 l 444 784 z "},"ḝ":{"ha":751,"x_min":46,"x_max":766,"o":"m 369 -11 q 196 30 269 -11 q 85 143 124 71 q 46 312 46 216 q 74 470 46 394 q 154 607 102 547 q 275 702 205 667 q 428 737 345 737 q 579 700 513 737 q 681 600 644 663 q 718 460 718 537 q 714 404 718 433 q 702 350 709 376 q 686 302 695 323 l 178 302 l 201 427 l 547 427 q 550 443 549 435 q 551 457 551 451 q 513 548 551 513 q 418 583 476 583 q 333 561 372 583 q 266 501 294 538 q 222 417 238 464 q 207 323 207 371 q 251 192 207 243 q 375 141 296 141 q 467 157 422 141 q 539 196 512 173 l 599 49 q 490 5 549 20 q 369 -11 430 -11 m 151 -338 l 161 -244 q 272 -227 231 -246 q 319 -180 313 -208 q 301 -147 323 -158 q 229 -132 279 -136 l 294 0 l 382 0 l 321 -111 l 313 -66 q 378 -83 349 -67 q 421 -130 407 -100 q 427 -205 436 -161 q 385 -281 418 -252 q 293 -325 351 -311 q 151 -338 235 -338 m 480 812 q 356 845 409 812 q 279 930 303 877 q 266 1046 254 984 l 380 1029 q 400 947 371 979 q 481 916 429 916 q 558 934 522 916 q 620 983 594 953 q 651 1046 645 1013 l 765 1029 q 711 917 753 966 q 608 840 669 868 q 480 812 548 812 z "},"ê":{"ha":751,"x_min":46,"x_max":733,"o":"m 369 -11 q 196 30 269 -11 q 85 143 124 71 q 46 312 46 216 q 74 470 46 394 q 154 607 102 547 q 275 702 205 667 q 428 737 345 737 q 579 700 513 737 q 681 600 644 663 q 718 460 718 537 q 714 404 718 433 q 702 350 709 376 q 686 302 695 323 l 178 302 l 201 427 l 547 427 q 550 443 549 435 q 551 457 551 451 q 513 548 551 513 q 418 583 476 583 q 333 561 372 583 q 266 501 294 538 q 222 417 238 464 q 207 323 207 371 q 251 192 207 243 q 375 141 296 141 q 467 157 422 141 q 539 196 512 173 l 599 49 q 490 5 549 20 q 369 -11 430 -11 m 296 784 l 229 872 l 496 1074 l 535 1074 l 733 872 l 652 784 l 501 941 l 496 941 l 296 784 z "},"ế":{"ha":751,"x_min":46,"x_max":941,"o":"m 369 -11 q 196 30 269 -11 q 85 143 124 71 q 46 312 46 216 q 74 470 46 394 q 154 607 102 547 q 275 702 205 667 q 428 737 345 737 q 579 700 513 737 q 681 600 644 663 q 718 460 718 537 q 714 404 718 433 q 702 350 709 376 q 686 302 695 323 l 178 302 l 201 427 l 547 427 q 550 443 549 435 q 551 457 551 451 q 513 548 551 513 q 418 583 476 583 q 333 561 372 583 q 266 501 294 538 q 222 417 238 464 q 207 323 207 371 q 251 192 207 243 q 375 141 296 141 q 467 157 422 141 q 539 196 512 173 l 599 49 q 490 5 549 20 q 369 -11 430 -11 m 690 979 l 617 1040 l 872 1257 l 941 1139 l 690 979 m 302 793 l 228 882 l 491 1045 l 530 1045 l 736 882 l 642 793 l 494 920 l 493 920 l 302 793 z "},"ệ":{"ha":751,"x_min":46,"x_max":733,"o":"m 369 -11 q 196 30 269 -11 q 85 143 124 71 q 46 312 46 216 q 74 470 46 394 q 154 607 102 547 q 275 702 205 667 q 428 737 345 737 q 579 700 513 737 q 681 600 644 663 q 718 460 718 537 q 714 404 718 433 q 702 350 709 376 q 686 302 695 323 l 178 302 l 201 427 l 547 427 q 550 443 549 435 q 551 457 551 451 q 513 548 551 513 q 418 583 476 583 q 333 561 372 583 q 266 501 294 538 q 222 417 238 464 q 207 323 207 371 q 251 192 207 243 q 375 141 296 141 q 467 157 422 141 q 539 196 512 173 l 599 49 q 490 5 549 20 q 369 -11 430 -11 m 298 -317 q 213 -282 247 -317 q 178 -198 178 -248 q 213 -114 178 -148 q 297 -79 247 -79 q 382 -114 347 -79 q 416 -198 416 -148 q 382 -282 416 -248 q 298 -317 347 -317 m 296 784 l 229 872 l 496 1074 l 535 1074 l 733 872 l 652 784 l 501 941 l 496 941 l 296 784 z "},"ề":{"ha":751,"x_min":46,"x_max":736,"o":"m 369 -11 q 196 30 269 -11 q 85 143 124 71 q 46 312 46 216 q 74 470 46 394 q 154 607 102 547 q 275 702 205 667 q 428 737 345 737 q 579 700 513 737 q 681 600 644 663 q 718 460 718 537 q 714 404 718 433 q 702 350 709 376 q 686 302 695 323 l 178 302 l 201 427 l 547 427 q 550 443 549 435 q 551 457 551 451 q 513 548 551 513 q 418 583 476 583 q 333 561 372 583 q 266 501 294 538 q 222 417 238 464 q 207 323 207 371 q 251 192 207 243 q 375 141 296 141 q 467 157 422 141 q 539 196 512 173 l 599 49 q 490 5 549 20 q 369 -11 430 -11 m 285 977 l 107 1177 l 222 1269 l 378 1036 l 285 977 m 302 793 l 229 882 l 492 1045 l 531 1045 l 736 882 l 643 793 l 494 920 l 494 920 l 302 793 z "},"ể":{"ha":751,"x_min":46,"x_max":814,"o":"m 369 -11 q 196 30 269 -11 q 85 143 124 71 q 46 312 46 216 q 74 470 46 394 q 154 607 102 547 q 275 702 205 667 q 428 737 345 737 q 579 700 513 737 q 681 600 644 663 q 718 460 718 537 q 714 404 718 433 q 702 350 709 376 q 686 302 695 323 l 178 302 l 201 427 l 547 427 q 550 443 549 435 q 551 457 551 451 q 513 548 551 513 q 418 583 476 583 q 333 561 372 583 q 266 501 294 538 q 222 417 238 464 q 207 323 207 371 q 251 192 207 243 q 375 141 296 141 q 467 157 422 141 q 539 196 512 173 l 599 49 q 490 5 549 20 q 369 -11 430 -11 m 699 969 l 617 1036 q 665 1073 647 1053 q 687 1110 684 1093 q 680 1136 691 1127 q 637 1145 669 1145 q 595 1141 619 1145 q 553 1132 572 1138 l 567 1247 q 605 1256 585 1253 q 648 1259 625 1259 q 777 1221 740 1259 q 803 1120 814 1183 q 764 1032 794 1072 q 699 969 734 993 m 302 793 l 228 882 l 491 1045 l 530 1045 l 736 882 l 642 793 l 494 920 l 493 920 l 302 793 z "},"ễ":{"ha":751,"x_min":46,"x_max":797,"o":"m 369 -11 q 196 30 269 -11 q 85 143 124 71 q 46 312 46 216 q 74 470 46 394 q 154 607 102 547 q 275 702 205 667 q 428 737 345 737 q 579 700 513 737 q 681 600 644 663 q 718 460 718 537 q 714 404 718 433 q 702 350 709 376 q 686 302 695 323 l 178 302 l 201 427 l 547 427 q 550 443 549 435 q 551 457 551 451 q 513 548 551 513 q 418 583 476 583 q 333 561 372 583 q 266 501 294 538 q 222 417 238 464 q 207 323 207 371 q 251 192 207 243 q 375 141 296 141 q 467 157 422 141 q 539 196 512 173 l 599 49 q 490 5 549 20 q 369 -11 430 -11 m 369 1066 l 250 1078 q 317 1208 267 1160 q 435 1257 368 1257 q 495 1245 471 1257 q 537 1216 519 1233 q 571 1187 555 1200 q 606 1175 587 1175 q 651 1204 632 1175 q 676 1270 669 1233 l 797 1259 q 760 1161 786 1205 q 694 1090 733 1117 q 610 1063 656 1063 q 552 1076 576 1063 q 511 1104 529 1088 q 477 1133 494 1120 q 439 1145 460 1145 q 396 1126 414 1145 q 369 1066 378 1106 m 302 793 l 229 882 l 492 1045 l 531 1045 l 736 882 l 643 793 l 494 920 l 494 920 l 302 793 z "},"ȅ":{"ha":751,"x_min":46,"x_max":718,"o":"m 369 -11 q 196 30 269 -11 q 85 143 124 71 q 46 312 46 216 q 74 470 46 394 q 154 607 102 547 q 275 702 205 667 q 428 737 345 737 q 579 700 513 737 q 681 600 644 663 q 718 460 718 537 q 714 404 718 433 q 702 350 709 376 q 686 302 695 323 l 178 302 l 201 427 l 547 427 q 550 443 549 435 q 551 457 551 451 q 513 548 551 513 q 418 583 476 583 q 333 561 372 583 q 266 501 294 538 q 222 417 238 464 q 207 323 207 371 q 251 192 207 243 q 375 141 296 141 q 467 157 422 141 q 539 196 512 173 l 599 49 q 490 5 549 20 q 369 -11 430 -11 m 334 796 l 222 1031 l 357 1093 l 432 820 l 334 796 m 576 796 l 464 1031 l 602 1093 l 673 820 l 576 796 z "},"ë":{"ha":751,"x_min":46,"x_max":761,"o":"m 369 -11 q 196 30 269 -11 q 85 143 124 71 q 46 312 46 216 q 74 470 46 394 q 154 607 102 547 q 275 702 205 667 q 428 737 345 737 q 579 700 513 737 q 681 600 644 663 q 718 460 718 537 q 714 404 718 433 q 702 350 709 376 q 686 302 695 323 l 178 302 l 201 427 l 547 427 q 550 443 549 435 q 551 457 551 451 q 513 548 551 513 q 418 583 476 583 q 333 561 372 583 q 266 501 294 538 q 222 417 238 464 q 207 323 207 371 q 251 192 207 243 q 375 141 296 141 q 467 157 422 141 q 539 196 512 173 l 599 49 q 490 5 549 20 q 369 -11 430 -11 m 652 829 q 574 861 606 829 q 543 939 543 892 q 574 1016 543 985 q 652 1048 606 1048 q 729 1016 698 1048 q 761 939 761 985 q 729 861 761 892 q 652 829 698 829 m 339 829 q 261 861 293 829 q 230 939 230 892 q 261 1016 230 985 q 339 1048 293 1048 q 417 1016 385 1048 q 448 939 448 985 q 417 861 448 892 q 339 829 385 829 z "},"ė":{"ha":751,"x_min":46,"x_max":718,"o":"m 369 -11 q 196 30 269 -11 q 85 143 124 71 q 46 312 46 216 q 74 470 46 394 q 154 607 102 547 q 275 702 205 667 q 428 737 345 737 q 579 700 513 737 q 681 600 644 663 q 718 460 718 537 q 714 404 718 433 q 702 350 709 376 q 686 302 695 323 l 178 302 l 201 427 l 547 427 q 550 443 549 435 q 551 457 551 451 q 513 548 551 513 q 418 583 476 583 q 333 561 372 583 q 266 501 294 538 q 222 417 238 464 q 207 323 207 371 q 251 192 207 243 q 375 141 296 141 q 467 157 422 141 q 539 196 512 173 l 599 49 q 490 5 549 20 q 369 -11 430 -11 m 495 820 q 410 854 444 820 q 376 939 376 889 q 410 1023 376 989 q 494 1057 444 1057 q 579 1023 545 1057 q 614 939 614 989 q 579 854 614 889 q 495 820 545 820 z "},"ẹ":{"ha":751,"x_min":46,"x_max":718,"o":"m 369 -11 q 196 30 269 -11 q 85 143 124 71 q 46 312 46 216 q 74 470 46 394 q 154 607 102 547 q 275 702 205 667 q 428 737 345 737 q 579 700 513 737 q 681 600 644 663 q 718 460 718 537 q 714 404 718 433 q 702 350 709 376 q 686 302 695 323 l 178 302 l 201 427 l 547 427 q 550 443 549 435 q 551 457 551 451 q 513 548 551 513 q 418 583 476 583 q 333 561 372 583 q 266 501 294 538 q 222 417 238 464 q 207 323 207 371 q 251 192 207 243 q 375 141 296 141 q 467 157 422 141 q 539 196 512 173 l 599 49 q 490 5 549 20 q 369 -11 430 -11 m 298 -317 q 213 -282 247 -317 q 178 -198 178 -248 q 213 -114 178 -148 q 297 -79 247 -79 q 382 -114 347 -79 q 416 -198 416 -148 q 382 -282 416 -248 q 298 -317 347 -317 z "},"è":{"ha":751,"x_min":46,"x_max":718,"o":"m 369 -11 q 196 30 269 -11 q 85 143 124 71 q 46 312 46 216 q 74 470 46 394 q 154 607 102 547 q 275 702 205 667 q 428 737 345 737 q 579 700 513 737 q 681 600 644 663 q 718 460 718 537 q 714 404 718 433 q 702 350 709 376 q 686 302 695 323 l 178 302 l 201 427 l 547 427 q 550 443 549 435 q 551 457 551 451 q 513 548 551 513 q 418 583 476 583 q 333 561 372 583 q 266 501 294 538 q 222 417 238 464 q 207 323 207 371 q 251 192 207 243 q 375 141 296 141 q 467 157 422 141 q 539 196 512 173 l 599 49 q 490 5 549 20 q 369 -11 430 -11 m 470 791 l 290 1006 l 420 1108 l 562 856 l 470 791 z "},"ẻ":{"ha":751,"x_min":46,"x_max":718,"o":"m 369 -11 q 196 30 269 -11 q 85 143 124 71 q 46 312 46 216 q 74 470 46 394 q 154 607 102 547 q 275 702 205 667 q 428 737 345 737 q 579 700 513 737 q 681 600 644 663 q 718 460 718 537 q 714 404 718 433 q 702 350 709 376 q 686 302 695 323 l 178 302 l 201 427 l 547 427 q 550 443 549 435 q 551 457 551 451 q 513 548 551 513 q 418 583 476 583 q 333 561 372 583 q 266 501 294 538 q 222 417 238 464 q 207 323 207 371 q 251 192 207 243 q 375 141 296 141 q 467 157 422 141 q 539 196 512 173 l 599 49 q 490 5 549 20 q 369 -11 430 -11 m 491 782 l 433 856 q 479 889 462 871 q 502 926 497 907 q 495 955 507 945 q 450 965 483 965 q 404 961 429 965 q 360 951 379 957 l 375 1067 q 416 1076 395 1073 q 462 1079 437 1079 q 591 1040 553 1079 q 616 939 629 1002 q 571 848 606 888 q 491 782 536 808 z "},"ȇ":{"ha":751,"x_min":46,"x_max":744,"o":"m 369 -11 q 196 30 269 -11 q 85 143 124 71 q 46 312 46 216 q 74 470 46 394 q 154 607 102 547 q 275 702 205 667 q 428 737 345 737 q 579 700 513 737 q 681 600 644 663 q 718 460 718 537 q 714 404 718 433 q 702 350 709 376 q 686 302 695 323 l 178 302 l 201 427 l 547 427 q 550 443 549 435 q 551 457 551 451 q 513 548 551 513 q 418 583 476 583 q 333 561 372 583 q 266 501 294 538 q 222 417 238 464 q 207 323 207 371 q 251 192 207 243 q 375 141 296 141 q 467 157 422 141 q 539 196 512 173 l 599 49 q 490 5 549 20 q 369 -11 430 -11 m 728 806 l 617 823 q 597 906 627 868 q 501 943 567 943 q 399 904 440 943 q 347 810 358 865 l 235 827 q 288 944 248 895 q 387 1020 328 994 q 512 1047 446 1047 q 638 1015 584 1047 q 718 929 692 983 q 728 806 744 874 z "},"ē":{"ha":751,"x_min":46,"x_max":777,"o":"m 369 -11 q 196 30 269 -11 q 85 143 124 71 q 46 312 46 216 q 74 470 46 394 q 154 607 102 547 q 275 702 205 667 q 428 737 345 737 q 579 700 513 737 q 681 600 644 663 q 718 460 718 537 q 714 404 718 433 q 702 350 709 376 q 686 302 695 323 l 178 302 l 201 427 l 547 427 q 550 443 549 435 q 551 457 551 451 q 513 548 551 513 q 418 583 476 583 q 333 561 372 583 q 266 501 294 538 q 222 417 238 464 q 207 323 207 371 q 251 192 207 243 q 375 141 296 141 q 467 157 422 141 q 539 196 512 173 l 599 49 q 490 5 549 20 q 369 -11 430 -11 m 201 856 l 225 972 l 777 972 l 753 856 l 201 856 z "},"ḗ":{"ha":751,"x_min":46,"x_max":777,"o":"m 369 -11 q 196 30 269 -11 q 85 143 124 71 q 46 312 46 216 q 74 470 46 394 q 154 607 102 547 q 275 702 205 667 q 428 737 345 737 q 579 700 513 737 q 681 600 644 663 q 718 460 718 537 q 714 404 718 433 q 702 350 709 376 q 686 302 695 323 l 178 302 l 201 427 l 547 427 q 550 443 549 435 q 551 457 551 451 q 513 548 551 513 q 418 583 476 583 q 333 561 372 583 q 266 501 294 538 q 222 417 238 464 q 207 323 207 371 q 251 192 207 243 q 375 141 296 141 q 467 157 422 141 q 539 196 512 173 l 599 49 q 490 5 549 20 q 369 -11 430 -11 m 201 856 l 225 972 l 777 972 l 753 856 l 201 856 m 522 1040 l 433 1109 l 629 1360 l 739 1257 l 522 1040 z "},"ḕ":{"ha":751,"x_min":46,"x_max":777,"o":"m 369 -11 q 196 30 269 -11 q 85 143 124 71 q 46 312 46 216 q 74 470 46 394 q 154 607 102 547 q 275 702 205 667 q 428 737 345 737 q 579 700 513 737 q 681 600 644 663 q 718 460 718 537 q 714 404 718 433 q 702 350 709 376 q 686 302 695 323 l 178 302 l 201 427 l 547 427 q 550 443 549 435 q 551 457 551 451 q 513 548 551 513 q 418 583 476 583 q 333 561 372 583 q 266 501 294 538 q 222 417 238 464 q 207 323 207 371 q 251 192 207 243 q 375 141 296 141 q 467 157 422 141 q 539 196 512 173 l 599 49 q 490 5 549 20 q 369 -11 430 -11 m 201 856 l 225 972 l 777 972 l 753 856 l 201 856 m 520 1043 l 340 1257 l 470 1360 l 612 1107 l 520 1043 z "},"ę":{"ha":751,"x_min":46,"x_max":718,"o":"m 369 -11 q 196 30 269 -11 q 85 143 124 71 q 46 312 46 216 q 74 470 46 394 q 154 607 102 547 q 275 702 205 667 q 428 737 345 737 q 579 700 513 737 q 681 600 644 663 q 718 460 718 537 q 714 404 718 433 q 702 350 709 376 q 686 302 695 323 l 178 302 l 201 427 l 547 427 q 550 443 549 435 q 551 457 551 451 q 513 548 551 513 q 418 583 476 583 q 333 561 372 583 q 266 501 294 538 q 222 417 238 464 q 207 323 207 371 q 251 192 207 243 q 375 141 296 141 q 467 157 422 141 q 539 196 512 173 l 599 49 q 490 5 549 20 q 369 -11 430 -11 m 456 -238 q 352 -196 387 -238 q 330 -90 317 -154 q 389 3 342 -38 q 508 85 435 43 l 604 50 q 535 5 569 28 q 476 -42 500 -19 q 447 -89 452 -66 q 454 -119 444 -107 q 490 -130 464 -130 q 539 -122 515 -130 q 576 -108 564 -114 l 562 -221 q 509 -234 541 -230 q 456 -238 476 -238 z "},"ẽ":{"ha":751,"x_min":46,"x_max":773,"o":"m 369 -11 q 196 30 269 -11 q 85 143 124 71 q 46 312 46 216 q 74 470 46 394 q 154 607 102 547 q 275 702 205 667 q 428 737 345 737 q 579 700 513 737 q 681 600 644 663 q 718 460 718 537 q 714 404 718 433 q 702 350 709 376 q 686 302 695 323 l 178 302 l 201 427 l 547 427 q 550 443 549 435 q 551 457 551 451 q 513 548 551 513 q 418 583 476 583 q 333 561 372 583 q 266 501 294 538 q 222 417 238 464 q 207 323 207 371 q 251 192 207 243 q 375 141 296 141 q 467 157 422 141 q 539 196 512 173 l 599 49 q 490 5 549 20 q 369 -11 430 -11 m 339 817 l 218 827 q 260 932 232 888 q 326 1000 288 976 q 408 1024 364 1024 q 470 1010 446 1024 q 512 979 494 997 q 545 948 529 962 q 580 935 560 935 q 626 961 607 935 q 653 1025 644 987 l 773 1015 q 732 911 760 956 q 665 842 704 867 q 582 818 627 818 q 522 831 546 818 q 481 863 498 845 q 448 894 465 880 q 412 908 432 908 q 366 883 385 908 q 339 817 347 857 z "},"ə":{"ha":751,"x_min":33,"x_max":705,"o":"m 378 737 q 554 695 481 737 q 666 579 627 652 q 705 415 705 506 q 676 254 705 330 q 596 118 648 177 q 474 24 544 58 q 321 -11 404 -11 q 172 25 237 -11 q 70 126 107 62 q 33 272 33 190 q 38 325 33 295 q 50 382 42 355 q 66 427 57 410 l 574 427 l 551 304 l 203 304 q 200 284 201 294 q 199 264 199 274 q 232 175 199 212 q 326 138 264 138 q 417 162 376 138 q 486 223 457 185 q 529 309 514 262 q 544 402 544 355 q 497 534 544 485 q 371 583 450 583 q 280 568 326 583 q 207 531 235 552 l 147 677 q 258 722 197 706 q 378 737 319 737 z "},"f":{"ha":543,"x_min":-84,"x_max":657,"o":"m -15 -288 q -46 -287 -28 -288 q -84 -279 -64 -285 l -64 -118 q -47 -122 -54 -121 q -34 -123 -40 -123 q 39 -94 12 -123 q 77 -11 66 -64 l 241 817 q 345 1004 265 938 q 533 1069 425 1069 q 595 1064 563 1069 q 657 1046 627 1059 l 589 885 q 566 895 578 892 q 539 899 553 899 q 467 872 499 899 q 425 794 435 845 l 260 -33 q 165 -223 235 -158 q -15 -288 95 -288 m 79 577 l 109 726 l 585 726 l 555 577 l 79 577 z "},"g":{"ha":840,"x_min":-9,"x_max":825,"o":"m 283 -297 q 163 -284 220 -297 q 62 -253 106 -272 q -9 -212 17 -233 l 56 -56 q 115 -96 79 -77 q 196 -126 152 -115 q 283 -138 240 -138 q 386 -118 339 -138 q 466 -58 433 -97 q 509 33 498 -20 l 519 88 l 498 88 l 539 159 l 620 557 l 587 624 l 630 624 l 651 726 l 825 726 l 684 25 q 605 -155 662 -83 q 465 -262 547 -227 q 283 -297 382 -297 m 311 7 q 175 43 235 7 q 80 148 115 80 q 45 309 45 216 q 72 469 45 392 q 148 607 99 546 q 265 702 197 667 q 414 737 332 737 q 550 700 492 737 q 640 596 608 663 q 672 441 672 529 q 645 281 672 359 q 569 142 618 204 q 454 43 520 80 q 311 7 388 7 m 372 159 q 459 181 420 159 q 526 241 498 203 q 567 325 553 278 q 582 420 582 371 q 544 538 582 496 q 438 580 506 580 q 351 558 389 580 q 285 500 312 536 q 243 417 258 463 q 229 321 229 370 q 267 202 229 245 q 372 159 304 159 z "},"ǵ":{"ha":840,"x_min":-9,"x_max":825,"o":"m 283 -297 q 163 -284 220 -297 q 62 -253 106 -272 q -9 -212 17 -233 l 56 -56 q 115 -96 79 -77 q 196 -126 152 -115 q 283 -138 240 -138 q 386 -118 339 -138 q 466 -58 433 -97 q 509 33 498 -20 l 519 88 l 498 88 l 539 159 l 620 557 l 587 624 l 630 624 l 651 726 l 825 726 l 684 25 q 605 -155 662 -83 q 465 -262 547 -227 q 283 -297 382 -297 m 311 7 q 175 43 235 7 q 80 148 115 80 q 45 309 45 216 q 72 469 45 392 q 148 607 99 546 q 265 702 197 667 q 414 737 332 737 q 550 700 492 737 q 640 596 608 663 q 672 441 672 529 q 645 281 672 359 q 569 142 618 204 q 454 43 520 80 q 311 7 388 7 m 372 159 q 459 181 420 159 q 526 241 498 203 q 567 325 553 278 q 582 420 582 371 q 544 538 582 496 q 438 580 506 580 q 351 558 389 580 q 285 500 312 536 q 243 417 258 463 q 229 321 229 370 q 267 202 229 245 q 372 159 304 159 m 494 788 l 406 858 l 602 1108 l 711 1006 l 494 788 z "},"ğ":{"ha":840,"x_min":-9,"x_max":825,"o":"m 283 -297 q 163 -284 220 -297 q 62 -253 106 -272 q -9 -212 17 -233 l 56 -56 q 115 -96 79 -77 q 196 -126 152 -115 q 283 -138 240 -138 q 386 -118 339 -138 q 466 -58 433 -97 q 509 33 498 -20 l 519 88 l 498 88 l 539 159 l 620 557 l 587 624 l 630 624 l 651 726 l 825 726 l 684 25 q 605 -155 662 -83 q 465 -262 547 -227 q 283 -297 382 -297 m 311 7 q 175 43 235 7 q 80 148 115 80 q 45 309 45 216 q 72 469 45 392 q 148 607 99 546 q 265 702 197 667 q 414 737 332 737 q 550 700 492 737 q 640 596 608 663 q 672 441 672 529 q 645 281 672 359 q 569 142 618 204 q 454 43 520 80 q 311 7 388 7 m 372 159 q 459 181 420 159 q 526 241 498 203 q 567 325 553 278 q 582 420 582 371 q 544 538 582 496 q 438 580 506 580 q 351 558 389 580 q 285 500 312 536 q 243 417 258 463 q 229 321 229 370 q 267 202 229 245 q 372 159 304 159 m 503 812 q 379 845 432 812 q 302 930 326 877 q 289 1046 277 984 l 403 1029 q 423 947 394 979 q 505 916 452 916 q 581 934 545 916 q 643 983 617 953 q 674 1046 668 1013 l 788 1029 q 734 917 777 966 q 631 840 692 868 q 503 812 571 812 z "},"ǧ":{"ha":840,"x_min":-9,"x_max":825,"o":"m 283 -297 q 163 -284 220 -297 q 62 -253 106 -272 q -9 -212 17 -233 l 56 -56 q 115 -96 79 -77 q 196 -126 152 -115 q 283 -138 240 -138 q 386 -118 339 -138 q 466 -58 433 -97 q 509 33 498 -20 l 519 88 l 498 88 l 539 159 l 620 557 l 587 624 l 630 624 l 651 726 l 825 726 l 684 25 q 605 -155 662 -83 q 465 -262 547 -227 q 283 -297 382 -297 m 311 7 q 175 43 235 7 q 80 148 115 80 q 45 309 45 216 q 72 469 45 392 q 148 607 99 546 q 265 702 197 667 q 414 737 332 737 q 550 700 492 737 q 640 596 608 663 q 672 441 672 529 q 645 281 672 359 q 569 142 618 204 q 454 43 520 80 q 311 7 388 7 m 372 159 q 459 181 420 159 q 526 241 498 203 q 567 325 553 278 q 582 420 582 371 q 544 538 582 496 q 438 580 506 580 q 351 558 389 580 q 285 500 312 536 q 243 417 258 463 q 229 321 229 370 q 267 202 229 245 q 372 159 304 159 m 467 784 l 268 986 l 349 1074 l 500 918 l 506 918 l 706 1074 l 772 986 l 505 784 l 467 784 z "},"ĝ":{"ha":840,"x_min":-9,"x_max":825,"o":"m 283 -297 q 163 -284 220 -297 q 62 -253 106 -272 q -9 -212 17 -233 l 56 -56 q 115 -96 79 -77 q 196 -126 152 -115 q 283 -138 240 -138 q 386 -118 339 -138 q 466 -58 433 -97 q 509 33 498 -20 l 519 88 l 498 88 l 539 159 l 620 557 l 587 624 l 630 624 l 651 726 l 825 726 l 684 25 q 605 -155 662 -83 q 465 -262 547 -227 q 283 -297 382 -297 m 311 7 q 175 43 235 7 q 80 148 115 80 q 45 309 45 216 q 72 469 45 392 q 148 607 99 546 q 265 702 197 667 q 414 737 332 737 q 550 700 492 737 q 640 596 608 663 q 672 441 672 529 q 645 281 672 359 q 569 142 618 204 q 454 43 520 80 q 311 7 388 7 m 372 159 q 459 181 420 159 q 526 241 498 203 q 567 325 553 278 q 582 420 582 371 q 544 538 582 496 q 438 580 506 580 q 351 558 389 580 q 285 500 312 536 q 243 417 258 463 q 229 321 229 370 q 267 202 229 245 q 372 159 304 159 m 319 784 l 252 872 l 519 1074 l 558 1074 l 756 872 l 675 784 l 524 941 l 519 941 l 319 784 z "},"ģ":{"ha":840,"x_min":-9,"x_max":825,"o":"m 283 -297 q 163 -284 220 -297 q 62 -253 106 -272 q -9 -212 17 -233 l 56 -56 q 115 -96 79 -77 q 196 -126 152 -115 q 283 -138 240 -138 q 386 -118 339 -138 q 466 -58 433 -97 q 509 33 498 -20 l 519 88 l 498 88 l 539 159 l 620 557 l 587 624 l 630 624 l 651 726 l 825 726 l 684 25 q 605 -155 662 -83 q 465 -262 547 -227 q 283 -297 382 -297 m 311 7 q 175 43 235 7 q 80 148 115 80 q 45 309 45 216 q 72 469 45 392 q 148 607 99 546 q 265 702 197 667 q 414 737 332 737 q 550 700 492 737 q 640 596 608 663 q 672 441 672 529 q 645 281 672 359 q 569 142 618 204 q 454 43 520 80 q 311 7 388 7 m 372 159 q 459 181 420 159 q 526 241 498 203 q 567 325 553 278 q 582 420 582 371 q 544 538 582 496 q 438 580 506 580 q 351 558 389 580 q 285 500 312 536 q 243 417 258 463 q 229 321 229 370 q 267 202 229 245 q 372 159 304 159 m 600 1122 l 632 1071 l 553 1021 q 523 1003 542 1015 q 491 974 505 991 q 477 932 477 957 l 463 932 q 471 963 460 947 q 507 980 481 980 q 565 955 537 980 q 592 894 592 930 q 567 836 592 860 q 506 812 542 812 q 443 838 471 812 q 414 914 414 864 q 444 1006 414 972 q 513 1065 473 1041 l 600 1122 z "},"ġ":{"ha":840,"x_min":-9,"x_max":825,"o":"m 283 -297 q 163 -284 220 -297 q 62 -253 106 -272 q -9 -212 17 -233 l 56 -56 q 115 -96 79 -77 q 196 -126 152 -115 q 283 -138 240 -138 q 386 -118 339 -138 q 466 -58 433 -97 q 509 33 498 -20 l 519 88 l 498 88 l 539 159 l 620 557 l 587 624 l 630 624 l 651 726 l 825 726 l 684 25 q 605 -155 662 -83 q 465 -262 547 -227 q 283 -297 382 -297 m 311 7 q 175 43 235 7 q 80 148 115 80 q 45 309 45 216 q 72 469 45 392 q 148 607 99 546 q 265 702 197 667 q 414 737 332 737 q 550 700 492 737 q 640 596 608 663 q 672 441 672 529 q 645 281 672 359 q 569 142 618 204 q 454 43 520 80 q 311 7 388 7 m 372 159 q 459 181 420 159 q 526 241 498 203 q 567 325 553 278 q 582 420 582 371 q 544 538 582 496 q 438 580 506 580 q 351 558 389 580 q 285 500 312 536 q 243 417 258 463 q 229 321 229 370 q 267 202 229 245 q 372 159 304 159 m 518 820 q 433 854 467 820 q 399 939 399 889 q 433 1023 399 989 q 517 1057 467 1057 q 602 1023 568 1057 q 637 939 637 989 q 602 854 637 889 q 518 820 568 820 z "},"ḡ":{"ha":840,"x_min":-9,"x_max":825,"o":"m 283 -297 q 163 -284 220 -297 q 62 -253 106 -272 q -9 -212 17 -233 l 56 -56 q 115 -96 79 -77 q 196 -126 152 -115 q 283 -138 240 -138 q 386 -118 339 -138 q 466 -58 433 -97 q 509 33 498 -20 l 519 88 l 498 88 l 539 159 l 620 557 l 587 624 l 630 624 l 651 726 l 825 726 l 684 25 q 605 -155 662 -83 q 465 -262 547 -227 q 283 -297 382 -297 m 311 7 q 175 43 235 7 q 80 148 115 80 q 45 309 45 216 q 72 469 45 392 q 148 607 99 546 q 265 702 197 667 q 414 737 332 737 q 550 700 492 737 q 640 596 608 663 q 672 441 672 529 q 645 281 672 359 q 569 142 618 204 q 454 43 520 80 q 311 7 388 7 m 372 159 q 459 181 420 159 q 526 241 498 203 q 567 325 553 278 q 582 420 582 371 q 544 538 582 496 q 438 580 506 580 q 351 558 389 580 q 285 500 312 536 q 243 417 258 463 q 229 321 229 370 q 267 202 229 245 q 372 159 304 159 m 224 856 l 248 972 l 800 972 l 776 856 l 224 856 z "},"h":{"ha":800,"x_min":11,"x_max":739,"o":"m 644 -12 q 542 22 583 -3 q 485 91 501 47 q 483 199 469 134 l 531 438 q 519 546 546 511 q 442 580 492 580 q 371 561 404 580 q 316 507 338 541 q 284 427 294 473 l 198 0 l 11 0 l 219 1044 l 407 1044 l 334 669 l 350 669 l 282 590 q 379 702 315 666 q 519 737 444 737 q 653 700 603 737 q 721 601 704 663 q 724 465 739 538 l 677 228 q 676 169 669 186 q 709 144 683 151 l 644 -12 z "},"ħ":{"ha":800,"x_min":11,"x_max":739,"o":"m 644 -12 q 542 22 583 -3 q 485 91 501 47 q 483 199 469 134 l 531 438 q 519 546 546 511 q 442 580 492 580 q 371 561 404 580 q 316 507 338 541 q 284 427 294 473 l 198 0 l 11 0 l 219 1044 l 407 1044 l 334 669 l 350 669 l 282 590 q 379 702 315 666 q 519 737 444 737 q 653 700 603 737 q 721 601 704 663 q 724 465 739 538 l 677 228 q 676 169 669 186 q 709 144 683 151 l 644 -12 m 55 821 l 77 926 l 500 926 l 477 821 l 55 821 z "},"ḫ":{"ha":800,"x_min":11,"x_max":739,"o":"m 644 -12 q 542 22 583 -3 q 485 91 501 47 q 483 199 469 134 l 531 438 q 519 546 546 511 q 442 580 492 580 q 371 561 404 580 q 316 507 338 541 q 284 427 294 473 l 198 0 l 11 0 l 219 1044 l 407 1044 l 334 669 l 350 669 l 282 590 q 379 702 315 666 q 519 737 444 737 q 653 700 603 737 q 721 601 704 663 q 724 465 739 538 l 677 228 q 676 169 669 186 q 709 144 683 151 l 644 -12 m 296 -306 q 172 -274 225 -306 q 95 -188 119 -241 q 82 -72 71 -134 l 196 -90 q 216 -171 187 -139 q 298 -203 245 -203 q 374 -184 338 -203 q 436 -135 410 -165 q 467 -72 461 -105 l 581 -90 q 527 -201 570 -152 q 425 -278 485 -250 q 296 -306 364 -306 z "},"ĥ":{"ha":800,"x_min":11,"x_max":739,"o":"m 644 -12 q 542 22 583 -3 q 485 91 501 47 q 483 199 469 134 l 531 438 q 519 546 546 511 q 442 580 492 580 q 371 561 404 580 q 316 507 338 541 q 284 427 294 473 l 198 0 l 11 0 l 219 1044 l 407 1044 l 334 669 l 350 669 l 282 590 q 379 702 315 666 q 519 737 444 737 q 653 700 603 737 q 721 601 704 663 q 724 465 739 538 l 677 228 q 676 169 669 186 q 709 144 683 151 l 644 -12 m 159 1083 l 85 1172 l 349 1336 l 388 1336 l 593 1172 l 500 1083 l 355 1211 l 349 1211 l 159 1083 z "},"ḥ":{"ha":800,"x_min":11,"x_max":739,"o":"m 644 -12 q 542 22 583 -3 q 485 91 501 47 q 483 199 469 134 l 531 438 q 519 546 546 511 q 442 580 492 580 q 371 561 404 580 q 316 507 338 541 q 284 427 294 473 l 198 0 l 11 0 l 219 1044 l 407 1044 l 334 669 l 350 669 l 282 590 q 379 702 315 666 q 519 737 444 737 q 653 700 603 737 q 721 601 704 663 q 724 465 739 538 l 677 228 q 676 169 669 186 q 709 144 683 151 l 644 -12 m 299 -317 q 214 -282 248 -317 q 180 -198 180 -248 q 214 -114 180 -148 q 298 -79 248 -79 q 383 -114 349 -79 q 418 -198 418 -148 q 383 -282 418 -248 q 299 -317 349 -317 z "},"i":{"ha":410,"x_min":52,"x_max":418,"o":"m 261 -11 q 129 28 176 -4 q 66 114 81 60 q 67 243 52 169 l 163 726 l 351 726 l 252 227 q 258 181 245 197 q 290 157 270 165 q 326 146 310 150 l 261 -11 m 300 820 q 215 854 249 820 q 180 939 180 889 q 215 1023 180 989 q 299 1057 249 1057 q 384 1023 349 1057 q 418 939 418 989 q 384 854 418 889 q 300 820 349 820 z "},"ı":{"ha":410,"x_min":52,"x_max":351,"o":"m 261 -11 q 129 28 176 -4 q 66 114 81 60 q 67 243 52 169 l 163 726 l 351 726 l 252 227 q 258 181 245 197 q 290 157 270 165 q 326 146 310 150 l 261 -11 z "},"í":{"ha":410,"x_min":52,"x_max":493,"o":"m 261 -11 q 129 28 176 -4 q 66 114 81 60 q 67 243 52 169 l 163 726 l 351 726 l 252 227 q 258 181 245 197 q 290 157 270 165 q 326 146 310 150 l 261 -11 m 276 788 l 187 858 l 384 1108 l 493 1006 l 276 788 z "},"ĭ":{"ha":410,"x_min":52,"x_max":570,"o":"m 261 -11 q 129 28 176 -4 q 66 114 81 60 q 67 243 52 169 l 163 726 l 351 726 l 252 227 q 258 181 245 197 q 290 157 270 165 q 326 146 310 150 l 261 -11 m 285 812 q 161 845 214 812 q 83 930 108 877 q 71 1046 59 984 l 184 1029 q 204 947 176 979 q 286 916 233 916 q 362 934 326 916 q 424 983 399 953 q 456 1046 450 1013 l 570 1029 q 516 917 558 966 q 413 840 473 868 q 285 812 353 812 z "},"ǐ":{"ha":490,"x_min":90,"x_max":593,"o":"m 301 -11 q 169 28 216 -4 q 106 114 121 60 q 107 243 92 169 l 203 726 l 391 726 l 292 227 q 298 181 286 197 q 330 157 310 165 q 366 146 350 150 l 301 -11 m 288 784 l 90 986 l 170 1074 l 322 918 l 328 918 l 528 1074 l 593 986 l 327 784 l 288 784 z "},"î":{"ha":410,"x_min":34,"x_max":538,"o":"m 261 -11 q 129 28 176 -4 q 66 114 81 60 q 67 243 52 169 l 163 726 l 351 726 l 252 227 q 258 181 245 197 q 290 157 270 165 q 326 146 310 150 l 261 -11 m 100 784 l 34 872 l 300 1074 l 340 1074 l 538 872 l 457 784 l 306 941 l 300 941 l 100 784 z "},"ȉ":{"ha":410,"x_min":27,"x_max":479,"o":"m 261 -11 q 129 28 176 -4 q 66 114 81 60 q 67 243 52 169 l 163 726 l 351 726 l 252 227 q 258 181 245 197 q 290 157 270 165 q 326 146 310 150 l 261 -11 m 139 796 l 27 1031 l 162 1093 l 237 820 l 139 796 m 380 796 l 269 1031 l 406 1093 l 478 820 l 380 796 z "},"ï":{"ha":410,"x_min":34,"x_max":566,"o":"m 261 -11 q 129 28 176 -4 q 66 114 81 60 q 67 243 52 169 l 163 726 l 351 726 l 252 227 q 258 181 245 197 q 290 157 270 165 q 326 146 310 150 l 261 -11 m 456 829 q 378 861 410 829 q 347 939 347 892 q 378 1016 347 985 q 456 1048 410 1048 q 533 1016 502 1048 q 565 939 565 985 q 533 861 565 892 q 456 829 502 829 m 143 829 q 65 861 97 829 q 34 939 34 892 q 65 1016 34 985 q 143 1048 97 1048 q 221 1016 189 1048 q 252 939 252 985 q 221 861 252 892 q 143 829 189 829 z "},"ḯ":{"ha":410,"x_min":34,"x_max":566,"o":"m 261 -11 q 129 28 176 -4 q 66 114 81 60 q 67 243 52 169 l 163 726 l 351 726 l 252 227 q 258 181 245 197 q 290 157 270 165 q 326 146 310 150 l 261 -11 m 456 829 q 378 861 410 829 q 347 939 347 892 q 378 1016 347 985 q 456 1048 410 1048 q 533 1016 502 1048 q 565 939 565 985 q 533 861 565 892 q 456 829 502 829 m 143 829 q 65 861 97 829 q 34 939 34 892 q 65 1016 34 985 q 143 1048 97 1048 q 221 1016 189 1048 q 252 939 252 985 q 221 861 252 892 q 143 829 189 829 m 330 1063 l 241 1133 l 437 1383 l 547 1280 l 330 1063 z "},"ị":{"ha":410,"x_min":-16,"x_max":418,"o":"m 261 -11 q 129 28 176 -4 q 66 114 81 60 q 67 243 52 169 l 163 726 l 351 726 l 252 227 q 258 181 245 197 q 290 157 270 165 q 326 146 310 150 l 261 -11 m 300 820 q 215 854 249 820 q 180 939 180 889 q 215 1023 180 989 q 299 1057 249 1057 q 384 1023 349 1057 q 418 939 418 989 q 384 854 418 889 q 300 820 349 820 m 103 -317 q 18 -282 52 -317 q -16 -198 -16 -248 q 18 -114 -16 -148 q 102 -79 52 -79 q 187 -114 153 -79 q 222 -198 222 -148 q 187 -282 222 -248 q 103 -317 153 -317 z "},"ì":{"ha":410,"x_min":52,"x_max":367,"o":"m 261 -11 q 129 28 176 -4 q 66 114 81 60 q 67 243 52 169 l 163 726 l 351 726 l 252 227 q 258 181 245 197 q 290 157 270 165 q 326 146 310 150 l 261 -11 m 275 791 l 95 1006 l 224 1108 l 366 856 l 275 791 z "},"ỉ":{"ha":410,"x_min":52,"x_max":434,"o":"m 261 -11 q 129 28 176 -4 q 66 114 81 60 q 67 243 52 169 l 163 726 l 351 726 l 252 227 q 258 181 245 197 q 290 157 270 165 q 326 146 310 150 l 261 -11 m 296 782 l 238 856 q 284 889 267 871 q 307 926 302 907 q 299 955 311 945 q 255 965 288 965 q 209 961 233 965 q 165 951 184 957 l 180 1067 q 220 1076 199 1073 q 267 1079 241 1079 q 396 1040 358 1079 q 421 939 434 1002 q 376 848 411 888 q 296 782 341 808 z "},"ȋ":{"ha":410,"x_min":39,"x_max":549,"o":"m 261 -11 q 129 28 176 -4 q 66 114 81 60 q 67 243 52 169 l 163 726 l 351 726 l 252 227 q 258 181 245 197 q 290 157 270 165 q 326 146 310 150 l 261 -11 m 533 806 l 422 823 q 402 906 432 868 q 306 943 372 943 q 204 904 245 943 q 152 810 163 865 l 39 827 q 93 944 52 895 q 192 1020 133 994 q 317 1047 250 1047 q 443 1015 389 1047 q 523 929 497 983 q 533 806 549 874 z "},"ī":{"ha":410,"x_min":43,"x_max":532,"o":"m 261 -11 q 129 28 176 -4 q 66 114 81 60 q 67 243 52 169 l 163 726 l 351 726 l 252 227 q 258 181 245 197 q 290 157 270 165 q 326 146 310 150 l 261 -11 m 43 856 l 64 972 l 532 972 l 513 856 l 43 856 z "},"į":{"ha":410,"x_min":36,"x_max":418,"o":"m 261 -11 q 129 28 176 -4 q 66 114 81 60 q 67 243 52 169 l 163 726 l 351 726 l 252 227 q 258 181 245 197 q 290 157 270 165 q 326 146 310 150 l 261 -11 m 300 820 q 215 854 249 820 q 180 939 180 889 q 215 1023 180 989 q 299 1057 249 1057 q 384 1023 349 1057 q 418 939 418 989 q 384 854 418 889 q 300 820 349 820 m 183 -288 q 75 -247 113 -288 q 49 -140 36 -205 q 84 -59 58 -96 q 141 8 110 -22 q 195 56 172 37 l 260 -11 q 221 -51 241 -29 q 188 -94 201 -73 q 170 -134 174 -115 q 175 -161 168 -149 q 209 -172 182 -172 q 245 -168 224 -172 q 292 -153 265 -163 l 275 -273 q 232 -284 258 -279 q 183 -288 206 -288 z "},"ĩ":{"ha":410,"x_min":23,"x_max":578,"o":"m 261 -11 q 129 28 176 -4 q 66 114 81 60 q 67 243 52 169 l 163 726 l 351 726 l 252 227 q 258 181 245 197 q 290 157 270 165 q 326 146 310 150 l 261 -11 m 144 817 l 23 827 q 64 932 37 888 q 131 1000 92 976 q 213 1024 169 1024 q 275 1010 250 1024 q 316 979 299 997 q 349 948 334 962 q 385 935 365 935 q 430 961 412 935 q 458 1025 449 987 l 578 1015 q 537 911 565 956 q 470 842 509 867 q 387 818 431 818 q 327 831 351 818 q 286 863 303 845 q 253 894 269 880 q 216 908 237 908 q 171 883 189 908 q 144 817 152 857 z "},"j":{"ha":380,"x_min":-165,"x_max":433,"o":"m -65 -300 q -120 -296 -94 -300 q -165 -287 -147 -292 l -132 -124 q -105 -130 -121 -129 q -81 -132 -89 -132 q -9 -105 -37 -132 q 27 -41 19 -79 l 179 726 l 367 726 l 212 -54 q 162 -180 198 -125 q 68 -268 125 -236 q -65 -300 12 -300 m 314 820 q 229 854 263 820 q 195 939 195 889 q 229 1023 195 989 q 313 1057 263 1057 q 398 1023 363 1057 q 433 939 433 989 q 398 854 433 889 q 314 820 363 820 z "},"ȷ":{"ha":380,"x_min":-165,"x_max":367,"o":"m -65 -300 q -120 -296 -94 -300 q -165 -287 -147 -292 l -132 -124 q -105 -130 -121 -129 q -81 -132 -89 -132 q -9 -105 -37 -132 q 27 -41 19 -79 l 179 726 l 367 726 l 212 -54 q 162 -180 198 -125 q 68 -268 125 -236 q -65 -300 12 -300 z "},"ĵ":{"ha":431,"x_min":-165,"x_max":552,"o":"m -65 -300 q -120 -296 -94 -300 q -165 -287 -147 -292 l -132 -124 q -105 -130 -121 -129 q -81 -132 -89 -132 q -9 -105 -37 -132 q 27 -41 19 -79 l 179 726 l 367 726 l 212 -54 q 162 -180 198 -125 q 68 -268 125 -236 q -65 -300 12 -300 m 115 784 l 48 872 l 315 1074 l 354 1074 l 552 872 l 471 784 l 320 941 l 315 941 l 115 784 z "},"k":{"ha":773,"x_min":11,"x_max":814,"o":"m 11 0 l 219 1044 l 407 1044 l 285 429 l 351 429 l 294 406 l 585 726 l 814 726 l 429 323 l 418 426 l 685 0 l 486 0 l 270 355 l 328 311 l 262 311 l 198 0 l 11 0 z "},"ķ":{"ha":773,"x_min":11,"x_max":814,"o":"m 11 0 l 219 1044 l 407 1044 l 285 429 l 351 429 l 294 406 l 585 726 l 814 726 l 429 323 l 418 426 l 685 0 l 486 0 l 270 355 l 328 311 l 262 311 l 198 0 l 11 0 m 201 -387 l 168 -335 l 247 -286 q 277 -267 259 -278 q 309 -238 295 -256 q 322 -197 323 -221 l 338 -197 q 329 -228 340 -211 q 292 -244 319 -244 q 235 -219 262 -244 q 208 -158 208 -195 q 233 -100 208 -124 q 294 -77 258 -77 q 357 -102 329 -77 q 385 -178 385 -128 q 356 -271 385 -236 q 287 -330 326 -305 l 201 -387 z "},"ĸ":{"ha":762,"x_min":10,"x_max":810,"o":"m 10 0 l 156 726 l 345 726 l 285 430 l 332 430 l 263 399 l 580 726 l 810 726 l 390 324 l 408 432 l 674 0 l 460 0 l 255 348 l 308 318 l 262 318 l 198 0 l 10 0 z "},"l":{"ha":410,"x_min":37,"x_max":408,"o":"m 202 -10 q 105 14 144 -10 q 52 82 67 37 q 50 191 37 127 l 220 1044 l 408 1044 l 241 211 q 279 153 230 153 q 303 156 290 153 q 325 162 317 159 l 299 6 q 251 -6 279 -3 q 202 -10 224 -10 z "},"ĺ":{"ha":410,"x_min":37,"x_max":548,"o":"m 202 -10 q 105 14 144 -10 q 52 82 67 37 q 50 191 37 127 l 220 1044 l 408 1044 l 241 211 q 279 153 230 153 q 303 156 290 153 q 325 162 317 159 l 299 6 q 251 -6 279 -3 q 202 -10 224 -10 m 331 1106 l 242 1176 l 439 1426 l 548 1324 l 331 1106 z "},"ľ":{"ha":503,"x_min":37,"x_max":652,"o":"m 202 -10 q 105 14 144 -10 q 52 82 67 37 q 50 191 37 127 l 220 1044 l 408 1044 l 241 211 q 279 153 230 153 q 303 156 290 153 q 325 162 317 159 l 299 6 q 251 -6 279 -3 q 202 -10 224 -10 m 431 709 l 500 1044 l 652 1044 l 563 709 l 431 709 z "},"ļ":{"ha":410,"x_min":-20,"x_max":408,"o":"m 202 -10 q 105 14 144 -10 q 52 82 67 37 q 50 191 37 127 l 220 1044 l 408 1044 l 241 211 q 279 153 230 153 q 303 156 290 153 q 325 162 317 159 l 299 6 q 251 -6 279 -3 q 202 -10 224 -10 m 14 -387 l -20 -335 l 60 -286 q 90 -267 72 -278 q 122 -238 108 -256 q 135 -197 136 -221 l 151 -197 q 142 -228 153 -211 q 105 -244 132 -244 q 48 -219 75 -244 q 20 -158 20 -195 q 46 -100 20 -124 q 106 -77 71 -77 q 170 -102 142 -77 q 198 -178 198 -128 q 169 -271 198 -236 q 100 -330 139 -305 l 14 -387 z "}}}
